%TF.GenerationSoftware,KiCad,Pcbnew,10.0.3*%
%TF.CreationDate,2026-07-01T09:56:05-07:00*%
%TF.ProjectId,Motor Interface Board,4d6f746f-7220-4496-9e74-657266616365,rev?*%
%TF.SameCoordinates,Original*%
%TF.FileFunction,Copper,L2,Bot*%
%TF.FilePolarity,Positive*%
%FSLAX46Y46*%
G04 Gerber Fmt 4.6, Leading zero omitted, Abs format (unit mm)*
G04 Created by KiCad (PCBNEW 10.0.3) date 2026-07-01 09:56:05*
%MOMM*%
%LPD*%
G01*
G04 APERTURE LIST*
%TA.AperFunction,ComponentPad*%
%ADD10R,1.700000X1.700000*%
%TD*%
%TA.AperFunction,ComponentPad*%
%ADD11C,1.700000*%
%TD*%
%TA.AperFunction,ViaPad*%
%ADD12C,0.600000*%
%TD*%
%TA.AperFunction,ViaPad*%
%ADD13C,4.500000*%
%TD*%
%TA.AperFunction,ViaPad*%
%ADD14C,3.800000*%
%TD*%
%TA.AperFunction,ViaPad*%
%ADD15C,1.000000*%
%TD*%
%TA.AperFunction,Conductor*%
%ADD16C,0.400000*%
%TD*%
%TA.AperFunction,Conductor*%
%ADD17C,0.700000*%
%TD*%
%TA.AperFunction,Conductor*%
%ADD18C,1.000000*%
%TD*%
G04 APERTURE END LIST*
D10*
%TO.P,J3,1,Pin_1_1*%
%TO.N,+5V_IN*%
X160728444Y-34462966D03*
D11*
%TO.P,J3,2,Pin_2_2*%
%TO.N,GND*%
X163268444Y-34462966D03*
%TD*%
D10*
%TO.P,J5,1,Pin_1_1*%
%TO.N,unconnected-(J5-Pin_1-Pad1)*%
X153470000Y-61650000D03*
D11*
%TO.P,J5,2,Pin_2_2*%
%TO.N,/PU-_3V3*%
X156010000Y-61650000D03*
%TO.P,J5,3,Pin_3_3*%
%TO.N,GND*%
X158550000Y-61650000D03*
%TO.P,J5,4,Pin_4_4*%
%TO.N,/XCOM_3V3*%
X161090000Y-61650000D03*
%TO.P,J5,5,Pin_5_5*%
%TO.N,/DR-_3V3*%
X163630000Y-61650000D03*
%TO.P,J5,6,Pin_6_6*%
%TO.N,/MF-_3V3*%
X166170000Y-61650000D03*
%TO.P,J5,7,Pin_7_7*%
%TO.N,unconnected-(J5-Pin_7-Pad7)*%
X168710000Y-61650000D03*
%TO.P,J5,8,Pin_8_8*%
%TO.N,GND*%
X171250000Y-61650000D03*
%TO.P,J5,9,Pin_9_9*%
%TO.N,unconnected-(J5-Pin_9-Pad9)*%
X173790000Y-61650000D03*
%TO.P,J5,10,Pin_10_10*%
%TO.N,unconnected-(J5-Pin_10-Pad10)*%
X176330000Y-61650000D03*
%TO.P,J5,11,Pin_11_11*%
%TO.N,unconnected-(J5-Pin_11-Pad11)*%
X178870000Y-61650000D03*
%TO.P,J5,12,Pin_12_12*%
%TO.N,unconnected-(J5-Pin_12-Pad12)*%
X181410000Y-61650000D03*
%TO.P,J5,13,Pin_13_13*%
%TO.N,GND*%
X183950000Y-61650000D03*
%TO.P,J5,14,Pin_14_14*%
%TO.N,unconnected-(J5-Pin_14-Pad14)*%
X186490000Y-61650000D03*
%TO.P,J5,15,Pin_15_15*%
%TO.N,unconnected-(J5-Pin_15-Pad15)*%
X189030000Y-61650000D03*
%TO.P,J5,16,Pin_16_16*%
%TO.N,unconnected-(J5-Pin_16-Pad16)*%
X191570000Y-61650000D03*
%TO.P,J5,17,Pin_17_17*%
%TO.N,unconnected-(J5-Pin_17-Pad17)*%
X194110000Y-61650000D03*
%TO.P,J5,18,Pin_18_18*%
%TO.N,GND*%
X196650000Y-61650000D03*
%TO.P,J5,19,Pin_19_19*%
%TO.N,unconnected-(J5-Pin_19-Pad19)*%
X199190000Y-61650000D03*
%TO.P,J5,20,Pin_20_20*%
%TO.N,unconnected-(J5-Pin_20-Pad20)*%
X201730000Y-61650000D03*
%TD*%
D10*
%TO.P,J1,1,Pin_1_1*%
%TO.N,/XCOM*%
X170960000Y-70785480D03*
D11*
%TO.P,J1,2,Pin_2_2*%
%TO.N,GND*%
X170960000Y-68245480D03*
%TO.P,J1,3,Pin_3_3*%
%TO.N,/PU-*%
X173500000Y-70785480D03*
%TO.P,J1,4,Pin_4_4*%
%TO.N,GND*%
X173500000Y-68245480D03*
%TO.P,J1,5,Pin_5_5*%
%TO.N,/DR-*%
X176040000Y-70785480D03*
%TO.P,J1,6,Pin_6_6*%
%TO.N,GND*%
X176040000Y-68245480D03*
%TO.P,J1,7,Pin_7_7*%
%TO.N,/MF-*%
X178580000Y-70785480D03*
%TO.P,J1,8,Pin_8_8*%
%TO.N,GND*%
X178580000Y-68245480D03*
%TO.P,J1,9,Pin_9_9*%
X181120000Y-70785480D03*
%TO.P,J1,10,Pin_10_10*%
X181120000Y-68245480D03*
%TD*%
D10*
%TO.P,J7,1,Pin_1_1*%
%TO.N,Net-(J6-Pin_16)*%
X192470000Y-34825000D03*
D11*
%TO.P,J7,2,Pin_2_2*%
%TO.N,GND*%
X192470000Y-32285000D03*
%TO.P,J7,3,Pin_3_3*%
%TO.N,Net-(J6-Pin_17)*%
X195010000Y-34825000D03*
%TO.P,J7,4,Pin_4_4*%
%TO.N,GND*%
X195010000Y-32285000D03*
%TO.P,J7,5,Pin_5_5*%
%TO.N,Net-(J6-Pin_19)*%
X197550000Y-34825000D03*
%TO.P,J7,6,Pin_6_6*%
%TO.N,GND*%
X197550000Y-32285000D03*
%TO.P,J7,7,Pin_7_7*%
%TO.N,Net-(J6-Pin_20)*%
X200090000Y-34825000D03*
%TO.P,J7,8,Pin_8_8*%
%TO.N,GND*%
X200090000Y-32285000D03*
%TD*%
D10*
%TO.P,J6,1,Pin_1_1*%
%TO.N,Net-(J6-Pin_1)*%
X153460000Y-43400000D03*
D11*
%TO.P,J6,2,Pin_2_2*%
%TO.N,Net-(D1-K)*%
X156000000Y-43400000D03*
%TO.P,J6,3,Pin_3_3*%
%TO.N,GND*%
X158540000Y-43400000D03*
%TO.P,J6,4,Pin_4_4*%
%TO.N,unconnected-(J6-Pin_4-Pad4)*%
X161080000Y-43400000D03*
%TO.P,J6,5,Pin_5_5*%
%TO.N,+3V3_Pi*%
X163620000Y-43400000D03*
%TO.P,J6,6,Pin_6_6*%
%TO.N,unconnected-(J6-Pin_6-Pad6)*%
X166160000Y-43400000D03*
%TO.P,J6,7,Pin_7_7*%
%TO.N,unconnected-(J6-Pin_7-Pad7)*%
X168700000Y-43400000D03*
%TO.P,J6,8,Pin_8_8*%
%TO.N,GND*%
X171240000Y-43400000D03*
%TO.P,J6,9,Pin_9_9*%
%TO.N,unconnected-(J6-Pin_9-Pad9)*%
X173780000Y-43400000D03*
%TO.P,J6,10,Pin_10_10*%
%TO.N,unconnected-(J6-Pin_10-Pad10)*%
X176320000Y-43400000D03*
%TO.P,J6,11,Pin_11_11*%
%TO.N,unconnected-(J6-Pin_11-Pad11)*%
X178860000Y-43400000D03*
%TO.P,J6,12,Pin_12_12*%
%TO.N,unconnected-(J6-Pin_12-Pad12)*%
X181400000Y-43400000D03*
%TO.P,J6,13,Pin_13_13*%
%TO.N,GND*%
X183940000Y-43400000D03*
%TO.P,J6,14,Pin_14_14*%
%TO.N,unconnected-(J6-Pin_14-Pad14)*%
X186480000Y-43400000D03*
%TO.P,J6,15,Pin_15_15*%
%TO.N,unconnected-(J6-Pin_15-Pad15)*%
X189020000Y-43400000D03*
%TO.P,J6,16,Pin_16_16*%
%TO.N,Net-(J6-Pin_16)*%
X191560000Y-43400000D03*
%TO.P,J6,17,Pin_17_17*%
%TO.N,Net-(J6-Pin_17)*%
X194100000Y-43400000D03*
%TO.P,J6,18,Pin_18_18*%
%TO.N,GND*%
X196640000Y-43400000D03*
%TO.P,J6,19,Pin_19_19*%
%TO.N,Net-(J6-Pin_19)*%
X199180000Y-43400000D03*
%TO.P,J6,20,Pin_20_20*%
%TO.N,Net-(J6-Pin_20)*%
X201720000Y-43400000D03*
%TD*%
D10*
%TO.P,J2,1,Pin_1_1*%
%TO.N,/XCOM*%
X209492981Y-57661647D03*
D11*
%TO.P,J2,2,Pin_2_2*%
%TO.N,GND*%
X206952981Y-57661647D03*
%TO.P,J2,3,Pin_3_3*%
%TO.N,/PU-*%
X209492981Y-55121647D03*
%TO.P,J2,4,Pin_4_4*%
%TO.N,GND*%
X206952981Y-55121647D03*
%TO.P,J2,5,Pin_5_5*%
%TO.N,/DR-*%
X209492981Y-52581647D03*
%TO.P,J2,6,Pin_6_6*%
%TO.N,GND*%
X206952981Y-52581647D03*
%TO.P,J2,7,Pin_7_7*%
%TO.N,/MF-*%
X209492981Y-50041647D03*
%TO.P,J2,8,Pin_8_8*%
%TO.N,GND*%
X206952981Y-50041647D03*
%TO.P,J2,9,Pin_9_9*%
X209492981Y-47501647D03*
%TO.P,J2,10,Pin_10_10*%
X206952981Y-47501647D03*
%TD*%
D10*
%TO.P,J4,1,Pin_1_1*%
%TO.N,+3V3*%
X174429335Y-34150000D03*
D11*
%TO.P,J4,2,Pin_2_2*%
%TO.N,GND*%
X176969335Y-34150000D03*
%TD*%
D12*
%TO.N,GND*%
X214600000Y-50000000D03*
X209500000Y-44600000D03*
X187500000Y-32200000D03*
X183800000Y-38400000D03*
X192800000Y-37750000D03*
D13*
X145950000Y-71000000D03*
D12*
X174900000Y-65800000D03*
X200450000Y-71050000D03*
X184000000Y-58400000D03*
X214700000Y-59700000D03*
D14*
X154050000Y-46800000D03*
X200950000Y-58200000D03*
D12*
X196700000Y-58200000D03*
X203700000Y-32300000D03*
X196700000Y-45700000D03*
X184000000Y-45500000D03*
X179400000Y-31600000D03*
D14*
X200950000Y-46800000D03*
D12*
X158600000Y-58200000D03*
X196800000Y-67850000D03*
X160600000Y-71950000D03*
X151400000Y-67400000D03*
X166800000Y-69150000D03*
D13*
X145900000Y-32900000D03*
D12*
X196700000Y-37750000D03*
D13*
X214400000Y-32900000D03*
D14*
X154050000Y-58150000D03*
D12*
X214800000Y-38200000D03*
X168000000Y-66600000D03*
D13*
X214400000Y-71000000D03*
D12*
X209000000Y-63250000D03*
X200550000Y-37750000D03*
X211150000Y-65100000D03*
X171300000Y-58000000D03*
%TO.N,/XCOM_3V3*%
X157850000Y-66300000D03*
%TO.N,/DR-_3V3*%
X158650000Y-66900000D03*
%TO.N,/MF-_3V3*%
X158500000Y-68200000D03*
%TO.N,+3V3*%
X155070000Y-41300000D03*
X157700000Y-41300000D03*
%TO.N,/MF-*%
X160646437Y-69487998D03*
%TO.N,/DR-*%
X163120704Y-69638781D03*
%TO.N,/XCOM*%
X163920061Y-69670891D03*
%TO.N,/PU-*%
X162169975Y-65369975D03*
D15*
%TO.N,Net-(J6-Pin_1)*%
X153300000Y-38050000D03*
%TO.N,+3V3_Pi*%
X167400000Y-33700000D03*
%TD*%
%TO.N,GND*%
D16*
X173500000Y-68245480D02*
X176040000Y-68245480D01*
X181120000Y-68245480D02*
X181120000Y-70785480D01*
X178580000Y-68245480D02*
X181120000Y-68245480D01*
X176040000Y-68245480D02*
X178580000Y-68245480D01*
%TO.N,/XCOM_3V3*%
X157850000Y-65700000D02*
X161090000Y-62460000D01*
X161090000Y-62460000D02*
X161090000Y-61650000D01*
X157850000Y-66300000D02*
X157850000Y-65700000D01*
%TO.N,/DR-_3V3*%
X158650000Y-66630000D02*
X158650000Y-66900000D01*
X163630000Y-61650000D02*
X158650000Y-66630000D01*
%TO.N,/MF-_3V3*%
X158500000Y-68050000D02*
X163150000Y-63400000D01*
X158500000Y-68200000D02*
X158500000Y-68050000D01*
X163150000Y-63400000D02*
X164420000Y-63400000D01*
X164420000Y-63400000D02*
X166170000Y-61650000D01*
%TO.N,/MF-*%
X160646437Y-69487998D02*
X163858439Y-72700000D01*
X177165480Y-72700000D02*
X178580000Y-71285480D01*
X163858439Y-72700000D02*
X177165480Y-72700000D01*
%TO.N,/DR-*%
X164400000Y-72100000D02*
X175225480Y-72100000D01*
X175225480Y-72100000D02*
X176040000Y-71285480D01*
X163120704Y-70820704D02*
X164400000Y-72100000D01*
X163120704Y-69638781D02*
X163120704Y-70820704D01*
%TO.N,/XCOM*%
X163940655Y-69691485D02*
X163940655Y-69650297D01*
X170745480Y-71000000D02*
X165249170Y-71000000D01*
X165249170Y-71000000D02*
X163940655Y-69691485D01*
X170960000Y-70785480D02*
X170745480Y-71000000D01*
X163940655Y-69650297D02*
X163920061Y-69670891D01*
%TO.N,/PU-*%
X172250000Y-69535480D02*
X172250000Y-67767713D01*
X172250000Y-67767713D02*
X169532287Y-65050000D01*
X162169975Y-65330025D02*
X162169975Y-65369975D01*
X173500000Y-70785480D02*
X172250000Y-69535480D01*
X169532287Y-65050000D02*
X162450000Y-65050000D01*
X162450000Y-65050000D02*
X162169975Y-65330025D01*
%TO.N,Net-(J6-Pin_1)*%
D17*
X153300000Y-38050000D02*
X153300000Y-43220000D01*
D18*
X153300000Y-43220000D02*
X153530000Y-43450000D01*
%TO.N,+3V3_Pi*%
D17*
X167400000Y-39740000D02*
X163690000Y-43450000D01*
X167400000Y-33700000D02*
X167400000Y-39740000D01*
%TD*%
%TA.AperFunction,Conductor*%
%TO.N,GND*%
G36*
X179178671Y-68491838D02*
G01*
X179189702Y-68501629D01*
X179695269Y-69007197D01*
X179695269Y-69007196D01*
X179695270Y-69007197D01*
X179695270Y-69007196D01*
X179703893Y-69003624D01*
X179713698Y-68984727D01*
X179714955Y-68980447D01*
X179717952Y-68975997D01*
X179718423Y-68975328D01*
X179734622Y-68953034D01*
X179735837Y-68950649D01*
X179740016Y-68944727D01*
X179741845Y-68943275D01*
X179751172Y-68931089D01*
X179760648Y-68921055D01*
X179820984Y-68885835D01*
X179890790Y-68888825D01*
X179944507Y-68924994D01*
X179950577Y-68931999D01*
X179962207Y-68949250D01*
X179962826Y-68948871D01*
X179965373Y-68953028D01*
X180004727Y-69007195D01*
X180004728Y-69007196D01*
X180510297Y-68501627D01*
X180571619Y-68468143D01*
X180641311Y-68473127D01*
X180697244Y-68514999D01*
X180705363Y-68527308D01*
X180719896Y-68552480D01*
X180719899Y-68552484D01*
X180719901Y-68552487D01*
X180812993Y-68645579D01*
X180838169Y-68660114D01*
X180886384Y-68710682D01*
X180899606Y-68779289D01*
X180873638Y-68844153D01*
X180863849Y-68855182D01*
X180358282Y-69360748D01*
X180358281Y-69360749D01*
X180358282Y-69360750D01*
X180412452Y-69400106D01*
X180412454Y-69400107D01*
X180414053Y-69401087D01*
X180434399Y-69416661D01*
X180444422Y-69426127D01*
X180479645Y-69486468D01*
X180476653Y-69556274D01*
X180440484Y-69609990D01*
X180433480Y-69616059D01*
X180416204Y-69627701D01*
X180416584Y-69628321D01*
X180412434Y-69630863D01*
X180358282Y-69670206D01*
X180358281Y-69670207D01*
X180863850Y-70175776D01*
X180897335Y-70237099D01*
X180892351Y-70306791D01*
X180850479Y-70362724D01*
X180838173Y-70370842D01*
X180812996Y-70385378D01*
X180812990Y-70385383D01*
X180719903Y-70478470D01*
X180719898Y-70478476D01*
X180705362Y-70503653D01*
X180654793Y-70551867D01*
X180586185Y-70565087D01*
X180521322Y-70539117D01*
X180510296Y-70529330D01*
X180004728Y-70023762D01*
X180004727Y-70023762D01*
X179965379Y-70077920D01*
X179963368Y-70080938D01*
X179963066Y-70080736D01*
X179949233Y-70099187D01*
X179939622Y-70109361D01*
X179879276Y-70144576D01*
X179809471Y-70141576D01*
X179755760Y-70105401D01*
X179749682Y-70098385D01*
X179737425Y-70081571D01*
X179735568Y-70078514D01*
X179735100Y-70077729D01*
X179610112Y-69905696D01*
X179459788Y-69755372D01*
X179459786Y-69755370D01*
X179287817Y-69630429D01*
X179287812Y-69630426D01*
X179286584Y-69629674D01*
X179266237Y-69614099D01*
X179255087Y-69603568D01*
X179219866Y-69543228D01*
X179222383Y-69474845D01*
X179226446Y-69462434D01*
X179241242Y-69432046D01*
X179310119Y-69329152D01*
X179310117Y-69329150D01*
X179310118Y-69329150D01*
X178836149Y-68855182D01*
X178802664Y-68793859D01*
X178807648Y-68724168D01*
X178849519Y-68668234D01*
X178861822Y-68660119D01*
X178887007Y-68645579D01*
X178980099Y-68552487D01*
X178994634Y-68527310D01*
X179045199Y-68479096D01*
X179113805Y-68465871D01*
X179178671Y-68491838D01*
G37*
%TD.AperFunction*%
%TA.AperFunction,Conductor*%
G36*
X174098671Y-68491838D02*
G01*
X174109702Y-68501629D01*
X174615269Y-69007197D01*
X174615269Y-69007196D01*
X174615270Y-69007197D01*
X174615270Y-69007196D01*
X174623893Y-69003624D01*
X174633698Y-68984727D01*
X174634955Y-68980447D01*
X174637952Y-68975997D01*
X174638423Y-68975328D01*
X174654622Y-68953034D01*
X174655837Y-68950649D01*
X174660016Y-68944727D01*
X174661845Y-68943275D01*
X174671172Y-68931089D01*
X174680648Y-68921055D01*
X174740984Y-68885835D01*
X174810790Y-68888825D01*
X174864507Y-68924994D01*
X174870577Y-68931999D01*
X174882207Y-68949250D01*
X174882826Y-68948871D01*
X174885373Y-68953028D01*
X174924727Y-69007195D01*
X174924728Y-69007196D01*
X175430297Y-68501627D01*
X175491619Y-68468143D01*
X175561311Y-68473127D01*
X175617244Y-68514999D01*
X175625363Y-68527308D01*
X175639896Y-68552480D01*
X175639899Y-68552484D01*
X175639901Y-68552487D01*
X175732993Y-68645579D01*
X175758169Y-68660114D01*
X175806384Y-68710682D01*
X175819606Y-68779289D01*
X175793638Y-68844153D01*
X175783849Y-68855182D01*
X175278321Y-69360709D01*
X175278282Y-69360749D01*
X175278282Y-69360750D01*
X175332452Y-69400106D01*
X175332451Y-69400106D01*
X175334115Y-69400954D01*
X175341857Y-69406538D01*
X175344490Y-69409928D01*
X175354450Y-69416949D01*
X175363868Y-69425843D01*
X175399092Y-69486180D01*
X175396104Y-69555985D01*
X175359932Y-69609709D01*
X175352929Y-69615777D01*
X175335944Y-69627256D01*
X175336331Y-69627887D01*
X175332172Y-69630435D01*
X175160216Y-69755366D01*
X175009892Y-69905690D01*
X175009890Y-69905693D01*
X174884952Y-70077659D01*
X174884945Y-70077668D01*
X174884634Y-70078176D01*
X174883499Y-70079657D01*
X174882085Y-70081605D01*
X174882036Y-70081569D01*
X174869060Y-70098521D01*
X174859353Y-70108799D01*
X174799011Y-70144022D01*
X174729205Y-70141030D01*
X174675488Y-70104858D01*
X174669285Y-70097699D01*
X174657274Y-70081291D01*
X174655053Y-70077667D01*
X174655051Y-70077664D01*
X174655050Y-70077662D01*
X174530109Y-69905693D01*
X174379786Y-69755370D01*
X174207817Y-69630429D01*
X174207812Y-69630426D01*
X174206584Y-69629674D01*
X174186242Y-69614104D01*
X174176127Y-69604551D01*
X174140906Y-69544214D01*
X174143896Y-69474409D01*
X174180066Y-69420690D01*
X174187122Y-69414576D01*
X174203537Y-69402563D01*
X174207545Y-69400107D01*
X174207555Y-69400102D01*
X174229119Y-69384433D01*
X174255858Y-69374892D01*
X174261717Y-69360749D01*
X173756149Y-68855182D01*
X173722664Y-68793859D01*
X173727648Y-68724168D01*
X173769519Y-68668234D01*
X173781822Y-68660119D01*
X173807007Y-68645579D01*
X173900099Y-68552487D01*
X173914634Y-68527310D01*
X173965199Y-68479096D01*
X174033805Y-68465871D01*
X174098671Y-68491838D01*
G37*
%TD.AperFunction*%
%TA.AperFunction,Conductor*%
G36*
X176638671Y-68491838D02*
G01*
X176649702Y-68501629D01*
X177155269Y-69007197D01*
X177155269Y-69007196D01*
X177155270Y-69007197D01*
X177155270Y-69007196D01*
X177163893Y-69003624D01*
X177173698Y-68984727D01*
X177174955Y-68980447D01*
X177177952Y-68975997D01*
X177178423Y-68975328D01*
X177194622Y-68953034D01*
X177195837Y-68950649D01*
X177200016Y-68944727D01*
X177201845Y-68943275D01*
X177211172Y-68931089D01*
X177220648Y-68921055D01*
X177280984Y-68885835D01*
X177350790Y-68888825D01*
X177404507Y-68924994D01*
X177410577Y-68931999D01*
X177422207Y-68949250D01*
X177422826Y-68948871D01*
X177425373Y-68953028D01*
X177464727Y-69007195D01*
X177464728Y-69007196D01*
X177970297Y-68501627D01*
X177992235Y-68489647D01*
X178011889Y-68474192D01*
X178022374Y-68473190D01*
X178031619Y-68468143D01*
X178056557Y-68469926D01*
X178081443Y-68467550D01*
X178090803Y-68472375D01*
X178101311Y-68473127D01*
X178121325Y-68488109D01*
X178143546Y-68499565D01*
X178153449Y-68512158D01*
X178157244Y-68514999D01*
X178165363Y-68527308D01*
X178179896Y-68552480D01*
X178179899Y-68552484D01*
X178179901Y-68552487D01*
X178272993Y-68645579D01*
X178298169Y-68660114D01*
X178346384Y-68710682D01*
X178359606Y-68779289D01*
X178333638Y-68844153D01*
X178323849Y-68855182D01*
X177818321Y-69360709D01*
X177818282Y-69360749D01*
X177818282Y-69360750D01*
X177872452Y-69400106D01*
X177872451Y-69400106D01*
X177874115Y-69400954D01*
X177881857Y-69406538D01*
X177884490Y-69409928D01*
X177894450Y-69416949D01*
X177903868Y-69425843D01*
X177939092Y-69486180D01*
X177936104Y-69555985D01*
X177899932Y-69609709D01*
X177892929Y-69615777D01*
X177875944Y-69627256D01*
X177876331Y-69627887D01*
X177872172Y-69630435D01*
X177700216Y-69755366D01*
X177549892Y-69905690D01*
X177549890Y-69905693D01*
X177424952Y-70077659D01*
X177424945Y-70077668D01*
X177424634Y-70078176D01*
X177423499Y-70079657D01*
X177422085Y-70081605D01*
X177422036Y-70081569D01*
X177409060Y-70098521D01*
X177399353Y-70108799D01*
X177339011Y-70144022D01*
X177269205Y-70141030D01*
X177215488Y-70104858D01*
X177209285Y-70097699D01*
X177197274Y-70081291D01*
X177195053Y-70077667D01*
X177195051Y-70077664D01*
X177195050Y-70077662D01*
X177070109Y-69905693D01*
X176919786Y-69755370D01*
X176747817Y-69630429D01*
X176747812Y-69630426D01*
X176746584Y-69629674D01*
X176726242Y-69614104D01*
X176716127Y-69604551D01*
X176680906Y-69544214D01*
X176683896Y-69474409D01*
X176720066Y-69420690D01*
X176727122Y-69414576D01*
X176743537Y-69402563D01*
X176747545Y-69400107D01*
X176747555Y-69400102D01*
X176769119Y-69384433D01*
X176795858Y-69374892D01*
X176801717Y-69360749D01*
X176296149Y-68855182D01*
X176262664Y-68793859D01*
X176267648Y-68724168D01*
X176309519Y-68668234D01*
X176321822Y-68660119D01*
X176347007Y-68645579D01*
X176440099Y-68552487D01*
X176454634Y-68527310D01*
X176505199Y-68479096D01*
X176573805Y-68465871D01*
X176638671Y-68491838D01*
G37*
%TD.AperFunction*%
%TA.AperFunction,Conductor*%
G36*
X207551652Y-55368005D02*
G01*
X207562683Y-55377796D01*
X208068250Y-55883364D01*
X208068250Y-55883363D01*
X208068251Y-55883364D01*
X208068251Y-55883363D01*
X208076840Y-55879805D01*
X208086691Y-55860854D01*
X208087936Y-55856615D01*
X208091038Y-55852016D01*
X208091455Y-55851426D01*
X208107603Y-55829202D01*
X208108675Y-55827097D01*
X208112657Y-55821472D01*
X208114502Y-55820012D01*
X208123714Y-55807974D01*
X208133344Y-55797778D01*
X208193684Y-55762554D01*
X208263489Y-55765544D01*
X208317208Y-55801713D01*
X208323278Y-55808718D01*
X208334733Y-55825703D01*
X208335382Y-55825306D01*
X208337925Y-55829456D01*
X208337928Y-55829460D01*
X208337930Y-55829464D01*
X208462871Y-56001433D01*
X208563805Y-56102367D01*
X208584954Y-56130618D01*
X208591606Y-56142800D01*
X208606458Y-56211073D01*
X208582042Y-56276538D01*
X208582036Y-56276546D01*
X208579286Y-56280219D01*
X208523357Y-56322083D01*
X208400654Y-56367848D01*
X208400651Y-56367849D01*
X208400650Y-56367850D01*
X208400647Y-56367852D01*
X208400645Y-56367853D01*
X208400642Y-56367855D01*
X208285437Y-56454097D01*
X208285431Y-56454103D01*
X208199186Y-56569312D01*
X208199184Y-56569315D01*
X208148889Y-56704163D01*
X208142402Y-56764502D01*
X208142316Y-56765756D01*
X208142286Y-56766111D01*
X208142153Y-56766820D01*
X208142127Y-56767065D01*
X208142107Y-56767062D01*
X208137704Y-56790602D01*
X208130047Y-56816681D01*
X208098750Y-56869429D01*
X207562683Y-57405496D01*
X207501360Y-57438981D01*
X207431668Y-57433997D01*
X207375735Y-57392125D01*
X207367615Y-57379816D01*
X207353080Y-57354640D01*
X207259988Y-57261548D01*
X207259985Y-57261546D01*
X207259981Y-57261543D01*
X207234809Y-57247010D01*
X207186594Y-57196443D01*
X207173372Y-57127836D01*
X207199340Y-57062971D01*
X207209116Y-57051957D01*
X207714697Y-56546375D01*
X207714696Y-56546374D01*
X207660533Y-56507023D01*
X207658925Y-56506038D01*
X207638583Y-56490468D01*
X207628558Y-56480999D01*
X207593336Y-56420662D01*
X207596326Y-56350856D01*
X207632489Y-56297143D01*
X207639507Y-56291062D01*
X207656768Y-56279460D01*
X207656375Y-56278819D01*
X207660527Y-56276273D01*
X207660526Y-56276273D01*
X207660535Y-56276269D01*
X207682102Y-56260598D01*
X207708840Y-56251058D01*
X207714698Y-56236916D01*
X207209130Y-55731349D01*
X207175645Y-55670026D01*
X207180629Y-55600335D01*
X207222500Y-55544401D01*
X207234803Y-55536286D01*
X207259988Y-55521746D01*
X207353080Y-55428654D01*
X207367615Y-55403477D01*
X207418180Y-55355263D01*
X207486786Y-55342038D01*
X207551652Y-55368005D01*
G37*
%TD.AperFunction*%
%TA.AperFunction,Conductor*%
G36*
X207551652Y-52828005D02*
G01*
X207562683Y-52837796D01*
X208053664Y-53328777D01*
X208068251Y-53343364D01*
X208068251Y-53343363D01*
X208107603Y-53289202D01*
X208107609Y-53289189D01*
X208108136Y-53288331D01*
X208110110Y-53285750D01*
X208110468Y-53285259D01*
X208110480Y-53285267D01*
X208123714Y-53267974D01*
X208133344Y-53257778D01*
X208146487Y-53250105D01*
X208156455Y-53238602D01*
X208176049Y-53232848D01*
X208193684Y-53222554D01*
X208208890Y-53223205D01*
X208223495Y-53218917D01*
X208243089Y-53224670D01*
X208263489Y-53225544D01*
X208276963Y-53234616D01*
X208290534Y-53238601D01*
X208317208Y-53261713D01*
X208323278Y-53268718D01*
X208334733Y-53285703D01*
X208335382Y-53285306D01*
X208337925Y-53289456D01*
X208337928Y-53289460D01*
X208337930Y-53289464D01*
X208462871Y-53461433D01*
X208613194Y-53611756D01*
X208785163Y-53736697D01*
X208785171Y-53736701D01*
X208785674Y-53737010D01*
X208787155Y-53738143D01*
X208789103Y-53739559D01*
X208789067Y-53739607D01*
X208806015Y-53752581D01*
X208816296Y-53762290D01*
X208851522Y-53822630D01*
X208848533Y-53892436D01*
X208812364Y-53946154D01*
X208805208Y-53952355D01*
X208788795Y-53964370D01*
X208785171Y-53966590D01*
X208613191Y-54091539D01*
X208462867Y-54241863D01*
X208337924Y-54413834D01*
X208337169Y-54415068D01*
X208321594Y-54435415D01*
X208312051Y-54445519D01*
X208251709Y-54480741D01*
X208181903Y-54477747D01*
X208128192Y-54441581D01*
X208122088Y-54434537D01*
X208110067Y-54418114D01*
X208107609Y-54414104D01*
X208107607Y-54414099D01*
X208068251Y-54359929D01*
X208068249Y-54359929D01*
X207562683Y-54865496D01*
X207501360Y-54898981D01*
X207431668Y-54893997D01*
X207375735Y-54852125D01*
X207367615Y-54839816D01*
X207353080Y-54814640D01*
X207259988Y-54721548D01*
X207259985Y-54721546D01*
X207259981Y-54721543D01*
X207234809Y-54707010D01*
X207186594Y-54656443D01*
X207173372Y-54587836D01*
X207199340Y-54522971D01*
X207209116Y-54511957D01*
X207714697Y-54006375D01*
X207714696Y-54006374D01*
X207660533Y-53967023D01*
X207658925Y-53966038D01*
X207638583Y-53950468D01*
X207628558Y-53940999D01*
X207593336Y-53880662D01*
X207596326Y-53810856D01*
X207632489Y-53757143D01*
X207639507Y-53751062D01*
X207656768Y-53739460D01*
X207656375Y-53738819D01*
X207660527Y-53736273D01*
X207660526Y-53736273D01*
X207660535Y-53736269D01*
X207682102Y-53720598D01*
X207708840Y-53711058D01*
X207714698Y-53696916D01*
X207209130Y-53191349D01*
X207175645Y-53130026D01*
X207180629Y-53060335D01*
X207222500Y-53004401D01*
X207234803Y-52996286D01*
X207259988Y-52981746D01*
X207353080Y-52888654D01*
X207367615Y-52863477D01*
X207418180Y-52815263D01*
X207486786Y-52802038D01*
X207551652Y-52828005D01*
G37*
%TD.AperFunction*%
%TA.AperFunction,Conductor*%
G36*
X207551652Y-50288005D02*
G01*
X207562683Y-50297796D01*
X208053664Y-50788777D01*
X208068251Y-50803364D01*
X208068251Y-50803363D01*
X208107603Y-50749202D01*
X208107609Y-50749189D01*
X208108136Y-50748331D01*
X208110110Y-50745750D01*
X208110468Y-50745259D01*
X208110480Y-50745267D01*
X208123714Y-50727974D01*
X208133344Y-50717778D01*
X208146487Y-50710105D01*
X208156455Y-50698602D01*
X208176049Y-50692848D01*
X208193684Y-50682554D01*
X208208890Y-50683205D01*
X208223495Y-50678917D01*
X208243089Y-50684670D01*
X208263489Y-50685544D01*
X208276963Y-50694616D01*
X208290534Y-50698601D01*
X208317208Y-50721713D01*
X208323278Y-50728718D01*
X208334733Y-50745703D01*
X208335382Y-50745306D01*
X208337925Y-50749456D01*
X208337928Y-50749460D01*
X208337930Y-50749464D01*
X208462871Y-50921433D01*
X208613194Y-51071756D01*
X208785163Y-51196697D01*
X208785171Y-51196701D01*
X208785674Y-51197010D01*
X208787155Y-51198143D01*
X208789103Y-51199559D01*
X208789067Y-51199607D01*
X208806015Y-51212581D01*
X208816296Y-51222290D01*
X208851522Y-51282630D01*
X208848533Y-51352436D01*
X208812364Y-51406154D01*
X208805208Y-51412355D01*
X208788795Y-51424370D01*
X208785171Y-51426590D01*
X208613191Y-51551539D01*
X208462867Y-51701863D01*
X208337924Y-51873834D01*
X208337169Y-51875068D01*
X208321594Y-51895415D01*
X208312051Y-51905519D01*
X208251709Y-51940741D01*
X208181903Y-51937747D01*
X208128192Y-51901581D01*
X208122088Y-51894537D01*
X208110067Y-51878114D01*
X208107609Y-51874104D01*
X208107607Y-51874099D01*
X208068251Y-51819929D01*
X208068249Y-51819929D01*
X207562683Y-52325496D01*
X207501360Y-52358981D01*
X207431668Y-52353997D01*
X207375735Y-52312125D01*
X207367615Y-52299816D01*
X207353080Y-52274640D01*
X207259988Y-52181548D01*
X207259985Y-52181546D01*
X207259981Y-52181543D01*
X207234809Y-52167010D01*
X207186594Y-52116443D01*
X207173372Y-52047836D01*
X207199340Y-51982971D01*
X207209116Y-51971957D01*
X207714697Y-51466375D01*
X207714696Y-51466374D01*
X207660533Y-51427023D01*
X207658925Y-51426038D01*
X207638583Y-51410468D01*
X207628558Y-51400999D01*
X207593336Y-51340662D01*
X207596326Y-51270856D01*
X207632489Y-51217143D01*
X207639507Y-51211062D01*
X207656768Y-51199460D01*
X207656375Y-51198819D01*
X207660527Y-51196273D01*
X207660526Y-51196273D01*
X207660535Y-51196269D01*
X207682102Y-51180598D01*
X207708840Y-51171058D01*
X207714698Y-51156916D01*
X207209130Y-50651349D01*
X207175645Y-50590026D01*
X207180629Y-50520335D01*
X207222500Y-50464401D01*
X207234803Y-50456286D01*
X207259988Y-50441746D01*
X207353080Y-50348654D01*
X207367615Y-50323477D01*
X207418180Y-50275263D01*
X207486786Y-50262038D01*
X207551652Y-50288005D01*
G37*
%TD.AperFunction*%
%TA.AperFunction,Conductor*%
G36*
X207551652Y-47748005D02*
G01*
X207562683Y-47757796D01*
X208068250Y-48263364D01*
X208068250Y-48263363D01*
X208068251Y-48263364D01*
X208068251Y-48263363D01*
X208076874Y-48259791D01*
X208086679Y-48240894D01*
X208087936Y-48236614D01*
X208090933Y-48232164D01*
X208091404Y-48231495D01*
X208107603Y-48209201D01*
X208108818Y-48206816D01*
X208112997Y-48200894D01*
X208114826Y-48199442D01*
X208124153Y-48187256D01*
X208133629Y-48177222D01*
X208193965Y-48142002D01*
X208263771Y-48144992D01*
X208317488Y-48181161D01*
X208323558Y-48188166D01*
X208335188Y-48205417D01*
X208335807Y-48205038D01*
X208338354Y-48209195D01*
X208377708Y-48263362D01*
X208377709Y-48263363D01*
X208883278Y-47757794D01*
X208905216Y-47745814D01*
X208924870Y-47730359D01*
X208935355Y-47729357D01*
X208944600Y-47724310D01*
X208969538Y-47726093D01*
X208994424Y-47723717D01*
X209003784Y-47728542D01*
X209014292Y-47729294D01*
X209034306Y-47744276D01*
X209056527Y-47755732D01*
X209066430Y-47768325D01*
X209070225Y-47771166D01*
X209078344Y-47783475D01*
X209092877Y-47808647D01*
X209092880Y-47808651D01*
X209092882Y-47808654D01*
X209185974Y-47901746D01*
X209211150Y-47916281D01*
X209259365Y-47966849D01*
X209272587Y-48035456D01*
X209246619Y-48100320D01*
X209236830Y-48111349D01*
X208731302Y-48616876D01*
X208731263Y-48616916D01*
X208731263Y-48616917D01*
X208785433Y-48656273D01*
X208785432Y-48656273D01*
X208787096Y-48657121D01*
X208794838Y-48662705D01*
X208797471Y-48666095D01*
X208807431Y-48673116D01*
X208816849Y-48682010D01*
X208852073Y-48742347D01*
X208849085Y-48812152D01*
X208812913Y-48865876D01*
X208805910Y-48871944D01*
X208788925Y-48883423D01*
X208789312Y-48884054D01*
X208785153Y-48886602D01*
X208613197Y-49011533D01*
X208462867Y-49161863D01*
X208337924Y-49333834D01*
X208337169Y-49335068D01*
X208321594Y-49355415D01*
X208312051Y-49365519D01*
X208251709Y-49400741D01*
X208181903Y-49397747D01*
X208128192Y-49361581D01*
X208122088Y-49354537D01*
X208110067Y-49338114D01*
X208107609Y-49334104D01*
X208107607Y-49334099D01*
X208068251Y-49279929D01*
X208068249Y-49279929D01*
X207562683Y-49785496D01*
X207501360Y-49818981D01*
X207431668Y-49813997D01*
X207375735Y-49772125D01*
X207367615Y-49759816D01*
X207353080Y-49734640D01*
X207259988Y-49641548D01*
X207259985Y-49641546D01*
X207259981Y-49641543D01*
X207234809Y-49627010D01*
X207186594Y-49576443D01*
X207173372Y-49507836D01*
X207199340Y-49442971D01*
X207209116Y-49431957D01*
X207714697Y-48926375D01*
X207714696Y-48926374D01*
X207660533Y-48887023D01*
X207658925Y-48886038D01*
X207638583Y-48870468D01*
X207628558Y-48860999D01*
X207593336Y-48800662D01*
X207596326Y-48730856D01*
X207632489Y-48677143D01*
X207639507Y-48671062D01*
X207656768Y-48659460D01*
X207656375Y-48658819D01*
X207660527Y-48656273D01*
X207660526Y-48656273D01*
X207660535Y-48656269D01*
X207682102Y-48640598D01*
X207708840Y-48631058D01*
X207714698Y-48616916D01*
X207209130Y-48111349D01*
X207175645Y-48050026D01*
X207180629Y-47980335D01*
X207222500Y-47924401D01*
X207234803Y-47916286D01*
X207259988Y-47901746D01*
X207353080Y-47808654D01*
X207367615Y-47783477D01*
X207418180Y-47735263D01*
X207486786Y-47722038D01*
X207551652Y-47748005D01*
G37*
%TD.AperFunction*%
%TA.AperFunction,Conductor*%
G36*
X195608671Y-32531358D02*
G01*
X195619702Y-32541149D01*
X196125269Y-33046717D01*
X196125269Y-33046716D01*
X196125270Y-33046717D01*
X196125270Y-33046716D01*
X196133893Y-33043144D01*
X196143698Y-33024247D01*
X196144955Y-33019967D01*
X196147952Y-33015517D01*
X196148423Y-33014848D01*
X196164622Y-32992554D01*
X196165837Y-32990169D01*
X196170016Y-32984247D01*
X196171845Y-32982795D01*
X196181172Y-32970609D01*
X196190648Y-32960575D01*
X196250984Y-32925355D01*
X196320790Y-32928345D01*
X196374507Y-32964514D01*
X196380577Y-32971519D01*
X196392207Y-32988770D01*
X196392826Y-32988391D01*
X196395373Y-32992548D01*
X196434727Y-33046715D01*
X196434728Y-33046716D01*
X196940297Y-32541147D01*
X197001619Y-32507663D01*
X197071311Y-32512647D01*
X197127244Y-32554519D01*
X197135363Y-32566828D01*
X197149896Y-32592000D01*
X197149899Y-32592004D01*
X197149901Y-32592007D01*
X197242993Y-32685099D01*
X197268169Y-32699634D01*
X197316384Y-32750202D01*
X197329606Y-32818809D01*
X197303638Y-32883673D01*
X197293849Y-32894702D01*
X196788321Y-33400229D01*
X196788282Y-33400269D01*
X196788282Y-33400270D01*
X196842452Y-33439626D01*
X196842451Y-33439626D01*
X196844115Y-33440474D01*
X196851857Y-33446058D01*
X196854490Y-33449448D01*
X196864450Y-33456469D01*
X196873868Y-33465363D01*
X196909092Y-33525700D01*
X196906104Y-33595505D01*
X196869932Y-33649229D01*
X196862929Y-33655297D01*
X196845944Y-33666776D01*
X196846331Y-33667407D01*
X196842172Y-33669955D01*
X196670216Y-33794886D01*
X196519892Y-33945210D01*
X196519890Y-33945213D01*
X196394952Y-34117179D01*
X196394945Y-34117188D01*
X196394634Y-34117696D01*
X196393499Y-34119177D01*
X196392085Y-34121125D01*
X196392036Y-34121089D01*
X196379060Y-34138041D01*
X196369353Y-34148319D01*
X196309011Y-34183542D01*
X196239205Y-34180550D01*
X196185488Y-34144378D01*
X196179285Y-34137219D01*
X196167274Y-34120811D01*
X196165053Y-34117187D01*
X196165051Y-34117184D01*
X196165050Y-34117182D01*
X196040109Y-33945213D01*
X195889786Y-33794890D01*
X195717817Y-33669949D01*
X195717812Y-33669946D01*
X195716584Y-33669194D01*
X195696242Y-33653624D01*
X195686127Y-33644071D01*
X195650906Y-33583734D01*
X195653896Y-33513929D01*
X195690066Y-33460210D01*
X195697122Y-33454096D01*
X195713537Y-33442083D01*
X195717542Y-33439628D01*
X195717555Y-33439622D01*
X195739119Y-33423953D01*
X195765858Y-33414412D01*
X195771717Y-33400269D01*
X195266149Y-32894702D01*
X195232664Y-32833379D01*
X195237648Y-32763688D01*
X195279519Y-32707754D01*
X195291822Y-32699639D01*
X195317007Y-32685099D01*
X195410099Y-32592007D01*
X195424634Y-32566830D01*
X195475199Y-32518616D01*
X195543805Y-32505391D01*
X195608671Y-32531358D01*
G37*
%TD.AperFunction*%
%TA.AperFunction,Conductor*%
G36*
X198148671Y-32531358D02*
G01*
X198159702Y-32541149D01*
X198665269Y-33046717D01*
X198665269Y-33046716D01*
X198665270Y-33046717D01*
X198665270Y-33046716D01*
X198673893Y-33043144D01*
X198683698Y-33024247D01*
X198684955Y-33019967D01*
X198687952Y-33015517D01*
X198688423Y-33014848D01*
X198704622Y-32992554D01*
X198705837Y-32990169D01*
X198710016Y-32984247D01*
X198711845Y-32982795D01*
X198721172Y-32970609D01*
X198730648Y-32960575D01*
X198790984Y-32925355D01*
X198860790Y-32928345D01*
X198914507Y-32964514D01*
X198920577Y-32971519D01*
X198932207Y-32988770D01*
X198932826Y-32988391D01*
X198935373Y-32992548D01*
X198974727Y-33046715D01*
X198974728Y-33046716D01*
X199480297Y-32541147D01*
X199502235Y-32529167D01*
X199521889Y-32513712D01*
X199532374Y-32512710D01*
X199541619Y-32507663D01*
X199566557Y-32509446D01*
X199591443Y-32507070D01*
X199600803Y-32511895D01*
X199611311Y-32512647D01*
X199631325Y-32527629D01*
X199653546Y-32539085D01*
X199663449Y-32551678D01*
X199667244Y-32554519D01*
X199675363Y-32566828D01*
X199689896Y-32592000D01*
X199689899Y-32592004D01*
X199689901Y-32592007D01*
X199782993Y-32685099D01*
X199808169Y-32699634D01*
X199856384Y-32750202D01*
X199869606Y-32818809D01*
X199843638Y-32883673D01*
X199833849Y-32894702D01*
X199328321Y-33400229D01*
X199328282Y-33400269D01*
X199328282Y-33400270D01*
X199382452Y-33439626D01*
X199382451Y-33439626D01*
X199384115Y-33440474D01*
X199391857Y-33446058D01*
X199394490Y-33449448D01*
X199404450Y-33456469D01*
X199413868Y-33465363D01*
X199449092Y-33525700D01*
X199446104Y-33595505D01*
X199409932Y-33649229D01*
X199402929Y-33655297D01*
X199385944Y-33666776D01*
X199386331Y-33667407D01*
X199382172Y-33669955D01*
X199210216Y-33794886D01*
X199059892Y-33945210D01*
X199059890Y-33945213D01*
X198934952Y-34117179D01*
X198934945Y-34117188D01*
X198934634Y-34117696D01*
X198933499Y-34119177D01*
X198932085Y-34121125D01*
X198932036Y-34121089D01*
X198919060Y-34138041D01*
X198909353Y-34148319D01*
X198849011Y-34183542D01*
X198779205Y-34180550D01*
X198725488Y-34144378D01*
X198719285Y-34137219D01*
X198707274Y-34120811D01*
X198705053Y-34117187D01*
X198705051Y-34117184D01*
X198705050Y-34117182D01*
X198580109Y-33945213D01*
X198429786Y-33794890D01*
X198257817Y-33669949D01*
X198257812Y-33669946D01*
X198256584Y-33669194D01*
X198236242Y-33653624D01*
X198226127Y-33644071D01*
X198190906Y-33583734D01*
X198193896Y-33513929D01*
X198230066Y-33460210D01*
X198237122Y-33454096D01*
X198253537Y-33442083D01*
X198257542Y-33439628D01*
X198257555Y-33439622D01*
X198279119Y-33423953D01*
X198305858Y-33414412D01*
X198311717Y-33400269D01*
X197806149Y-32894702D01*
X197772664Y-32833379D01*
X197777648Y-32763688D01*
X197819519Y-32707754D01*
X197831822Y-32699639D01*
X197857007Y-32685099D01*
X197950099Y-32592007D01*
X197964634Y-32566830D01*
X198015199Y-32518616D01*
X198083805Y-32505391D01*
X198148671Y-32531358D01*
G37*
%TD.AperFunction*%
%TA.AperFunction,Conductor*%
G36*
X193068671Y-32531358D02*
G01*
X193079702Y-32541149D01*
X193585269Y-33046717D01*
X193585269Y-33046716D01*
X193585270Y-33046717D01*
X193585270Y-33046716D01*
X193593893Y-33043144D01*
X193603698Y-33024247D01*
X193604955Y-33019967D01*
X193607952Y-33015517D01*
X193608423Y-33014848D01*
X193624622Y-32992554D01*
X193625837Y-32990169D01*
X193630016Y-32984247D01*
X193631845Y-32982795D01*
X193641172Y-32970609D01*
X193650648Y-32960575D01*
X193710984Y-32925355D01*
X193780790Y-32928345D01*
X193834507Y-32964514D01*
X193840577Y-32971519D01*
X193852207Y-32988770D01*
X193852826Y-32988391D01*
X193855373Y-32992548D01*
X193894727Y-33046715D01*
X193894728Y-33046716D01*
X194400297Y-32541147D01*
X194461619Y-32507663D01*
X194531311Y-32512647D01*
X194587244Y-32554519D01*
X194595363Y-32566828D01*
X194609896Y-32592000D01*
X194609899Y-32592004D01*
X194609901Y-32592007D01*
X194702993Y-32685099D01*
X194728169Y-32699634D01*
X194776384Y-32750202D01*
X194789606Y-32818809D01*
X194763638Y-32883673D01*
X194753849Y-32894702D01*
X194248321Y-33400229D01*
X194248282Y-33400269D01*
X194248282Y-33400270D01*
X194302452Y-33439626D01*
X194302451Y-33439626D01*
X194304115Y-33440474D01*
X194311857Y-33446058D01*
X194314490Y-33449448D01*
X194324450Y-33456469D01*
X194333868Y-33465363D01*
X194369092Y-33525700D01*
X194366104Y-33595505D01*
X194329932Y-33649229D01*
X194322929Y-33655297D01*
X194305953Y-33666770D01*
X194306340Y-33667401D01*
X194302182Y-33669948D01*
X194130221Y-33794883D01*
X194029281Y-33895823D01*
X194029279Y-33895824D01*
X194029279Y-33895825D01*
X194001024Y-33916975D01*
X193988841Y-33923627D01*
X193920568Y-33938477D01*
X193855104Y-33914058D01*
X193855105Y-33914058D01*
X193853412Y-33912791D01*
X193851414Y-33911295D01*
X193809563Y-33855376D01*
X193801540Y-33833865D01*
X193763797Y-33732671D01*
X193763793Y-33732664D01*
X193677547Y-33617455D01*
X193677544Y-33617452D01*
X193677542Y-33617450D01*
X193607618Y-33565105D01*
X193562335Y-33531206D01*
X193562332Y-33531204D01*
X193562330Y-33531203D01*
X193562328Y-33531202D01*
X193427482Y-33480908D01*
X193427483Y-33480908D01*
X193367883Y-33474501D01*
X193367881Y-33474500D01*
X193367873Y-33474500D01*
X193367865Y-33474500D01*
X193366841Y-33474500D01*
X193358644Y-33472319D01*
X193356575Y-33471831D01*
X193340203Y-33469477D01*
X193314961Y-33462065D01*
X193262216Y-33430769D01*
X192726149Y-32894702D01*
X192692664Y-32833379D01*
X192697648Y-32763687D01*
X192739520Y-32707754D01*
X192751822Y-32699639D01*
X192777007Y-32685099D01*
X192870099Y-32592007D01*
X192884634Y-32566830D01*
X192935199Y-32518616D01*
X193003805Y-32505391D01*
X193068671Y-32531358D01*
G37*
%TD.AperFunction*%
%TA.AperFunction,Conductor*%
G36*
X215397779Y-30150579D02*
G01*
X215401764Y-30150721D01*
X215402208Y-30150737D01*
X215406619Y-30150973D01*
X215635741Y-30167359D01*
X215644501Y-30168301D01*
X215653284Y-30169564D01*
X215661965Y-30171131D01*
X215770935Y-30194836D01*
X215879903Y-30218541D01*
X215888466Y-30220726D01*
X215896935Y-30223212D01*
X215905331Y-30226007D01*
X216037876Y-30275444D01*
X216037880Y-30275445D01*
X216037893Y-30275450D01*
X216114338Y-30303963D01*
X216122476Y-30307334D01*
X216130533Y-30311015D01*
X216130540Y-30311018D01*
X216138430Y-30314968D01*
X216334176Y-30421852D01*
X216341773Y-30426359D01*
X216349229Y-30431150D01*
X216356506Y-30436203D01*
X216535027Y-30569842D01*
X216541919Y-30575396D01*
X216548608Y-30581192D01*
X216555087Y-30587224D01*
X216712774Y-30744911D01*
X216718806Y-30751390D01*
X216724602Y-30758079D01*
X216730148Y-30764961D01*
X216863812Y-30943515D01*
X216868855Y-30950779D01*
X216873642Y-30958230D01*
X216878149Y-30965828D01*
X216878634Y-30966716D01*
X216985024Y-31161557D01*
X216988983Y-31169464D01*
X216992656Y-31177506D01*
X216996044Y-31185687D01*
X217073988Y-31394659D01*
X217076787Y-31403068D01*
X217079273Y-31411537D01*
X217081459Y-31420104D01*
X217128864Y-31638018D01*
X217130436Y-31646728D01*
X217131695Y-31655484D01*
X217132641Y-31664286D01*
X217149025Y-31893370D01*
X217149261Y-31897764D01*
X217149420Y-31902190D01*
X217149500Y-31906642D01*
X217149500Y-71993356D01*
X217149420Y-71997808D01*
X217149261Y-72002234D01*
X217149025Y-72006628D01*
X217132641Y-72235712D01*
X217131695Y-72244514D01*
X217130436Y-72253270D01*
X217128864Y-72261980D01*
X217081459Y-72479894D01*
X217079273Y-72488461D01*
X217076787Y-72496930D01*
X217073988Y-72505339D01*
X216996044Y-72714311D01*
X216992658Y-72722486D01*
X216992656Y-72722492D01*
X216988983Y-72730534D01*
X216985022Y-72738446D01*
X216878151Y-72934167D01*
X216873639Y-72941773D01*
X216868848Y-72949229D01*
X216863795Y-72956506D01*
X216730156Y-73135027D01*
X216724602Y-73141919D01*
X216718806Y-73148608D01*
X216712774Y-73155087D01*
X216555087Y-73312774D01*
X216548608Y-73318806D01*
X216541919Y-73324602D01*
X216535027Y-73330156D01*
X216356506Y-73463795D01*
X216349229Y-73468848D01*
X216341773Y-73473639D01*
X216334167Y-73478151D01*
X216138446Y-73585022D01*
X216130534Y-73588983D01*
X216122492Y-73592656D01*
X216114311Y-73596044D01*
X215905339Y-73673988D01*
X215896930Y-73676787D01*
X215888461Y-73679273D01*
X215879894Y-73681459D01*
X215661980Y-73728864D01*
X215653270Y-73730436D01*
X215644514Y-73731695D01*
X215635712Y-73732641D01*
X215406628Y-73749025D01*
X215402235Y-73749261D01*
X215397810Y-73749420D01*
X215393357Y-73749500D01*
X144906643Y-73749500D01*
X144902191Y-73749420D01*
X144897765Y-73749261D01*
X144893371Y-73749025D01*
X144664286Y-73732641D01*
X144655484Y-73731695D01*
X144646728Y-73730436D01*
X144638018Y-73728864D01*
X144420104Y-73681459D01*
X144411537Y-73679273D01*
X144403068Y-73676787D01*
X144394659Y-73673988D01*
X144185687Y-73596044D01*
X144177506Y-73592656D01*
X144169464Y-73588983D01*
X144161552Y-73585022D01*
X143965831Y-73478151D01*
X143958225Y-73473639D01*
X143950769Y-73468848D01*
X143943492Y-73463795D01*
X143764971Y-73330156D01*
X143758079Y-73324602D01*
X143751390Y-73318806D01*
X143744911Y-73312774D01*
X143587224Y-73155087D01*
X143581192Y-73148608D01*
X143575396Y-73141919D01*
X143569842Y-73135027D01*
X143436203Y-72956506D01*
X143431150Y-72949229D01*
X143426359Y-72941773D01*
X143421847Y-72934167D01*
X143314968Y-72738430D01*
X143311018Y-72730540D01*
X143307339Y-72722486D01*
X143303963Y-72714338D01*
X143275450Y-72637893D01*
X143275448Y-72637888D01*
X143275448Y-72637886D01*
X143226007Y-72505331D01*
X143223211Y-72496930D01*
X143220726Y-72488466D01*
X143218541Y-72479903D01*
X143171133Y-72261973D01*
X143169562Y-72253267D01*
X143168304Y-72244520D01*
X143168303Y-72244514D01*
X143168302Y-72244506D01*
X143167359Y-72235733D01*
X143160189Y-72135480D01*
X143150973Y-72006616D01*
X143150737Y-72002206D01*
X143150579Y-71997777D01*
X143150500Y-71993356D01*
X143150500Y-60752139D01*
X152119500Y-60752139D01*
X152119500Y-62547876D01*
X152119659Y-62549806D01*
X152119885Y-62551454D01*
X152125907Y-62607482D01*
X152152670Y-62679235D01*
X152176202Y-62742328D01*
X152176206Y-62742335D01*
X152219086Y-62799616D01*
X152262450Y-62857542D01*
X152262452Y-62857544D01*
X152262455Y-62857547D01*
X152377664Y-62943793D01*
X152377671Y-62943797D01*
X152512517Y-62994091D01*
X152512516Y-62994091D01*
X152519444Y-62994835D01*
X152572127Y-63000500D01*
X154367872Y-63000499D01*
X154427483Y-62994091D01*
X154562331Y-62943796D01*
X154677546Y-62857546D01*
X154763796Y-62742331D01*
X154806580Y-62627618D01*
X154823490Y-62596649D01*
X154831811Y-62585533D01*
X154887741Y-62543663D01*
X154957424Y-62538675D01*
X154961909Y-62539650D01*
X155023234Y-62573130D01*
X155130216Y-62680112D01*
X155302169Y-62805042D01*
X155302200Y-62805060D01*
X155302442Y-62805182D01*
X155491588Y-62901557D01*
X155693757Y-62967246D01*
X155903713Y-63000500D01*
X155903714Y-63000500D01*
X156116286Y-63000500D01*
X156116287Y-63000500D01*
X156326243Y-62967246D01*
X156528412Y-62901557D01*
X156717816Y-62805051D01*
X156804138Y-62742335D01*
X156889786Y-62680109D01*
X156889788Y-62680106D01*
X156889792Y-62680104D01*
X156889799Y-62680096D01*
X156889849Y-62680061D01*
X156890605Y-62679290D01*
X157040104Y-62529792D01*
X157040106Y-62529788D01*
X157040109Y-62529786D01*
X157125890Y-62411717D01*
X157165051Y-62357816D01*
X157166342Y-62355281D01*
X157170750Y-62349133D01*
X157172638Y-62347657D01*
X157181370Y-62336249D01*
X157186693Y-62330612D01*
X157190918Y-62326137D01*
X157251253Y-62290909D01*
X157321059Y-62293892D01*
X157374789Y-62330067D01*
X157380890Y-62337108D01*
X157392900Y-62353514D01*
X157395367Y-62357540D01*
X157434727Y-62411715D01*
X157434728Y-62411716D01*
X157940297Y-61906147D01*
X158001619Y-61872663D01*
X158071311Y-61877647D01*
X158127244Y-61919519D01*
X158135363Y-61931828D01*
X158149896Y-61957000D01*
X158149899Y-61957004D01*
X158149901Y-61957007D01*
X158242993Y-62050099D01*
X158268169Y-62064634D01*
X158316384Y-62115202D01*
X158329606Y-62183809D01*
X158303638Y-62248673D01*
X158293849Y-62259702D01*
X157788282Y-62765268D01*
X157788282Y-62765269D01*
X157788282Y-62765270D01*
X157842449Y-62804624D01*
X158031782Y-62901095D01*
X158031784Y-62901096D01*
X158233866Y-62966756D01*
X158233867Y-62966756D01*
X158233870Y-62966757D01*
X158443754Y-63000000D01*
X158656245Y-63000000D01*
X158656246Y-63000000D01*
X158769050Y-62982132D01*
X158856487Y-62968284D01*
X158856493Y-62968283D01*
X158866127Y-62966757D01*
X158866130Y-62966757D01*
X159068217Y-62901095D01*
X159257554Y-62804622D01*
X159259976Y-62802862D01*
X159279121Y-62788953D01*
X159305858Y-62779412D01*
X159311717Y-62765269D01*
X158806149Y-62259702D01*
X158772664Y-62198379D01*
X158777648Y-62128688D01*
X158819519Y-62072754D01*
X158831822Y-62064639D01*
X158857007Y-62050099D01*
X158950099Y-61957007D01*
X158964634Y-61931830D01*
X159015199Y-61883616D01*
X159083805Y-61870391D01*
X159148671Y-61896358D01*
X159159702Y-61906149D01*
X159665269Y-62411717D01*
X159665269Y-62411716D01*
X159665270Y-62411717D01*
X159665270Y-62411716D01*
X159673859Y-62408158D01*
X159683709Y-62389208D01*
X159684955Y-62384968D01*
X159688055Y-62380372D01*
X159688478Y-62379774D01*
X159704622Y-62357555D01*
X159705696Y-62355445D01*
X159709679Y-62349819D01*
X159711527Y-62348356D01*
X159720752Y-62336305D01*
X159723054Y-62333868D01*
X159723469Y-62334260D01*
X159730836Y-62324897D01*
X159736094Y-62320062D01*
X159736106Y-62320048D01*
X159736986Y-62319240D01*
X159749119Y-62313259D01*
X159758407Y-62303425D01*
X159779846Y-62298115D01*
X159799657Y-62288351D01*
X159814563Y-62289516D01*
X159826227Y-62286628D01*
X159860915Y-62293141D01*
X159862984Y-62293846D01*
X159920092Y-62334101D01*
X159933471Y-62354917D01*
X159934816Y-62357555D01*
X159934949Y-62357816D01*
X159940688Y-62365715D01*
X159975291Y-62413342D01*
X159976324Y-62415367D01*
X159977260Y-62416131D01*
X159992864Y-62447787D01*
X159997165Y-62460978D01*
X159997172Y-62460999D01*
X159997240Y-62461206D01*
X160000124Y-62527738D01*
X160000072Y-62527959D01*
X160000070Y-62527969D01*
X159999651Y-62529771D01*
X159998613Y-62534234D01*
X159965518Y-62593822D01*
X157305889Y-65253450D01*
X157305888Y-65253451D01*
X157229224Y-65368188D01*
X157229218Y-65368199D01*
X157176421Y-65495665D01*
X157176413Y-65495700D01*
X157155650Y-65600087D01*
X157155650Y-65600090D01*
X157149500Y-65631004D01*
X157149500Y-65862471D01*
X157147117Y-65886666D01*
X157142443Y-65910160D01*
X157135387Y-65933417D01*
X157080264Y-66066496D01*
X157080257Y-66066527D01*
X157049500Y-66221150D01*
X157049500Y-66221153D01*
X157049500Y-66378846D01*
X157049500Y-66378848D01*
X157049499Y-66378848D01*
X157080257Y-66533471D01*
X157080264Y-66533502D01*
X157140598Y-66679165D01*
X157140603Y-66679174D01*
X157140613Y-66679191D01*
X157228211Y-66810290D01*
X157228212Y-66810291D01*
X157228217Y-66810297D01*
X157339701Y-66921781D01*
X157339707Y-66921786D01*
X157339711Y-66921789D01*
X157470814Y-67009390D01*
X157470827Y-67009397D01*
X157616498Y-67069735D01*
X157616503Y-67069737D01*
X157722670Y-67090855D01*
X157763532Y-67098983D01*
X157766254Y-67099704D01*
X157771154Y-67100499D01*
X157771156Y-67100500D01*
X157771158Y-67100500D01*
X157781021Y-67102101D01*
X157780930Y-67102659D01*
X157800847Y-67105523D01*
X157815845Y-67109927D01*
X157874619Y-67147698D01*
X157874621Y-67147701D01*
X157874623Y-67147702D01*
X157874623Y-67147703D01*
X157883536Y-67157988D01*
X157904387Y-67191741D01*
X157940599Y-67279165D01*
X157940604Y-67279176D01*
X157940619Y-67279201D01*
X158010169Y-67383290D01*
X158025158Y-67414359D01*
X158025303Y-67414813D01*
X158028595Y-67425326D01*
X158028878Y-67425976D01*
X158030021Y-67429543D01*
X158030802Y-67461623D01*
X158032761Y-67488802D01*
X158033939Y-67488992D01*
X158033321Y-67492823D01*
X158033086Y-67493314D01*
X158033111Y-67493655D01*
X158033109Y-67493662D01*
X158032701Y-67495542D01*
X158032086Y-67495408D01*
X158031647Y-67496327D01*
X158031722Y-67499392D01*
X158024587Y-67511111D01*
X158003212Y-67555872D01*
X157998586Y-67560755D01*
X157955892Y-67603449D01*
X157955884Y-67603459D01*
X157947846Y-67615488D01*
X157939349Y-67626757D01*
X157933355Y-67633829D01*
X157933350Y-67633833D01*
X157933268Y-67633932D01*
X157932590Y-67634733D01*
X157932323Y-67634908D01*
X157925674Y-67642245D01*
X157878206Y-67689716D01*
X157878204Y-67689718D01*
X157790613Y-67820807D01*
X157790603Y-67820824D01*
X157790598Y-67820833D01*
X157730264Y-67966496D01*
X157730257Y-67966527D01*
X157699500Y-68121150D01*
X157699500Y-68121153D01*
X157699500Y-68278846D01*
X157699500Y-68278848D01*
X157699499Y-68278848D01*
X157730257Y-68433471D01*
X157730264Y-68433502D01*
X157790598Y-68579165D01*
X157790603Y-68579174D01*
X157790613Y-68579191D01*
X157878211Y-68710290D01*
X157878212Y-68710291D01*
X157878217Y-68710297D01*
X157989701Y-68821781D01*
X157989707Y-68821786D01*
X157989711Y-68821789D01*
X158120814Y-68909390D01*
X158120827Y-68909397D01*
X158246617Y-68961500D01*
X158266503Y-68969737D01*
X158415575Y-68999389D01*
X158417597Y-68999863D01*
X158417744Y-68999946D01*
X158421155Y-69000500D01*
X158578844Y-69000500D01*
X158582964Y-69000500D01*
X158590814Y-68998118D01*
X158733497Y-68969737D01*
X158879179Y-68909394D01*
X159010289Y-68821789D01*
X159121789Y-68710289D01*
X159209394Y-68579179D01*
X159269737Y-68433497D01*
X159269743Y-68433471D01*
X159289414Y-68334576D01*
X159289414Y-68334575D01*
X159297856Y-68292136D01*
X159304487Y-68269915D01*
X159304734Y-68269301D01*
X159309669Y-68257076D01*
X159309672Y-68257059D01*
X159311217Y-68252052D01*
X159312872Y-68252562D01*
X159342650Y-68198005D01*
X161508714Y-66031940D01*
X161536962Y-66010797D01*
X161550682Y-66003306D01*
X161618951Y-65988456D01*
X161626278Y-65988980D01*
X161686322Y-66009562D01*
X161700959Y-66019342D01*
X161790789Y-66079365D01*
X161790802Y-66079372D01*
X161936473Y-66139710D01*
X161936478Y-66139712D01*
X162091128Y-66170474D01*
X162091131Y-66170475D01*
X162091133Y-66170475D01*
X162248819Y-66170475D01*
X162248820Y-66170474D01*
X162403472Y-66139712D01*
X162549154Y-66079369D01*
X162680264Y-65991764D01*
X162791764Y-65880264D01*
X162831746Y-65820425D01*
X162855326Y-65794175D01*
X162871428Y-65780719D01*
X162925669Y-65754473D01*
X162932250Y-65753103D01*
X162957522Y-65750500D01*
X169172938Y-65750500D01*
X169207870Y-65755521D01*
X169233114Y-65762934D01*
X169285860Y-65794230D01*
X170337796Y-66846166D01*
X170358945Y-66874417D01*
X170365597Y-66886599D01*
X170380449Y-66954872D01*
X170356033Y-67020337D01*
X170356031Y-67020339D01*
X170351844Y-67025932D01*
X170308874Y-67062104D01*
X170252443Y-67090857D01*
X170198282Y-67130206D01*
X170198281Y-67130207D01*
X170703850Y-67635776D01*
X170737335Y-67697099D01*
X170732351Y-67766791D01*
X170690479Y-67822724D01*
X170678173Y-67830842D01*
X170652996Y-67845378D01*
X170652990Y-67845383D01*
X170559903Y-67938470D01*
X170559898Y-67938476D01*
X170545362Y-67963653D01*
X170494793Y-68011867D01*
X170426185Y-68025087D01*
X170361322Y-67999117D01*
X170350296Y-67989330D01*
X169844728Y-67483762D01*
X169844727Y-67483762D01*
X169805380Y-67537918D01*
X169708903Y-67727264D01*
X169643242Y-67929345D01*
X169641798Y-67938470D01*
X169610000Y-68139233D01*
X169610000Y-68351726D01*
X169635410Y-68512158D01*
X169641715Y-68551965D01*
X169641716Y-68551973D01*
X169643242Y-68561613D01*
X169691553Y-68710297D01*
X169708904Y-68763697D01*
X169762581Y-68869042D01*
X169805374Y-68953028D01*
X169805375Y-68953030D01*
X169840674Y-69001617D01*
X169844728Y-69007196D01*
X170350297Y-68501625D01*
X170411618Y-68468142D01*
X170481309Y-68473126D01*
X170537243Y-68514997D01*
X170545362Y-68527306D01*
X170559898Y-68552483D01*
X170559900Y-68552485D01*
X170559901Y-68552487D01*
X170652993Y-68645579D01*
X170678167Y-68660113D01*
X170726383Y-68710678D01*
X170739607Y-68779285D01*
X170713640Y-68844150D01*
X170703849Y-68855181D01*
X170172977Y-69386053D01*
X170150387Y-69402964D01*
X170144726Y-69407202D01*
X170121638Y-69419810D01*
X170064922Y-69434287D01*
X170064948Y-69434852D01*
X170062225Y-69434975D01*
X170062208Y-69434980D01*
X170062134Y-69434980D01*
X170062123Y-69434981D01*
X170062120Y-69434981D01*
X170062099Y-69434983D01*
X170002517Y-69441387D01*
X169912821Y-69474842D01*
X169881651Y-69486468D01*
X169867666Y-69491684D01*
X169867665Y-69491685D01*
X169752456Y-69577930D01*
X169752450Y-69577936D01*
X169666205Y-69693145D01*
X169666203Y-69693148D01*
X169615907Y-69827996D01*
X169609501Y-69887596D01*
X169609500Y-69887619D01*
X169609500Y-70157670D01*
X169609499Y-70157676D01*
X169609500Y-70157679D01*
X169604475Y-70192614D01*
X169600070Y-70207612D01*
X169562327Y-70266355D01*
X169562292Y-70266385D01*
X169562291Y-70266387D01*
X169562289Y-70266387D01*
X169560958Y-70267542D01*
X169506097Y-70295018D01*
X169498539Y-70296663D01*
X169472168Y-70299500D01*
X165608519Y-70299500D01*
X165608518Y-70299499D01*
X165608518Y-70299500D01*
X165573583Y-70294477D01*
X165548341Y-70287065D01*
X165495596Y-70255769D01*
X164724767Y-69484940D01*
X164709352Y-69466158D01*
X164696030Y-69446220D01*
X164684579Y-69424797D01*
X164644963Y-69329152D01*
X164629458Y-69291718D01*
X164629451Y-69291705D01*
X164541850Y-69160602D01*
X164541847Y-69160598D01*
X164541842Y-69160592D01*
X164430358Y-69049108D01*
X164430352Y-69049103D01*
X164430351Y-69049102D01*
X164362288Y-69003624D01*
X164299246Y-68961500D01*
X164299233Y-68961493D01*
X164299226Y-68961489D01*
X164153563Y-68901155D01*
X164153532Y-68901148D01*
X163998908Y-68870391D01*
X163998906Y-68870391D01*
X163998903Y-68870391D01*
X163841219Y-68870391D01*
X163841216Y-68870391D01*
X163841211Y-68870391D01*
X163705738Y-68897338D01*
X163705732Y-68897339D01*
X163686572Y-68901151D01*
X163686567Y-68901153D01*
X163686565Y-68901153D01*
X163686564Y-68901154D01*
X163659305Y-68912444D01*
X163659295Y-68912448D01*
X163622284Y-68927779D01*
X163588083Y-68936508D01*
X163564024Y-68939094D01*
X163552486Y-68937775D01*
X163544686Y-68939655D01*
X163510040Y-68932923D01*
X163503352Y-68930597D01*
X163496632Y-68928039D01*
X163354206Y-68869045D01*
X163354175Y-68869038D01*
X163199551Y-68838281D01*
X163199549Y-68838281D01*
X163199546Y-68838281D01*
X163041862Y-68838281D01*
X163041859Y-68838281D01*
X163041857Y-68838281D01*
X162887231Y-68869038D01*
X162887200Y-68869045D01*
X162741537Y-68929379D01*
X162741528Y-68929384D01*
X162741511Y-68929394D01*
X162610412Y-69016992D01*
X162610411Y-69016993D01*
X162610405Y-69016998D01*
X162498921Y-69128482D01*
X162498916Y-69128488D01*
X162498915Y-69128489D01*
X162411317Y-69259588D01*
X162411307Y-69259605D01*
X162411302Y-69259614D01*
X162350968Y-69405277D01*
X162350961Y-69405308D01*
X162320204Y-69559931D01*
X162320204Y-69717631D01*
X162348504Y-69859903D01*
X162348565Y-69866993D01*
X162350184Y-69870908D01*
X162350882Y-69882986D01*
X162351039Y-69900551D01*
X162347960Y-69911394D01*
X162346094Y-69921704D01*
X162343645Y-69926588D01*
X162331954Y-69967763D01*
X162315912Y-69981916D01*
X162314785Y-69984166D01*
X162310453Y-69986732D01*
X162279562Y-70013988D01*
X162259203Y-70017101D01*
X162254676Y-70019784D01*
X162244156Y-70019402D01*
X162210495Y-70024550D01*
X162192267Y-70017520D01*
X162184852Y-70017251D01*
X162176479Y-70011430D01*
X162156790Y-70003837D01*
X162153823Y-70001797D01*
X162136396Y-69987300D01*
X161451143Y-69302047D01*
X161435725Y-69283261D01*
X161422409Y-69263331D01*
X161410959Y-69241912D01*
X161355834Y-69108825D01*
X161355827Y-69108812D01*
X161268226Y-68977709D01*
X161268223Y-68977705D01*
X161268218Y-68977699D01*
X161156734Y-68866215D01*
X161156728Y-68866210D01*
X161156727Y-68866209D01*
X161025628Y-68778611D01*
X161025627Y-68778610D01*
X161025622Y-68778607D01*
X161025609Y-68778600D01*
X161025602Y-68778596D01*
X160879939Y-68718262D01*
X160879908Y-68718255D01*
X160725284Y-68687498D01*
X160725282Y-68687498D01*
X160725279Y-68687498D01*
X160567595Y-68687498D01*
X160567592Y-68687498D01*
X160567590Y-68687498D01*
X160412964Y-68718255D01*
X160412933Y-68718262D01*
X160267270Y-68778596D01*
X160267261Y-68778601D01*
X160267244Y-68778611D01*
X160136145Y-68866209D01*
X160136144Y-68866210D01*
X160136138Y-68866215D01*
X160024654Y-68977699D01*
X160024649Y-68977705D01*
X160024648Y-68977706D01*
X159937050Y-69108805D01*
X159937040Y-69108822D01*
X159937035Y-69108831D01*
X159876701Y-69254494D01*
X159876694Y-69254525D01*
X159845937Y-69409148D01*
X159845937Y-69409151D01*
X159845937Y-69566844D01*
X159845937Y-69566846D01*
X159845936Y-69566846D01*
X159876694Y-69721469D01*
X159876701Y-69721500D01*
X159937035Y-69867163D01*
X159937040Y-69867172D01*
X159937050Y-69867189D01*
X160024648Y-69998288D01*
X160024649Y-69998289D01*
X160024654Y-69998295D01*
X160136138Y-70109779D01*
X160136144Y-70109784D01*
X160136148Y-70109787D01*
X160267251Y-70197388D01*
X160267264Y-70197395D01*
X160400351Y-70252520D01*
X160421770Y-70263970D01*
X160441700Y-70277286D01*
X160460485Y-70292703D01*
X163411892Y-73244111D01*
X163411893Y-73244112D01*
X163526631Y-73320777D01*
X163654106Y-73373578D01*
X163654111Y-73373580D01*
X163654115Y-73373580D01*
X163654116Y-73373581D01*
X163654387Y-73373635D01*
X163654410Y-73373640D01*
X163789439Y-73400500D01*
X177234476Y-73400500D01*
X177234477Y-73400500D01*
X177243427Y-73398719D01*
X177325520Y-73382389D01*
X177369808Y-73373580D01*
X177433549Y-73347177D01*
X177493251Y-73322448D01*
X177496725Y-73321152D01*
X177497284Y-73320777D01*
X177497287Y-73320777D01*
X177497288Y-73320776D01*
X177497291Y-73320775D01*
X177612023Y-73244114D01*
X178685441Y-72170693D01*
X178713688Y-72149550D01*
X178741058Y-72134605D01*
X178781081Y-72120965D01*
X178833932Y-72112594D01*
X178896238Y-72102727D01*
X178896238Y-72102726D01*
X178896239Y-72102726D01*
X178896243Y-72102726D01*
X178896246Y-72102724D01*
X178905878Y-72101199D01*
X178905884Y-72101199D01*
X178905887Y-72101198D01*
X178918632Y-72099179D01*
X178929494Y-72091921D01*
X179098412Y-72037037D01*
X179287816Y-71940531D01*
X179342572Y-71900749D01*
X179342574Y-71900748D01*
X179365158Y-71884338D01*
X179459786Y-71815589D01*
X179459788Y-71815586D01*
X179459792Y-71815584D01*
X179459796Y-71815579D01*
X179459848Y-71815542D01*
X179460592Y-71814783D01*
X179610104Y-71665272D01*
X179610106Y-71665268D01*
X179610109Y-71665266D01*
X179695890Y-71547197D01*
X179735051Y-71493296D01*
X179736342Y-71490761D01*
X179740750Y-71484613D01*
X179742638Y-71483137D01*
X179751370Y-71471729D01*
X179753130Y-71469864D01*
X179760918Y-71461617D01*
X179821253Y-71426389D01*
X179891059Y-71429372D01*
X179944789Y-71465547D01*
X179950890Y-71472588D01*
X179962900Y-71488994D01*
X179965367Y-71493020D01*
X180004727Y-71547195D01*
X180004728Y-71547196D01*
X180510297Y-71041627D01*
X180571619Y-71008143D01*
X180641311Y-71013127D01*
X180697244Y-71054999D01*
X180705363Y-71067308D01*
X180719896Y-71092480D01*
X180719899Y-71092484D01*
X180719901Y-71092487D01*
X180812993Y-71185579D01*
X180838169Y-71200114D01*
X180886384Y-71250682D01*
X180899606Y-71319289D01*
X180873638Y-71384153D01*
X180863849Y-71395182D01*
X180358282Y-71900748D01*
X180358282Y-71900749D01*
X180358282Y-71900750D01*
X180412449Y-71940104D01*
X180601782Y-72036575D01*
X180601784Y-72036576D01*
X180803866Y-72102236D01*
X180803867Y-72102236D01*
X180803870Y-72102237D01*
X181013754Y-72135480D01*
X181226245Y-72135480D01*
X181226246Y-72135480D01*
X181370738Y-72112594D01*
X181426487Y-72103764D01*
X181426493Y-72103763D01*
X181436127Y-72102237D01*
X181436130Y-72102237D01*
X181638217Y-72036575D01*
X181827554Y-71940102D01*
X181829976Y-71938342D01*
X181849121Y-71924433D01*
X181875858Y-71914892D01*
X181881717Y-71900749D01*
X181376149Y-71395182D01*
X181342664Y-71333859D01*
X181347648Y-71264168D01*
X181389519Y-71208234D01*
X181401822Y-71200119D01*
X181427007Y-71185579D01*
X181520099Y-71092487D01*
X181534634Y-71067310D01*
X181585199Y-71019096D01*
X181653805Y-71005871D01*
X181718671Y-71031838D01*
X181729702Y-71041629D01*
X182235269Y-71547197D01*
X182235269Y-71547196D01*
X182235270Y-71547197D01*
X182235270Y-71547196D01*
X182248738Y-71541617D01*
X182254955Y-71520447D01*
X182258954Y-71514598D01*
X182274432Y-71493296D01*
X182274622Y-71493034D01*
X182371095Y-71303697D01*
X182436757Y-71101610D01*
X182436757Y-71101607D01*
X182470000Y-70891726D01*
X182470000Y-70679233D01*
X182456260Y-70592487D01*
X182438284Y-70478991D01*
X182438283Y-70478985D01*
X182438283Y-70478986D01*
X182436756Y-70469345D01*
X182409473Y-70385378D01*
X182371095Y-70267262D01*
X182274624Y-70077929D01*
X182235270Y-70023762D01*
X182235269Y-70023762D01*
X182235268Y-70023762D01*
X181729702Y-70529329D01*
X181668379Y-70562814D01*
X181598687Y-70557830D01*
X181542754Y-70515958D01*
X181534634Y-70503649D01*
X181520099Y-70478473D01*
X181427007Y-70385381D01*
X181427004Y-70385379D01*
X181427000Y-70385376D01*
X181401828Y-70370843D01*
X181353613Y-70320276D01*
X181340391Y-70251669D01*
X181366359Y-70186804D01*
X181376135Y-70175790D01*
X181881716Y-69670208D01*
X181881715Y-69670207D01*
X181827552Y-69630856D01*
X181825944Y-69629871D01*
X181805602Y-69614301D01*
X181795577Y-69604832D01*
X181760355Y-69544495D01*
X181763345Y-69474689D01*
X181799508Y-69420976D01*
X181806526Y-69414895D01*
X181823787Y-69403293D01*
X181823394Y-69402652D01*
X181827546Y-69400106D01*
X181827545Y-69400106D01*
X181827554Y-69400102D01*
X181849121Y-69384431D01*
X181875859Y-69374891D01*
X181881717Y-69360749D01*
X181376149Y-68855182D01*
X181342664Y-68793859D01*
X181347648Y-68724168D01*
X181389519Y-68668234D01*
X181401822Y-68660119D01*
X181427007Y-68645579D01*
X181520099Y-68552487D01*
X181534634Y-68527310D01*
X181585199Y-68479096D01*
X181653805Y-68465871D01*
X181718671Y-68491838D01*
X181729702Y-68501629D01*
X182235269Y-69007197D01*
X182235269Y-69007196D01*
X182235270Y-69007197D01*
X182235270Y-69007196D01*
X182248738Y-69001617D01*
X182254955Y-68980447D01*
X182258954Y-68974598D01*
X182274621Y-68953035D01*
X182276743Y-68948871D01*
X182371095Y-68763697D01*
X182436757Y-68561610D01*
X182436757Y-68561607D01*
X182470000Y-68351726D01*
X182470000Y-68139233D01*
X182456260Y-68052487D01*
X182438284Y-67938991D01*
X182438283Y-67938985D01*
X182438283Y-67938986D01*
X182436756Y-67929345D01*
X182409473Y-67845378D01*
X182371095Y-67727262D01*
X182274624Y-67537929D01*
X182235270Y-67483762D01*
X182235269Y-67483762D01*
X182235268Y-67483762D01*
X181729702Y-67989329D01*
X181668379Y-68022814D01*
X181598687Y-68017830D01*
X181542754Y-67975958D01*
X181534634Y-67963649D01*
X181520099Y-67938473D01*
X181427007Y-67845381D01*
X181427004Y-67845379D01*
X181427000Y-67845376D01*
X181401828Y-67830843D01*
X181353613Y-67780276D01*
X181340391Y-67711669D01*
X181366359Y-67646804D01*
X181376135Y-67635790D01*
X181881716Y-67130208D01*
X181881713Y-67130206D01*
X181843029Y-67102101D01*
X181827550Y-67090855D01*
X181700133Y-67025932D01*
X181638214Y-66994382D01*
X181436130Y-66928722D01*
X181226251Y-66895480D01*
X181226246Y-66895480D01*
X181013754Y-66895480D01*
X181013749Y-66895480D01*
X180813513Y-66927195D01*
X180813505Y-66927195D01*
X180813506Y-66927196D01*
X180803865Y-66928722D01*
X180601784Y-66994383D01*
X180412438Y-67090860D01*
X180358282Y-67130207D01*
X180358282Y-67130208D01*
X180863850Y-67635776D01*
X180897335Y-67697099D01*
X180892351Y-67766791D01*
X180850479Y-67822724D01*
X180838173Y-67830842D01*
X180812996Y-67845378D01*
X180812990Y-67845383D01*
X180719903Y-67938470D01*
X180719898Y-67938476D01*
X180705362Y-67963653D01*
X180654793Y-68011867D01*
X180586185Y-68025087D01*
X180521322Y-67999117D01*
X180510296Y-67989330D01*
X180004728Y-67483762D01*
X180004727Y-67483762D01*
X179965376Y-67537923D01*
X179964386Y-67539540D01*
X179948810Y-67559888D01*
X179939350Y-67569904D01*
X179879007Y-67605126D01*
X179809201Y-67602132D01*
X179755492Y-67565966D01*
X179749415Y-67558952D01*
X179737814Y-67541696D01*
X179737174Y-67542089D01*
X179734630Y-67537938D01*
X179734623Y-67537929D01*
X179695270Y-67483762D01*
X179695268Y-67483762D01*
X179189702Y-67989329D01*
X179128379Y-68022814D01*
X179058687Y-68017830D01*
X179002754Y-67975958D01*
X178994634Y-67963649D01*
X178980099Y-67938473D01*
X178887007Y-67845381D01*
X178887004Y-67845379D01*
X178887000Y-67845376D01*
X178861828Y-67830843D01*
X178813613Y-67780276D01*
X178800391Y-67711669D01*
X178826359Y-67646804D01*
X178836135Y-67635790D01*
X179341716Y-67130208D01*
X179341713Y-67130206D01*
X179303029Y-67102101D01*
X179287550Y-67090855D01*
X179160133Y-67025932D01*
X179098214Y-66994382D01*
X178896130Y-66928722D01*
X178686251Y-66895480D01*
X178686246Y-66895480D01*
X178473754Y-66895480D01*
X178473749Y-66895480D01*
X178273513Y-66927195D01*
X178273505Y-66927195D01*
X178273506Y-66927196D01*
X178263865Y-66928722D01*
X178061784Y-66994383D01*
X177872438Y-67090860D01*
X177818282Y-67130207D01*
X177818282Y-67130208D01*
X178323850Y-67635776D01*
X178357335Y-67697099D01*
X178352351Y-67766791D01*
X178310479Y-67822724D01*
X178298173Y-67830842D01*
X178272996Y-67845378D01*
X178272990Y-67845383D01*
X178179903Y-67938470D01*
X178179898Y-67938476D01*
X178165362Y-67963653D01*
X178114793Y-68011867D01*
X178046185Y-68025087D01*
X177981322Y-67999117D01*
X177970296Y-67989330D01*
X177464728Y-67483762D01*
X177464727Y-67483762D01*
X177425376Y-67537923D01*
X177424386Y-67539540D01*
X177408810Y-67559888D01*
X177399350Y-67569904D01*
X177339007Y-67605126D01*
X177269201Y-67602132D01*
X177215492Y-67565966D01*
X177209415Y-67558952D01*
X177197814Y-67541696D01*
X177197174Y-67542089D01*
X177194630Y-67537938D01*
X177194623Y-67537929D01*
X177155270Y-67483762D01*
X177155268Y-67483762D01*
X176649702Y-67989329D01*
X176588379Y-68022814D01*
X176518687Y-68017830D01*
X176462754Y-67975958D01*
X176454634Y-67963649D01*
X176440099Y-67938473D01*
X176347007Y-67845381D01*
X176347004Y-67845379D01*
X176347000Y-67845376D01*
X176321828Y-67830843D01*
X176273613Y-67780276D01*
X176260391Y-67711669D01*
X176286359Y-67646804D01*
X176296135Y-67635790D01*
X176801716Y-67130208D01*
X176801713Y-67130206D01*
X176763029Y-67102101D01*
X176747550Y-67090855D01*
X176620133Y-67025932D01*
X176558214Y-66994382D01*
X176356130Y-66928722D01*
X176146251Y-66895480D01*
X176146246Y-66895480D01*
X175933754Y-66895480D01*
X175933749Y-66895480D01*
X175733513Y-66927195D01*
X175733505Y-66927195D01*
X175733506Y-66927196D01*
X175723865Y-66928722D01*
X175521784Y-66994383D01*
X175332438Y-67090860D01*
X175278282Y-67130207D01*
X175278282Y-67130208D01*
X175783850Y-67635776D01*
X175817335Y-67697099D01*
X175812351Y-67766791D01*
X175770479Y-67822724D01*
X175758173Y-67830842D01*
X175732996Y-67845378D01*
X175732990Y-67845383D01*
X175639903Y-67938470D01*
X175639898Y-67938476D01*
X175625362Y-67963653D01*
X175574793Y-68011867D01*
X175506185Y-68025087D01*
X175441322Y-67999117D01*
X175430296Y-67989330D01*
X174924728Y-67483762D01*
X174924727Y-67483762D01*
X174885376Y-67537923D01*
X174884386Y-67539540D01*
X174868810Y-67559888D01*
X174859350Y-67569904D01*
X174799007Y-67605126D01*
X174729201Y-67602132D01*
X174675492Y-67565966D01*
X174669415Y-67558952D01*
X174657814Y-67541696D01*
X174657174Y-67542089D01*
X174654630Y-67537938D01*
X174654623Y-67537929D01*
X174615270Y-67483762D01*
X174615268Y-67483762D01*
X174109702Y-67989329D01*
X174048379Y-68022814D01*
X173978687Y-68017830D01*
X173922754Y-67975958D01*
X173914634Y-67963649D01*
X173900099Y-67938473D01*
X173807007Y-67845381D01*
X173807005Y-67845380D01*
X173807003Y-67845378D01*
X173781826Y-67830842D01*
X173733611Y-67780274D01*
X173720390Y-67711666D01*
X173746359Y-67646802D01*
X173756137Y-67635785D01*
X174261716Y-67130208D01*
X174261713Y-67130206D01*
X174223029Y-67102101D01*
X174207550Y-67090855D01*
X174080133Y-67025932D01*
X174018214Y-66994382D01*
X173816130Y-66928722D01*
X173606251Y-66895480D01*
X173606246Y-66895480D01*
X173393754Y-66895480D01*
X173393749Y-66895480D01*
X173193513Y-66927195D01*
X173193505Y-66927195D01*
X173193506Y-66927196D01*
X173183865Y-66928722D01*
X172981784Y-66994383D01*
X172792440Y-67090859D01*
X172760116Y-67114344D01*
X172760115Y-67114345D01*
X172728899Y-67130815D01*
X172714178Y-67136067D01*
X172644428Y-67140055D01*
X172644423Y-67140053D01*
X172644422Y-67140054D01*
X172644420Y-67140053D01*
X172638007Y-67138562D01*
X172578409Y-67105465D01*
X169978833Y-64505888D01*
X169978832Y-64505887D01*
X169864097Y-64429224D01*
X169864096Y-64429223D01*
X169864094Y-64429222D01*
X169864092Y-64429221D01*
X169864090Y-64429220D01*
X169736634Y-64376426D01*
X169736623Y-64376423D01*
X169736619Y-64376421D01*
X169736609Y-64376418D01*
X169736604Y-64376416D01*
X169601285Y-64349500D01*
X169601283Y-64349500D01*
X169601281Y-64349500D01*
X169601280Y-64349500D01*
X163508348Y-64349500D01*
X163508343Y-64349499D01*
X163508341Y-64349500D01*
X163473407Y-64344475D01*
X163470002Y-64343475D01*
X163411226Y-64305698D01*
X163382204Y-64242140D01*
X163392151Y-64172982D01*
X163437909Y-64120181D01*
X163504943Y-64100500D01*
X164488997Y-64100500D01*
X164497947Y-64098719D01*
X164580040Y-64082389D01*
X164624328Y-64073580D01*
X164688069Y-64047177D01*
X164747771Y-64022448D01*
X164751245Y-64021152D01*
X164751804Y-64020777D01*
X164751807Y-64020777D01*
X164751808Y-64020776D01*
X164751811Y-64020775D01*
X164866543Y-63944114D01*
X165787545Y-63023109D01*
X165815793Y-63001963D01*
X165835345Y-62991287D01*
X165891229Y-62976171D01*
X165895708Y-62976044D01*
X165903199Y-62976526D01*
X165903616Y-62976436D01*
X165903996Y-62976577D01*
X165918623Y-62977520D01*
X165975707Y-62986561D01*
X165975806Y-62986576D01*
X165975868Y-62986586D01*
X166063713Y-63000500D01*
X166063714Y-63000500D01*
X166276286Y-63000500D01*
X166276287Y-63000500D01*
X166486243Y-62967246D01*
X166688412Y-62901557D01*
X166877816Y-62805051D01*
X166964138Y-62742335D01*
X167049786Y-62680109D01*
X167049788Y-62680106D01*
X167049792Y-62680104D01*
X167049799Y-62680096D01*
X167049849Y-62680061D01*
X167050605Y-62679290D01*
X167200104Y-62529792D01*
X167200106Y-62529788D01*
X167200109Y-62529786D01*
X167325048Y-62357820D01*
X167327910Y-62353880D01*
X167327910Y-62353879D01*
X167333065Y-62346784D01*
X167343229Y-62334531D01*
X167350647Y-62326678D01*
X167410985Y-62291457D01*
X167480791Y-62294447D01*
X167534503Y-62330612D01*
X167540707Y-62337771D01*
X167552729Y-62354193D01*
X167554949Y-62357817D01*
X167554951Y-62357820D01*
X167679890Y-62529786D01*
X167679892Y-62529788D01*
X167830216Y-62680112D01*
X168002169Y-62805042D01*
X168002200Y-62805060D01*
X168002442Y-62805182D01*
X168191588Y-62901557D01*
X168393757Y-62967246D01*
X168603713Y-63000500D01*
X168603714Y-63000500D01*
X168816286Y-63000500D01*
X168816287Y-63000500D01*
X169026243Y-62967246D01*
X169228412Y-62901557D01*
X169417816Y-62805051D01*
X169504138Y-62742335D01*
X169589786Y-62680109D01*
X169589788Y-62680106D01*
X169589792Y-62680104D01*
X169589799Y-62680096D01*
X169589849Y-62680061D01*
X169590605Y-62679290D01*
X169740104Y-62529792D01*
X169740106Y-62529788D01*
X169740109Y-62529786D01*
X169825890Y-62411717D01*
X169865051Y-62357816D01*
X169866342Y-62355281D01*
X169870750Y-62349133D01*
X169872638Y-62347657D01*
X169881370Y-62336249D01*
X169886693Y-62330612D01*
X169890918Y-62326137D01*
X169951253Y-62290909D01*
X170021059Y-62293892D01*
X170074789Y-62330067D01*
X170080890Y-62337108D01*
X170092900Y-62353514D01*
X170095367Y-62357540D01*
X170134727Y-62411715D01*
X170134728Y-62411716D01*
X170640297Y-61906147D01*
X170701619Y-61872663D01*
X170771311Y-61877647D01*
X170827244Y-61919519D01*
X170835363Y-61931828D01*
X170849896Y-61957000D01*
X170849899Y-61957004D01*
X170849901Y-61957007D01*
X170942993Y-62050099D01*
X170968169Y-62064634D01*
X171016384Y-62115202D01*
X171029606Y-62183809D01*
X171003638Y-62248673D01*
X170993849Y-62259702D01*
X170488282Y-62765268D01*
X170488282Y-62765269D01*
X170488282Y-62765270D01*
X170542449Y-62804624D01*
X170731782Y-62901095D01*
X170731784Y-62901096D01*
X170933866Y-62966756D01*
X170933867Y-62966756D01*
X170933870Y-62966757D01*
X171143754Y-63000000D01*
X171356245Y-63000000D01*
X171356246Y-63000000D01*
X171469050Y-62982132D01*
X171556487Y-62968284D01*
X171556493Y-62968283D01*
X171566127Y-62966757D01*
X171566130Y-62966757D01*
X171768217Y-62901095D01*
X171957554Y-62804622D01*
X171959976Y-62802862D01*
X171979121Y-62788953D01*
X172005858Y-62779412D01*
X172011717Y-62765269D01*
X171506149Y-62259702D01*
X171472664Y-62198379D01*
X171477648Y-62128688D01*
X171519519Y-62072754D01*
X171531822Y-62064639D01*
X171557007Y-62050099D01*
X171650099Y-61957007D01*
X171664634Y-61931830D01*
X171715199Y-61883616D01*
X171783805Y-61870391D01*
X171848671Y-61896358D01*
X171859702Y-61906149D01*
X172365269Y-62411717D01*
X172365269Y-62411716D01*
X172365270Y-62411717D01*
X172365270Y-62411716D01*
X172373859Y-62408158D01*
X172383710Y-62389207D01*
X172384955Y-62384968D01*
X172388057Y-62380369D01*
X172388474Y-62379779D01*
X172404622Y-62357555D01*
X172405694Y-62355450D01*
X172409676Y-62349825D01*
X172411521Y-62348365D01*
X172420733Y-62336327D01*
X172430363Y-62326131D01*
X172490703Y-62290907D01*
X172560508Y-62293897D01*
X172614227Y-62330066D01*
X172620297Y-62337071D01*
X172631752Y-62354056D01*
X172632401Y-62353659D01*
X172634944Y-62357809D01*
X172634947Y-62357813D01*
X172634949Y-62357817D01*
X172759890Y-62529786D01*
X172759892Y-62529788D01*
X172910216Y-62680112D01*
X173082169Y-62805042D01*
X173082200Y-62805060D01*
X173082442Y-62805182D01*
X173271588Y-62901557D01*
X173473757Y-62967246D01*
X173683713Y-63000500D01*
X173683714Y-63000500D01*
X173896286Y-63000500D01*
X173896287Y-63000500D01*
X174106243Y-62967246D01*
X174308412Y-62901557D01*
X174497816Y-62805051D01*
X174584138Y-62742335D01*
X174669786Y-62680109D01*
X174669788Y-62680106D01*
X174669792Y-62680104D01*
X174669799Y-62680096D01*
X174669849Y-62680061D01*
X174670605Y-62679290D01*
X174820104Y-62529792D01*
X174820106Y-62529788D01*
X174820109Y-62529786D01*
X174945048Y-62357820D01*
X174947910Y-62353880D01*
X174947910Y-62353879D01*
X174953065Y-62346784D01*
X174963229Y-62334531D01*
X174970647Y-62326678D01*
X175030985Y-62291457D01*
X175100791Y-62294447D01*
X175154503Y-62330612D01*
X175160707Y-62337771D01*
X175172729Y-62354193D01*
X175174949Y-62357817D01*
X175174951Y-62357820D01*
X175299890Y-62529786D01*
X175299892Y-62529788D01*
X175450216Y-62680112D01*
X175622169Y-62805042D01*
X175622200Y-62805060D01*
X175622442Y-62805182D01*
X175811588Y-62901557D01*
X176013757Y-62967246D01*
X176223713Y-63000500D01*
X176223714Y-63000500D01*
X176436286Y-63000500D01*
X176436287Y-63000500D01*
X176646243Y-62967246D01*
X176848412Y-62901557D01*
X177037816Y-62805051D01*
X177124138Y-62742335D01*
X177209786Y-62680109D01*
X177209788Y-62680106D01*
X177209792Y-62680104D01*
X177209799Y-62680096D01*
X177209849Y-62680061D01*
X177210605Y-62679290D01*
X177360104Y-62529792D01*
X177360106Y-62529788D01*
X177360109Y-62529786D01*
X177485048Y-62357820D01*
X177487910Y-62353880D01*
X177487910Y-62353879D01*
X177493065Y-62346784D01*
X177503229Y-62334531D01*
X177510647Y-62326678D01*
X177570985Y-62291457D01*
X177640791Y-62294447D01*
X177694503Y-62330612D01*
X177700707Y-62337771D01*
X177712729Y-62354193D01*
X177714949Y-62357817D01*
X177714951Y-62357820D01*
X177839890Y-62529786D01*
X177839892Y-62529788D01*
X177990216Y-62680112D01*
X178162169Y-62805042D01*
X178162200Y-62805060D01*
X178162442Y-62805182D01*
X178351588Y-62901557D01*
X178553757Y-62967246D01*
X178763713Y-63000500D01*
X178763714Y-63000500D01*
X178976286Y-63000500D01*
X178976287Y-63000500D01*
X179186243Y-62967246D01*
X179388412Y-62901557D01*
X179577816Y-62805051D01*
X179664138Y-62742335D01*
X179749786Y-62680109D01*
X179749788Y-62680106D01*
X179749792Y-62680104D01*
X179749799Y-62680096D01*
X179749849Y-62680061D01*
X179750605Y-62679290D01*
X179900104Y-62529792D01*
X179900106Y-62529788D01*
X179900109Y-62529786D01*
X180025048Y-62357820D01*
X180027910Y-62353880D01*
X180027910Y-62353879D01*
X180033065Y-62346784D01*
X180043229Y-62334531D01*
X180050647Y-62326678D01*
X180110985Y-62291457D01*
X180180791Y-62294447D01*
X180234503Y-62330612D01*
X180240707Y-62337771D01*
X180252729Y-62354193D01*
X180254949Y-62357817D01*
X180254951Y-62357820D01*
X180379890Y-62529786D01*
X180379892Y-62529788D01*
X180530216Y-62680112D01*
X180702169Y-62805042D01*
X180702200Y-62805060D01*
X180702442Y-62805182D01*
X180891588Y-62901557D01*
X181093757Y-62967246D01*
X181303713Y-63000500D01*
X181303714Y-63000500D01*
X181516286Y-63000500D01*
X181516287Y-63000500D01*
X181726243Y-62967246D01*
X181928412Y-62901557D01*
X182117816Y-62805051D01*
X182204138Y-62742335D01*
X182289786Y-62680109D01*
X182289788Y-62680106D01*
X182289792Y-62680104D01*
X182289799Y-62680096D01*
X182289849Y-62680061D01*
X182290605Y-62679290D01*
X182440104Y-62529792D01*
X182440106Y-62529788D01*
X182440109Y-62529786D01*
X182525890Y-62411717D01*
X182565051Y-62357816D01*
X182566342Y-62355281D01*
X182570750Y-62349133D01*
X182572638Y-62347657D01*
X182581370Y-62336249D01*
X182586693Y-62330612D01*
X182590918Y-62326137D01*
X182651253Y-62290909D01*
X182721059Y-62293892D01*
X182774789Y-62330067D01*
X182780890Y-62337108D01*
X182792900Y-62353514D01*
X182795367Y-62357540D01*
X182834727Y-62411715D01*
X182834728Y-62411716D01*
X183340297Y-61906147D01*
X183401619Y-61872663D01*
X183471311Y-61877647D01*
X183527244Y-61919519D01*
X183535363Y-61931828D01*
X183549896Y-61957000D01*
X183549899Y-61957004D01*
X183549901Y-61957007D01*
X183642993Y-62050099D01*
X183668169Y-62064634D01*
X183716384Y-62115202D01*
X183729606Y-62183809D01*
X183703638Y-62248673D01*
X183693849Y-62259702D01*
X183188282Y-62765268D01*
X183188282Y-62765269D01*
X183188282Y-62765270D01*
X183242449Y-62804624D01*
X183431782Y-62901095D01*
X183431784Y-62901096D01*
X183633866Y-62966756D01*
X183633867Y-62966756D01*
X183633870Y-62966757D01*
X183843754Y-63000000D01*
X184056245Y-63000000D01*
X184056246Y-63000000D01*
X184169050Y-62982132D01*
X184256487Y-62968284D01*
X184256493Y-62968283D01*
X184266127Y-62966757D01*
X184266130Y-62966757D01*
X184468217Y-62901095D01*
X184657554Y-62804622D01*
X184659976Y-62802862D01*
X184679121Y-62788953D01*
X184705858Y-62779412D01*
X184711717Y-62765269D01*
X184206149Y-62259702D01*
X184172664Y-62198379D01*
X184177648Y-62128688D01*
X184219519Y-62072754D01*
X184231822Y-62064639D01*
X184257007Y-62050099D01*
X184350099Y-61957007D01*
X184364634Y-61931830D01*
X184415199Y-61883616D01*
X184483805Y-61870391D01*
X184548671Y-61896358D01*
X184559702Y-61906149D01*
X185065269Y-62411717D01*
X185065269Y-62411716D01*
X185065270Y-62411717D01*
X185065270Y-62411716D01*
X185073859Y-62408158D01*
X185083710Y-62389207D01*
X185084955Y-62384968D01*
X185088057Y-62380369D01*
X185088474Y-62379779D01*
X185104622Y-62357555D01*
X185105694Y-62355450D01*
X185109676Y-62349825D01*
X185111521Y-62348365D01*
X185120733Y-62336327D01*
X185130363Y-62326131D01*
X185190703Y-62290907D01*
X185260508Y-62293897D01*
X185314227Y-62330066D01*
X185320297Y-62337071D01*
X185331752Y-62354056D01*
X185332401Y-62353659D01*
X185334944Y-62357809D01*
X185334947Y-62357813D01*
X185334949Y-62357817D01*
X185459890Y-62529786D01*
X185459892Y-62529788D01*
X185610216Y-62680112D01*
X185782169Y-62805042D01*
X185782200Y-62805060D01*
X185782442Y-62805182D01*
X185971588Y-62901557D01*
X186173757Y-62967246D01*
X186383713Y-63000500D01*
X186383714Y-63000500D01*
X186596286Y-63000500D01*
X186596287Y-63000500D01*
X186806243Y-62967246D01*
X187008412Y-62901557D01*
X187197816Y-62805051D01*
X187284138Y-62742335D01*
X187369786Y-62680109D01*
X187369788Y-62680106D01*
X187369792Y-62680104D01*
X187369799Y-62680096D01*
X187369849Y-62680061D01*
X187370605Y-62679290D01*
X187520104Y-62529792D01*
X187520106Y-62529788D01*
X187520109Y-62529786D01*
X187645048Y-62357820D01*
X187647910Y-62353880D01*
X187647910Y-62353879D01*
X187653065Y-62346784D01*
X187663229Y-62334531D01*
X187670647Y-62326678D01*
X187730985Y-62291457D01*
X187800791Y-62294447D01*
X187854503Y-62330612D01*
X187860707Y-62337771D01*
X187872729Y-62354193D01*
X187874949Y-62357817D01*
X187874951Y-62357820D01*
X187999890Y-62529786D01*
X187999892Y-62529788D01*
X188150216Y-62680112D01*
X188322169Y-62805042D01*
X188322200Y-62805060D01*
X188322442Y-62805182D01*
X188511588Y-62901557D01*
X188713757Y-62967246D01*
X188923713Y-63000500D01*
X188923714Y-63000500D01*
X189136286Y-63000500D01*
X189136287Y-63000500D01*
X189346243Y-62967246D01*
X189548412Y-62901557D01*
X189737816Y-62805051D01*
X189824138Y-62742335D01*
X189909786Y-62680109D01*
X189909788Y-62680106D01*
X189909792Y-62680104D01*
X189909799Y-62680096D01*
X189909849Y-62680061D01*
X189910605Y-62679290D01*
X190060104Y-62529792D01*
X190060106Y-62529788D01*
X190060109Y-62529786D01*
X190185048Y-62357820D01*
X190187910Y-62353880D01*
X190187910Y-62353879D01*
X190193065Y-62346784D01*
X190203229Y-62334531D01*
X190210647Y-62326678D01*
X190270985Y-62291457D01*
X190340791Y-62294447D01*
X190394503Y-62330612D01*
X190400707Y-62337771D01*
X190412729Y-62354193D01*
X190414949Y-62357817D01*
X190414951Y-62357820D01*
X190539890Y-62529786D01*
X190539892Y-62529788D01*
X190690216Y-62680112D01*
X190862169Y-62805042D01*
X190862200Y-62805060D01*
X190862442Y-62805182D01*
X191051588Y-62901557D01*
X191253757Y-62967246D01*
X191463713Y-63000500D01*
X191463714Y-63000500D01*
X191676286Y-63000500D01*
X191676287Y-63000500D01*
X191886243Y-62967246D01*
X192088412Y-62901557D01*
X192277816Y-62805051D01*
X192364138Y-62742335D01*
X192449786Y-62680109D01*
X192449788Y-62680106D01*
X192449792Y-62680104D01*
X192449799Y-62680096D01*
X192449849Y-62680061D01*
X192450605Y-62679290D01*
X192600104Y-62529792D01*
X192600106Y-62529788D01*
X192600109Y-62529786D01*
X192725048Y-62357820D01*
X192727910Y-62353880D01*
X192727910Y-62353879D01*
X192733065Y-62346784D01*
X192743229Y-62334531D01*
X192750647Y-62326678D01*
X192810985Y-62291457D01*
X192880791Y-62294447D01*
X192934503Y-62330612D01*
X192940707Y-62337771D01*
X192952729Y-62354193D01*
X192954949Y-62357817D01*
X192954951Y-62357820D01*
X193079890Y-62529786D01*
X193079892Y-62529788D01*
X193230216Y-62680112D01*
X193402169Y-62805042D01*
X193402200Y-62805060D01*
X193402442Y-62805182D01*
X193591588Y-62901557D01*
X193793757Y-62967246D01*
X194003713Y-63000500D01*
X194003714Y-63000500D01*
X194216286Y-63000500D01*
X194216287Y-63000500D01*
X194426243Y-62967246D01*
X194628412Y-62901557D01*
X194817816Y-62805051D01*
X194904138Y-62742335D01*
X194989786Y-62680109D01*
X194989788Y-62680106D01*
X194989792Y-62680104D01*
X194989799Y-62680096D01*
X194989849Y-62680061D01*
X194990605Y-62679290D01*
X195140104Y-62529792D01*
X195140106Y-62529788D01*
X195140109Y-62529786D01*
X195225890Y-62411717D01*
X195265051Y-62357816D01*
X195266342Y-62355281D01*
X195270750Y-62349133D01*
X195272638Y-62347657D01*
X195281370Y-62336249D01*
X195286693Y-62330612D01*
X195290918Y-62326137D01*
X195351253Y-62290909D01*
X195421059Y-62293892D01*
X195474789Y-62330067D01*
X195480890Y-62337108D01*
X195492900Y-62353514D01*
X195495367Y-62357540D01*
X195534727Y-62411715D01*
X195534728Y-62411716D01*
X196040297Y-61906147D01*
X196101619Y-61872663D01*
X196171311Y-61877647D01*
X196227244Y-61919519D01*
X196235363Y-61931828D01*
X196249896Y-61957000D01*
X196249899Y-61957004D01*
X196249901Y-61957007D01*
X196342993Y-62050099D01*
X196368169Y-62064634D01*
X196416384Y-62115202D01*
X196429606Y-62183809D01*
X196403638Y-62248673D01*
X196393849Y-62259702D01*
X195888282Y-62765268D01*
X195888282Y-62765269D01*
X195888282Y-62765270D01*
X195942449Y-62804624D01*
X196131782Y-62901095D01*
X196131784Y-62901096D01*
X196333866Y-62966756D01*
X196333867Y-62966756D01*
X196333870Y-62966757D01*
X196543754Y-63000000D01*
X196756245Y-63000000D01*
X196756246Y-63000000D01*
X196869050Y-62982132D01*
X196956487Y-62968284D01*
X196956493Y-62968283D01*
X196966127Y-62966757D01*
X196966130Y-62966757D01*
X197168217Y-62901095D01*
X197357554Y-62804622D01*
X197359976Y-62802862D01*
X197379121Y-62788953D01*
X197405858Y-62779412D01*
X197411717Y-62765269D01*
X196906149Y-62259702D01*
X196872664Y-62198379D01*
X196877648Y-62128688D01*
X196919519Y-62072754D01*
X196931822Y-62064639D01*
X196957007Y-62050099D01*
X197050099Y-61957007D01*
X197064634Y-61931830D01*
X197115199Y-61883616D01*
X197183805Y-61870391D01*
X197248671Y-61896358D01*
X197259702Y-61906149D01*
X197765269Y-62411717D01*
X197765269Y-62411716D01*
X197765270Y-62411717D01*
X197765270Y-62411716D01*
X197773859Y-62408158D01*
X197783710Y-62389207D01*
X197784955Y-62384968D01*
X197788057Y-62380369D01*
X197788474Y-62379779D01*
X197804622Y-62357555D01*
X197805694Y-62355450D01*
X197809676Y-62349825D01*
X197811521Y-62348365D01*
X197820733Y-62336327D01*
X197830363Y-62326131D01*
X197890703Y-62290907D01*
X197960508Y-62293897D01*
X198014227Y-62330066D01*
X198020297Y-62337071D01*
X198031752Y-62354056D01*
X198032401Y-62353659D01*
X198034944Y-62357809D01*
X198034947Y-62357813D01*
X198034949Y-62357817D01*
X198159890Y-62529786D01*
X198159892Y-62529788D01*
X198310216Y-62680112D01*
X198482169Y-62805042D01*
X198482200Y-62805060D01*
X198482442Y-62805182D01*
X198671588Y-62901557D01*
X198873757Y-62967246D01*
X199083713Y-63000500D01*
X199083714Y-63000500D01*
X199296286Y-63000500D01*
X199296287Y-63000500D01*
X199506243Y-62967246D01*
X199708412Y-62901557D01*
X199897816Y-62805051D01*
X199984138Y-62742335D01*
X200069786Y-62680109D01*
X200069788Y-62680106D01*
X200069792Y-62680104D01*
X200069799Y-62680096D01*
X200069849Y-62680061D01*
X200070605Y-62679290D01*
X200220104Y-62529792D01*
X200220106Y-62529788D01*
X200220109Y-62529786D01*
X200345048Y-62357820D01*
X200347910Y-62353880D01*
X200347910Y-62353879D01*
X200353065Y-62346784D01*
X200363229Y-62334531D01*
X200370647Y-62326678D01*
X200430985Y-62291457D01*
X200500791Y-62294447D01*
X200554503Y-62330612D01*
X200560707Y-62337771D01*
X200572729Y-62354193D01*
X200574949Y-62357817D01*
X200574951Y-62357820D01*
X200699890Y-62529786D01*
X200699892Y-62529788D01*
X200850216Y-62680112D01*
X201022169Y-62805042D01*
X201022200Y-62805060D01*
X201022442Y-62805182D01*
X201211588Y-62901557D01*
X201413757Y-62967246D01*
X201623713Y-63000500D01*
X201623714Y-63000500D01*
X201836286Y-63000500D01*
X201836287Y-63000500D01*
X202046243Y-62967246D01*
X202248412Y-62901557D01*
X202437816Y-62805051D01*
X202524138Y-62742335D01*
X202609786Y-62680109D01*
X202609788Y-62680106D01*
X202609792Y-62680104D01*
X202609799Y-62680096D01*
X202609849Y-62680061D01*
X202610605Y-62679290D01*
X202760104Y-62529792D01*
X202760106Y-62529788D01*
X202760109Y-62529786D01*
X202833094Y-62429329D01*
X202880634Y-62363896D01*
X202880635Y-62363893D01*
X202885048Y-62357820D01*
X202885047Y-62357820D01*
X202885051Y-62357816D01*
X202981557Y-62168412D01*
X203047246Y-61966243D01*
X203080500Y-61756287D01*
X203080500Y-61543713D01*
X203047246Y-61333757D01*
X202981557Y-61131588D01*
X202885051Y-60942184D01*
X202885049Y-60942181D01*
X202885048Y-60942179D01*
X202884702Y-60941703D01*
X202884700Y-60941699D01*
X202760112Y-60770216D01*
X202609788Y-60619892D01*
X202609786Y-60619890D01*
X202437820Y-60494951D01*
X202334781Y-60442450D01*
X202270245Y-60409567D01*
X202270240Y-60409565D01*
X202248414Y-60398444D01*
X202248413Y-60398443D01*
X202248412Y-60398443D01*
X202151550Y-60366970D01*
X202055074Y-60335623D01*
X202050552Y-60333770D01*
X202041362Y-60331600D01*
X202036599Y-60331226D01*
X201884957Y-60307208D01*
X201865489Y-60304124D01*
X201836290Y-60299500D01*
X201836287Y-60299500D01*
X201623713Y-60299500D01*
X201623709Y-60299500D01*
X201584776Y-60305666D01*
X201575042Y-60307208D01*
X201537654Y-60313129D01*
X201413763Y-60332752D01*
X201211582Y-60398445D01*
X201022182Y-60494949D01*
X201022179Y-60494950D01*
X201022179Y-60494951D01*
X201021589Y-60495380D01*
X200850210Y-60619892D01*
X200699892Y-60770210D01*
X200699890Y-60770213D01*
X200574952Y-60942179D01*
X200574945Y-60942188D01*
X200574634Y-60942696D01*
X200573499Y-60944177D01*
X200572085Y-60946125D01*
X200572036Y-60946089D01*
X200559060Y-60963041D01*
X200549353Y-60973319D01*
X200489011Y-61008542D01*
X200419205Y-61005550D01*
X200365488Y-60969378D01*
X200359285Y-60962219D01*
X200347274Y-60945811D01*
X200345053Y-60942187D01*
X200345051Y-60942184D01*
X200345050Y-60942182D01*
X200220109Y-60770213D01*
X200069786Y-60619890D01*
X199897820Y-60494951D01*
X199794781Y-60442450D01*
X199730245Y-60409567D01*
X199730240Y-60409565D01*
X199708414Y-60398444D01*
X199708413Y-60398443D01*
X199708412Y-60398443D01*
X199611550Y-60366970D01*
X199515074Y-60335623D01*
X199510552Y-60333770D01*
X199501362Y-60331600D01*
X199496599Y-60331226D01*
X199344957Y-60307208D01*
X199325489Y-60304124D01*
X199296290Y-60299500D01*
X199296287Y-60299500D01*
X199083713Y-60299500D01*
X199083709Y-60299500D01*
X199044776Y-60305666D01*
X199035042Y-60307208D01*
X198997654Y-60313129D01*
X198873763Y-60332752D01*
X198671582Y-60398445D01*
X198482182Y-60494949D01*
X198482179Y-60494950D01*
X198482179Y-60494951D01*
X198481589Y-60495380D01*
X198310210Y-60619892D01*
X198159886Y-60770216D01*
X198034943Y-60942187D01*
X198034188Y-60943421D01*
X198018613Y-60963768D01*
X198009070Y-60973872D01*
X197948728Y-61009094D01*
X197878922Y-61006100D01*
X197825211Y-60969934D01*
X197819107Y-60962890D01*
X197807086Y-60946467D01*
X197804628Y-60942457D01*
X197804626Y-60942452D01*
X197765270Y-60888282D01*
X197765268Y-60888282D01*
X197259702Y-61393849D01*
X197198379Y-61427334D01*
X197128687Y-61422350D01*
X197072754Y-61380478D01*
X197064634Y-61368169D01*
X197050099Y-61342993D01*
X196957007Y-61249901D01*
X196957004Y-61249899D01*
X196957000Y-61249896D01*
X196931828Y-61235363D01*
X196883613Y-61184796D01*
X196870391Y-61116189D01*
X196896359Y-61051324D01*
X196906135Y-61040310D01*
X197411716Y-60534728D01*
X197357550Y-60495375D01*
X197253680Y-60442450D01*
X197168214Y-60398902D01*
X196966130Y-60333242D01*
X196756251Y-60300000D01*
X196756246Y-60300000D01*
X196543754Y-60300000D01*
X196543749Y-60300000D01*
X196343513Y-60331715D01*
X196343505Y-60331715D01*
X196343506Y-60331716D01*
X196333865Y-60333242D01*
X196131784Y-60398903D01*
X195942438Y-60495380D01*
X195888282Y-60534727D01*
X195888282Y-60534728D01*
X196393850Y-61040296D01*
X196427335Y-61101619D01*
X196422351Y-61171311D01*
X196380479Y-61227244D01*
X196368173Y-61235362D01*
X196342996Y-61249898D01*
X196342990Y-61249903D01*
X196249903Y-61342990D01*
X196249898Y-61342996D01*
X196235362Y-61368173D01*
X196184793Y-61416387D01*
X196116185Y-61429607D01*
X196051322Y-61403637D01*
X196040296Y-61393850D01*
X195534728Y-60888282D01*
X195534727Y-60888282D01*
X195495379Y-60942440D01*
X195493368Y-60945458D01*
X195493066Y-60945256D01*
X195479233Y-60963707D01*
X195469622Y-60973881D01*
X195409276Y-61009096D01*
X195339471Y-61006096D01*
X195285760Y-60969921D01*
X195279682Y-60962905D01*
X195267425Y-60946091D01*
X195265568Y-60943034D01*
X195265100Y-60942249D01*
X195140112Y-60770216D01*
X194989788Y-60619892D01*
X194989786Y-60619890D01*
X194817820Y-60494951D01*
X194714781Y-60442450D01*
X194650245Y-60409567D01*
X194650240Y-60409565D01*
X194628414Y-60398444D01*
X194628413Y-60398443D01*
X194628412Y-60398443D01*
X194531550Y-60366970D01*
X194435074Y-60335623D01*
X194430552Y-60333770D01*
X194421362Y-60331600D01*
X194416599Y-60331226D01*
X194264957Y-60307208D01*
X194245489Y-60304124D01*
X194216290Y-60299500D01*
X194216287Y-60299500D01*
X194003713Y-60299500D01*
X194003709Y-60299500D01*
X193964776Y-60305666D01*
X193955042Y-60307208D01*
X193917654Y-60313129D01*
X193793763Y-60332752D01*
X193591582Y-60398445D01*
X193402182Y-60494949D01*
X193402179Y-60494950D01*
X193402179Y-60494951D01*
X193401589Y-60495380D01*
X193230210Y-60619892D01*
X193079892Y-60770210D01*
X193079890Y-60770213D01*
X192954952Y-60942179D01*
X192954945Y-60942188D01*
X192954634Y-60942696D01*
X192953499Y-60944177D01*
X192952085Y-60946125D01*
X192952036Y-60946089D01*
X192939060Y-60963041D01*
X192929353Y-60973319D01*
X192869011Y-61008542D01*
X192799205Y-61005550D01*
X192745488Y-60969378D01*
X192739285Y-60962219D01*
X192727274Y-60945811D01*
X192725053Y-60942187D01*
X192725051Y-60942184D01*
X192725050Y-60942182D01*
X192600109Y-60770213D01*
X192449786Y-60619890D01*
X192277820Y-60494951D01*
X192174781Y-60442450D01*
X192110245Y-60409567D01*
X192110240Y-60409565D01*
X192088414Y-60398444D01*
X192088413Y-60398443D01*
X192088412Y-60398443D01*
X191991550Y-60366970D01*
X191895074Y-60335623D01*
X191890552Y-60333770D01*
X191881362Y-60331600D01*
X191876599Y-60331226D01*
X191724957Y-60307208D01*
X191705489Y-60304124D01*
X191676290Y-60299500D01*
X191676287Y-60299500D01*
X191463713Y-60299500D01*
X191463709Y-60299500D01*
X191424776Y-60305666D01*
X191415042Y-60307208D01*
X191377654Y-60313129D01*
X191253763Y-60332752D01*
X191051582Y-60398445D01*
X190862182Y-60494949D01*
X190862179Y-60494950D01*
X190862179Y-60494951D01*
X190861589Y-60495380D01*
X190690210Y-60619892D01*
X190539892Y-60770210D01*
X190539890Y-60770213D01*
X190414952Y-60942179D01*
X190414945Y-60942188D01*
X190414634Y-60942696D01*
X190413499Y-60944177D01*
X190412085Y-60946125D01*
X190412036Y-60946089D01*
X190399060Y-60963041D01*
X190389353Y-60973319D01*
X190329011Y-61008542D01*
X190259205Y-61005550D01*
X190205488Y-60969378D01*
X190199285Y-60962219D01*
X190187274Y-60945811D01*
X190185053Y-60942187D01*
X190185051Y-60942184D01*
X190185050Y-60942182D01*
X190060109Y-60770213D01*
X189909786Y-60619890D01*
X189737820Y-60494951D01*
X189634781Y-60442450D01*
X189570245Y-60409567D01*
X189570240Y-60409565D01*
X189548414Y-60398444D01*
X189548413Y-60398443D01*
X189548412Y-60398443D01*
X189451550Y-60366970D01*
X189355074Y-60335623D01*
X189350552Y-60333770D01*
X189341362Y-60331600D01*
X189336599Y-60331226D01*
X189184957Y-60307208D01*
X189165489Y-60304124D01*
X189136290Y-60299500D01*
X189136287Y-60299500D01*
X188923713Y-60299500D01*
X188923709Y-60299500D01*
X188884776Y-60305666D01*
X188875042Y-60307208D01*
X188837654Y-60313129D01*
X188713763Y-60332752D01*
X188511582Y-60398445D01*
X188322182Y-60494949D01*
X188322179Y-60494950D01*
X188322179Y-60494951D01*
X188321589Y-60495380D01*
X188150210Y-60619892D01*
X187999892Y-60770210D01*
X187999890Y-60770213D01*
X187874952Y-60942179D01*
X187874945Y-60942188D01*
X187874634Y-60942696D01*
X187873499Y-60944177D01*
X187872085Y-60946125D01*
X187872036Y-60946089D01*
X187859060Y-60963041D01*
X187849353Y-60973319D01*
X187789011Y-61008542D01*
X187719205Y-61005550D01*
X187665488Y-60969378D01*
X187659285Y-60962219D01*
X187647274Y-60945811D01*
X187645053Y-60942187D01*
X187645051Y-60942184D01*
X187645050Y-60942182D01*
X187520109Y-60770213D01*
X187369786Y-60619890D01*
X187197820Y-60494951D01*
X187094781Y-60442450D01*
X187030245Y-60409567D01*
X187030240Y-60409565D01*
X187008414Y-60398444D01*
X187008413Y-60398443D01*
X187008412Y-60398443D01*
X186911550Y-60366970D01*
X186815074Y-60335623D01*
X186810552Y-60333770D01*
X186801362Y-60331600D01*
X186796599Y-60331226D01*
X186644957Y-60307208D01*
X186625489Y-60304124D01*
X186596290Y-60299500D01*
X186596287Y-60299500D01*
X186383713Y-60299500D01*
X186383709Y-60299500D01*
X186344776Y-60305666D01*
X186335042Y-60307208D01*
X186297654Y-60313129D01*
X186173763Y-60332752D01*
X185971582Y-60398445D01*
X185782182Y-60494949D01*
X185782179Y-60494950D01*
X185782179Y-60494951D01*
X185781589Y-60495380D01*
X185610210Y-60619892D01*
X185459886Y-60770216D01*
X185334943Y-60942187D01*
X185334188Y-60943421D01*
X185318613Y-60963768D01*
X185309070Y-60973872D01*
X185248728Y-61009094D01*
X185178922Y-61006100D01*
X185125211Y-60969934D01*
X185119107Y-60962890D01*
X185107086Y-60946467D01*
X185104628Y-60942457D01*
X185104626Y-60942452D01*
X185065270Y-60888282D01*
X185065268Y-60888282D01*
X184559702Y-61393849D01*
X184498379Y-61427334D01*
X184428687Y-61422350D01*
X184372754Y-61380478D01*
X184364634Y-61368169D01*
X184350099Y-61342993D01*
X184257007Y-61249901D01*
X184257004Y-61249899D01*
X184257000Y-61249896D01*
X184231828Y-61235363D01*
X184183613Y-61184796D01*
X184170391Y-61116189D01*
X184196359Y-61051324D01*
X184206135Y-61040310D01*
X184711716Y-60534728D01*
X184657550Y-60495375D01*
X184553680Y-60442450D01*
X184468214Y-60398902D01*
X184266130Y-60333242D01*
X184056251Y-60300000D01*
X184056246Y-60300000D01*
X183843754Y-60300000D01*
X183843749Y-60300000D01*
X183643513Y-60331715D01*
X183643505Y-60331715D01*
X183643506Y-60331716D01*
X183633865Y-60333242D01*
X183431784Y-60398903D01*
X183242438Y-60495380D01*
X183188282Y-60534727D01*
X183188282Y-60534728D01*
X183693850Y-61040296D01*
X183727335Y-61101619D01*
X183722351Y-61171311D01*
X183680479Y-61227244D01*
X183668173Y-61235362D01*
X183642996Y-61249898D01*
X183642990Y-61249903D01*
X183549903Y-61342990D01*
X183549898Y-61342996D01*
X183535362Y-61368173D01*
X183484793Y-61416387D01*
X183416185Y-61429607D01*
X183351322Y-61403637D01*
X183340296Y-61393850D01*
X182834728Y-60888282D01*
X182834727Y-60888282D01*
X182795379Y-60942440D01*
X182793368Y-60945458D01*
X182793066Y-60945256D01*
X182779233Y-60963707D01*
X182769622Y-60973881D01*
X182709276Y-61009096D01*
X182639471Y-61006096D01*
X182585760Y-60969921D01*
X182579682Y-60962905D01*
X182567425Y-60946091D01*
X182565568Y-60943034D01*
X182565100Y-60942249D01*
X182440112Y-60770216D01*
X182289788Y-60619892D01*
X182289786Y-60619890D01*
X182117820Y-60494951D01*
X182014781Y-60442450D01*
X181950245Y-60409567D01*
X181950240Y-60409565D01*
X181928414Y-60398444D01*
X181928413Y-60398443D01*
X181928412Y-60398443D01*
X181831550Y-60366970D01*
X181735074Y-60335623D01*
X181730552Y-60333770D01*
X181721362Y-60331600D01*
X181716599Y-60331226D01*
X181564957Y-60307208D01*
X181545489Y-60304124D01*
X181516290Y-60299500D01*
X181516287Y-60299500D01*
X181303713Y-60299500D01*
X181303709Y-60299500D01*
X181264776Y-60305666D01*
X181255042Y-60307208D01*
X181217654Y-60313129D01*
X181093763Y-60332752D01*
X180891582Y-60398445D01*
X180702182Y-60494949D01*
X180702179Y-60494950D01*
X180702179Y-60494951D01*
X180701589Y-60495380D01*
X180530210Y-60619892D01*
X180379892Y-60770210D01*
X180379890Y-60770213D01*
X180254952Y-60942179D01*
X180254945Y-60942188D01*
X180254634Y-60942696D01*
X180253499Y-60944177D01*
X180252085Y-60946125D01*
X180252036Y-60946089D01*
X180239060Y-60963041D01*
X180229353Y-60973319D01*
X180169011Y-61008542D01*
X180099205Y-61005550D01*
X180045488Y-60969378D01*
X180039285Y-60962219D01*
X180027274Y-60945811D01*
X180025053Y-60942187D01*
X180025051Y-60942184D01*
X180025050Y-60942182D01*
X179900109Y-60770213D01*
X179749786Y-60619890D01*
X179577820Y-60494951D01*
X179474781Y-60442450D01*
X179410245Y-60409567D01*
X179410240Y-60409565D01*
X179388414Y-60398444D01*
X179388413Y-60398443D01*
X179388412Y-60398443D01*
X179291550Y-60366970D01*
X179195074Y-60335623D01*
X179190552Y-60333770D01*
X179181362Y-60331600D01*
X179176599Y-60331226D01*
X179024957Y-60307208D01*
X179005489Y-60304124D01*
X178976290Y-60299500D01*
X178976287Y-60299500D01*
X178763713Y-60299500D01*
X178763709Y-60299500D01*
X178724776Y-60305666D01*
X178715042Y-60307208D01*
X178677654Y-60313129D01*
X178553763Y-60332752D01*
X178351582Y-60398445D01*
X178162182Y-60494949D01*
X178162179Y-60494950D01*
X178162179Y-60494951D01*
X178161589Y-60495380D01*
X177990210Y-60619892D01*
X177839892Y-60770210D01*
X177839890Y-60770213D01*
X177714952Y-60942179D01*
X177714945Y-60942188D01*
X177714634Y-60942696D01*
X177713499Y-60944177D01*
X177712085Y-60946125D01*
X177712036Y-60946089D01*
X177699060Y-60963041D01*
X177689353Y-60973319D01*
X177629011Y-61008542D01*
X177559205Y-61005550D01*
X177505488Y-60969378D01*
X177499285Y-60962219D01*
X177487274Y-60945811D01*
X177485053Y-60942187D01*
X177485051Y-60942184D01*
X177485050Y-60942182D01*
X177360109Y-60770213D01*
X177209786Y-60619890D01*
X177037820Y-60494951D01*
X176934781Y-60442450D01*
X176870245Y-60409567D01*
X176870240Y-60409565D01*
X176848414Y-60398444D01*
X176848413Y-60398443D01*
X176848412Y-60398443D01*
X176751550Y-60366970D01*
X176655074Y-60335623D01*
X176650552Y-60333770D01*
X176641362Y-60331600D01*
X176636599Y-60331226D01*
X176484957Y-60307208D01*
X176465489Y-60304124D01*
X176436290Y-60299500D01*
X176436287Y-60299500D01*
X176223713Y-60299500D01*
X176223709Y-60299500D01*
X176184776Y-60305666D01*
X176175042Y-60307208D01*
X176137654Y-60313129D01*
X176013763Y-60332752D01*
X175811582Y-60398445D01*
X175622182Y-60494949D01*
X175622179Y-60494950D01*
X175622179Y-60494951D01*
X175621589Y-60495380D01*
X175450210Y-60619892D01*
X175299892Y-60770210D01*
X175299890Y-60770213D01*
X175174952Y-60942179D01*
X175174945Y-60942188D01*
X175174634Y-60942696D01*
X175173499Y-60944177D01*
X175172085Y-60946125D01*
X175172036Y-60946089D01*
X175159060Y-60963041D01*
X175149353Y-60973319D01*
X175089011Y-61008542D01*
X175019205Y-61005550D01*
X174965488Y-60969378D01*
X174959285Y-60962219D01*
X174947274Y-60945811D01*
X174945053Y-60942187D01*
X174945051Y-60942184D01*
X174945050Y-60942182D01*
X174820109Y-60770213D01*
X174669786Y-60619890D01*
X174497820Y-60494951D01*
X174394781Y-60442450D01*
X174330245Y-60409567D01*
X174330240Y-60409565D01*
X174308414Y-60398444D01*
X174308413Y-60398443D01*
X174308412Y-60398443D01*
X174211550Y-60366970D01*
X174115074Y-60335623D01*
X174110552Y-60333770D01*
X174101362Y-60331600D01*
X174096599Y-60331226D01*
X173944957Y-60307208D01*
X173925489Y-60304124D01*
X173896290Y-60299500D01*
X173896287Y-60299500D01*
X173683713Y-60299500D01*
X173683709Y-60299500D01*
X173644776Y-60305666D01*
X173635042Y-60307208D01*
X173597654Y-60313129D01*
X173473763Y-60332752D01*
X173271582Y-60398445D01*
X173082182Y-60494949D01*
X173082179Y-60494950D01*
X173082179Y-60494951D01*
X173081589Y-60495380D01*
X172910210Y-60619892D01*
X172759886Y-60770216D01*
X172634943Y-60942187D01*
X172634188Y-60943421D01*
X172618613Y-60963768D01*
X172609070Y-60973872D01*
X172548728Y-61009094D01*
X172478922Y-61006100D01*
X172425211Y-60969934D01*
X172419107Y-60962890D01*
X172407086Y-60946467D01*
X172404628Y-60942457D01*
X172404626Y-60942452D01*
X172365270Y-60888282D01*
X172365268Y-60888282D01*
X171859702Y-61393849D01*
X171798379Y-61427334D01*
X171728687Y-61422350D01*
X171672754Y-61380478D01*
X171664634Y-61368169D01*
X171650099Y-61342993D01*
X171557007Y-61249901D01*
X171557004Y-61249899D01*
X171557000Y-61249896D01*
X171531828Y-61235363D01*
X171483613Y-61184796D01*
X171470391Y-61116189D01*
X171496359Y-61051324D01*
X171506135Y-61040310D01*
X172011716Y-60534728D01*
X171957550Y-60495375D01*
X171853680Y-60442450D01*
X171768214Y-60398902D01*
X171566130Y-60333242D01*
X171356251Y-60300000D01*
X171356246Y-60300000D01*
X171143754Y-60300000D01*
X171143749Y-60300000D01*
X170943513Y-60331715D01*
X170943505Y-60331715D01*
X170943506Y-60331716D01*
X170933865Y-60333242D01*
X170731784Y-60398903D01*
X170542438Y-60495380D01*
X170488282Y-60534727D01*
X170488282Y-60534728D01*
X170993850Y-61040296D01*
X171027335Y-61101619D01*
X171022351Y-61171311D01*
X170980479Y-61227244D01*
X170968173Y-61235362D01*
X170942996Y-61249898D01*
X170942990Y-61249903D01*
X170849903Y-61342990D01*
X170849898Y-61342996D01*
X170835362Y-61368173D01*
X170784793Y-61416387D01*
X170716185Y-61429607D01*
X170651322Y-61403637D01*
X170640296Y-61393850D01*
X170134728Y-60888282D01*
X170134727Y-60888282D01*
X170095379Y-60942440D01*
X170093368Y-60945458D01*
X170093066Y-60945256D01*
X170079233Y-60963707D01*
X170069622Y-60973881D01*
X170009276Y-61009096D01*
X169939471Y-61006096D01*
X169885760Y-60969921D01*
X169879682Y-60962905D01*
X169867425Y-60946091D01*
X169865568Y-60943034D01*
X169865100Y-60942249D01*
X169740112Y-60770216D01*
X169589788Y-60619892D01*
X169589786Y-60619890D01*
X169417820Y-60494951D01*
X169314781Y-60442450D01*
X169250245Y-60409567D01*
X169250240Y-60409565D01*
X169228414Y-60398444D01*
X169228413Y-60398443D01*
X169228412Y-60398443D01*
X169131550Y-60366970D01*
X169035074Y-60335623D01*
X169030552Y-60333770D01*
X169021362Y-60331600D01*
X169016599Y-60331226D01*
X168864957Y-60307208D01*
X168845489Y-60304124D01*
X168816290Y-60299500D01*
X168816287Y-60299500D01*
X168603713Y-60299500D01*
X168603709Y-60299500D01*
X168564776Y-60305666D01*
X168555042Y-60307208D01*
X168517654Y-60313129D01*
X168393763Y-60332752D01*
X168191582Y-60398445D01*
X168002182Y-60494949D01*
X168002179Y-60494950D01*
X168002179Y-60494951D01*
X168001589Y-60495380D01*
X167830210Y-60619892D01*
X167679892Y-60770210D01*
X167679890Y-60770213D01*
X167554952Y-60942179D01*
X167554945Y-60942188D01*
X167554634Y-60942696D01*
X167553499Y-60944177D01*
X167552085Y-60946125D01*
X167552036Y-60946089D01*
X167539060Y-60963041D01*
X167529353Y-60973319D01*
X167469011Y-61008542D01*
X167399205Y-61005550D01*
X167345488Y-60969378D01*
X167339285Y-60962219D01*
X167327274Y-60945811D01*
X167325053Y-60942187D01*
X167325051Y-60942184D01*
X167325050Y-60942182D01*
X167200109Y-60770213D01*
X167049786Y-60619890D01*
X166877820Y-60494951D01*
X166774781Y-60442450D01*
X166710245Y-60409567D01*
X166710240Y-60409565D01*
X166688414Y-60398444D01*
X166688413Y-60398443D01*
X166688412Y-60398443D01*
X166591550Y-60366970D01*
X166495074Y-60335623D01*
X166490552Y-60333770D01*
X166481362Y-60331600D01*
X166476599Y-60331226D01*
X166324957Y-60307208D01*
X166305489Y-60304124D01*
X166276290Y-60299500D01*
X166276287Y-60299500D01*
X166063713Y-60299500D01*
X166063709Y-60299500D01*
X166024776Y-60305666D01*
X166015042Y-60307208D01*
X165977654Y-60313129D01*
X165853763Y-60332752D01*
X165651582Y-60398445D01*
X165462182Y-60494949D01*
X165462179Y-60494950D01*
X165462179Y-60494951D01*
X165461589Y-60495380D01*
X165290210Y-60619892D01*
X165139892Y-60770210D01*
X165139890Y-60770213D01*
X165014952Y-60942179D01*
X165014945Y-60942188D01*
X165014634Y-60942696D01*
X165013499Y-60944177D01*
X165012085Y-60946125D01*
X165012036Y-60946089D01*
X164999060Y-60963041D01*
X164989353Y-60973319D01*
X164929011Y-61008542D01*
X164859205Y-61005550D01*
X164805488Y-60969378D01*
X164799285Y-60962219D01*
X164787274Y-60945811D01*
X164785053Y-60942187D01*
X164785051Y-60942184D01*
X164785050Y-60942182D01*
X164660109Y-60770213D01*
X164509786Y-60619890D01*
X164337820Y-60494951D01*
X164234781Y-60442450D01*
X164170245Y-60409567D01*
X164170240Y-60409565D01*
X164148414Y-60398444D01*
X164148413Y-60398443D01*
X164148412Y-60398443D01*
X164051550Y-60366970D01*
X163955074Y-60335623D01*
X163950552Y-60333770D01*
X163941362Y-60331600D01*
X163936599Y-60331226D01*
X163784957Y-60307208D01*
X163765489Y-60304124D01*
X163736290Y-60299500D01*
X163736287Y-60299500D01*
X163523713Y-60299500D01*
X163523709Y-60299500D01*
X163484776Y-60305666D01*
X163475042Y-60307208D01*
X163437654Y-60313129D01*
X163313763Y-60332752D01*
X163111582Y-60398445D01*
X162922182Y-60494949D01*
X162922179Y-60494950D01*
X162922179Y-60494951D01*
X162921589Y-60495380D01*
X162750210Y-60619892D01*
X162599892Y-60770210D01*
X162599890Y-60770213D01*
X162474952Y-60942179D01*
X162474945Y-60942188D01*
X162474634Y-60942696D01*
X162473499Y-60944177D01*
X162472085Y-60946125D01*
X162472036Y-60946089D01*
X162459060Y-60963041D01*
X162449353Y-60973319D01*
X162389011Y-61008542D01*
X162319205Y-61005550D01*
X162265488Y-60969378D01*
X162259285Y-60962219D01*
X162247274Y-60945811D01*
X162245053Y-60942187D01*
X162245051Y-60942184D01*
X162245050Y-60942182D01*
X162120109Y-60770213D01*
X161969786Y-60619890D01*
X161797820Y-60494951D01*
X161694781Y-60442450D01*
X161630245Y-60409567D01*
X161630240Y-60409565D01*
X161608414Y-60398444D01*
X161608413Y-60398443D01*
X161608412Y-60398443D01*
X161511550Y-60366970D01*
X161415074Y-60335623D01*
X161410552Y-60333770D01*
X161401362Y-60331600D01*
X161396599Y-60331226D01*
X161244957Y-60307208D01*
X161225489Y-60304124D01*
X161196290Y-60299500D01*
X161196287Y-60299500D01*
X160983713Y-60299500D01*
X160983709Y-60299500D01*
X160944776Y-60305666D01*
X160935042Y-60307208D01*
X160897654Y-60313129D01*
X160773763Y-60332752D01*
X160571582Y-60398445D01*
X160382182Y-60494949D01*
X160382179Y-60494950D01*
X160382179Y-60494951D01*
X160381589Y-60495380D01*
X160210210Y-60619892D01*
X160059886Y-60770216D01*
X159934943Y-60942187D01*
X159934188Y-60943421D01*
X159918613Y-60963768D01*
X159909070Y-60973872D01*
X159848728Y-61009094D01*
X159778922Y-61006100D01*
X159725211Y-60969934D01*
X159719107Y-60962890D01*
X159707086Y-60946467D01*
X159704628Y-60942457D01*
X159704626Y-60942452D01*
X159665270Y-60888282D01*
X159665268Y-60888282D01*
X159159702Y-61393849D01*
X159098379Y-61427334D01*
X159028687Y-61422350D01*
X158972754Y-61380478D01*
X158964634Y-61368169D01*
X158950099Y-61342993D01*
X158857007Y-61249901D01*
X158857004Y-61249899D01*
X158857000Y-61249896D01*
X158831828Y-61235363D01*
X158783613Y-61184796D01*
X158770391Y-61116189D01*
X158796359Y-61051324D01*
X158806135Y-61040310D01*
X159311716Y-60534728D01*
X159257550Y-60495375D01*
X159153680Y-60442450D01*
X159068214Y-60398902D01*
X158866130Y-60333242D01*
X158656251Y-60300000D01*
X158656246Y-60300000D01*
X158443754Y-60300000D01*
X158443749Y-60300000D01*
X158243513Y-60331715D01*
X158243505Y-60331715D01*
X158243506Y-60331716D01*
X158233865Y-60333242D01*
X158031784Y-60398903D01*
X157842438Y-60495380D01*
X157788282Y-60534727D01*
X157788282Y-60534728D01*
X158293850Y-61040296D01*
X158327335Y-61101619D01*
X158322351Y-61171311D01*
X158280479Y-61227244D01*
X158268173Y-61235362D01*
X158242996Y-61249898D01*
X158242990Y-61249903D01*
X158149903Y-61342990D01*
X158149898Y-61342996D01*
X158135362Y-61368173D01*
X158084793Y-61416387D01*
X158016185Y-61429607D01*
X157951322Y-61403637D01*
X157940296Y-61393850D01*
X157434728Y-60888282D01*
X157434727Y-60888282D01*
X157395379Y-60942440D01*
X157393368Y-60945458D01*
X157393066Y-60945256D01*
X157379233Y-60963707D01*
X157369622Y-60973881D01*
X157309276Y-61009096D01*
X157239471Y-61006096D01*
X157185760Y-60969921D01*
X157179682Y-60962905D01*
X157167425Y-60946091D01*
X157165568Y-60943034D01*
X157165100Y-60942249D01*
X157040112Y-60770216D01*
X156889788Y-60619892D01*
X156889786Y-60619890D01*
X156717820Y-60494951D01*
X156614781Y-60442450D01*
X156550245Y-60409567D01*
X156550240Y-60409565D01*
X156528414Y-60398444D01*
X156528413Y-60398443D01*
X156528412Y-60398443D01*
X156431550Y-60366970D01*
X156335074Y-60335623D01*
X156330552Y-60333770D01*
X156321362Y-60331600D01*
X156316599Y-60331226D01*
X156164957Y-60307208D01*
X156145489Y-60304124D01*
X156116290Y-60299500D01*
X156116287Y-60299500D01*
X155903713Y-60299500D01*
X155903709Y-60299500D01*
X155864776Y-60305666D01*
X155855042Y-60307208D01*
X155817654Y-60313129D01*
X155693763Y-60332752D01*
X155491582Y-60398445D01*
X155302182Y-60494949D01*
X155302179Y-60494950D01*
X155302179Y-60494951D01*
X155301589Y-60495380D01*
X155130218Y-60619886D01*
X155029281Y-60720823D01*
X155029279Y-60720824D01*
X155029279Y-60720825D01*
X155001024Y-60741975D01*
X154988841Y-60748627D01*
X154920568Y-60763477D01*
X154855104Y-60739058D01*
X154855105Y-60739058D01*
X154853412Y-60737791D01*
X154851414Y-60736295D01*
X154809563Y-60680376D01*
X154804109Y-60665755D01*
X154763797Y-60557671D01*
X154763793Y-60557664D01*
X154677547Y-60442455D01*
X154677544Y-60442452D01*
X154677542Y-60442450D01*
X154608641Y-60390871D01*
X154562335Y-60356206D01*
X154562332Y-60356204D01*
X154562330Y-60356203D01*
X154562328Y-60356202D01*
X154427482Y-60305908D01*
X154427483Y-60305908D01*
X154367883Y-60299501D01*
X154367881Y-60299500D01*
X154367873Y-60299500D01*
X154367864Y-60299500D01*
X154366841Y-60299500D01*
X152572123Y-60299500D01*
X152570192Y-60299659D01*
X152568545Y-60299885D01*
X152512516Y-60305908D01*
X152377666Y-60356204D01*
X152377665Y-60356205D01*
X152262456Y-60442450D01*
X152262450Y-60442456D01*
X152176205Y-60557665D01*
X152176203Y-60557668D01*
X152125907Y-60692516D01*
X152119501Y-60752116D01*
X152119500Y-60752139D01*
X143150500Y-60752139D01*
X143150500Y-47395400D01*
X205602981Y-47395400D01*
X205602981Y-47607893D01*
X205628391Y-47768325D01*
X205634696Y-47808132D01*
X205634697Y-47808140D01*
X205636223Y-47817780D01*
X205684659Y-47966849D01*
X205701885Y-48019864D01*
X205759026Y-48132008D01*
X205798355Y-48209195D01*
X205798356Y-48209197D01*
X205833655Y-48257784D01*
X205837709Y-48263363D01*
X206343278Y-47757794D01*
X206404600Y-47724310D01*
X206474292Y-47729294D01*
X206530225Y-47771166D01*
X206538344Y-47783475D01*
X206552877Y-47808647D01*
X206552880Y-47808651D01*
X206552882Y-47808654D01*
X206645974Y-47901746D01*
X206671150Y-47916281D01*
X206719365Y-47966847D01*
X206732589Y-48035454D01*
X206706621Y-48100319D01*
X206696831Y-48111349D01*
X206222952Y-48585228D01*
X206222951Y-48585228D01*
X206291754Y-48687737D01*
X206300059Y-48702102D01*
X206302266Y-48706588D01*
X206303284Y-48712462D01*
X206306367Y-48719731D01*
X206307045Y-48719518D01*
X206307657Y-48721457D01*
X206307164Y-48721612D01*
X206311365Y-48731516D01*
X206313790Y-48741307D01*
X206312873Y-48741533D01*
X206312555Y-48765960D01*
X206314197Y-48775431D01*
X206312376Y-48779742D01*
X206312010Y-48807854D01*
X206274707Y-48865079D01*
X206266467Y-48872220D01*
X206249185Y-48883868D01*
X206249565Y-48884488D01*
X206245415Y-48887030D01*
X206191263Y-48926373D01*
X206191262Y-48926374D01*
X206696831Y-49431943D01*
X206730316Y-49493266D01*
X206725332Y-49562958D01*
X206683460Y-49618891D01*
X206671154Y-49627009D01*
X206645977Y-49641545D01*
X206645971Y-49641550D01*
X206552884Y-49734637D01*
X206552879Y-49734643D01*
X206538343Y-49759820D01*
X206487774Y-49808034D01*
X206419166Y-49821254D01*
X206354303Y-49795284D01*
X206343277Y-49785497D01*
X205837709Y-49279929D01*
X205837708Y-49279929D01*
X205798361Y-49334085D01*
X205701884Y-49523431D01*
X205636223Y-49725512D01*
X205634779Y-49734637D01*
X205602981Y-49935400D01*
X205602981Y-50147893D01*
X205628841Y-50311166D01*
X205634696Y-50348132D01*
X205634697Y-50348140D01*
X205636223Y-50357780D01*
X205684894Y-50507572D01*
X205701885Y-50559864D01*
X205798356Y-50749197D01*
X205837709Y-50803363D01*
X206343278Y-50297794D01*
X206404600Y-50264310D01*
X206474292Y-50269294D01*
X206530225Y-50311166D01*
X206538344Y-50323475D01*
X206552877Y-50348647D01*
X206552880Y-50348651D01*
X206552882Y-50348654D01*
X206645974Y-50441746D01*
X206671150Y-50456281D01*
X206719365Y-50506847D01*
X206732589Y-50575454D01*
X206706621Y-50640319D01*
X206696831Y-50651349D01*
X206222952Y-51125228D01*
X206222951Y-51125228D01*
X206291754Y-51227737D01*
X206300059Y-51242102D01*
X206302266Y-51246588D01*
X206303284Y-51252462D01*
X206306367Y-51259731D01*
X206307045Y-51259518D01*
X206307657Y-51261457D01*
X206307164Y-51261612D01*
X206311365Y-51271516D01*
X206313790Y-51281307D01*
X206312873Y-51281533D01*
X206312555Y-51305960D01*
X206314197Y-51315431D01*
X206312376Y-51319742D01*
X206312010Y-51347854D01*
X206274707Y-51405079D01*
X206266467Y-51412220D01*
X206249185Y-51423868D01*
X206249565Y-51424488D01*
X206245415Y-51427030D01*
X206191263Y-51466373D01*
X206191262Y-51466374D01*
X206696831Y-51971943D01*
X206730316Y-52033266D01*
X206725332Y-52102958D01*
X206683460Y-52158891D01*
X206671154Y-52167009D01*
X206645977Y-52181545D01*
X206645971Y-52181550D01*
X206552884Y-52274637D01*
X206552879Y-52274643D01*
X206538343Y-52299820D01*
X206487774Y-52348034D01*
X206419166Y-52361254D01*
X206354303Y-52335284D01*
X206343277Y-52325497D01*
X205837709Y-51819929D01*
X205837708Y-51819929D01*
X205798361Y-51874085D01*
X205701884Y-52063431D01*
X205636223Y-52265512D01*
X205634779Y-52274637D01*
X205602981Y-52475400D01*
X205602981Y-52687893D01*
X205628841Y-52851166D01*
X205634696Y-52888132D01*
X205634697Y-52888140D01*
X205636223Y-52897780D01*
X205684894Y-53047572D01*
X205701885Y-53099864D01*
X205798356Y-53289197D01*
X205837709Y-53343363D01*
X206343278Y-52837794D01*
X206404600Y-52804310D01*
X206474292Y-52809294D01*
X206530225Y-52851166D01*
X206538344Y-52863475D01*
X206552877Y-52888647D01*
X206552880Y-52888651D01*
X206552882Y-52888654D01*
X206645974Y-52981746D01*
X206671150Y-52996281D01*
X206719365Y-53046847D01*
X206732589Y-53115454D01*
X206706621Y-53180319D01*
X206696831Y-53191349D01*
X206222952Y-53665228D01*
X206222951Y-53665228D01*
X206291754Y-53767737D01*
X206300059Y-53782102D01*
X206302266Y-53786588D01*
X206303284Y-53792462D01*
X206306367Y-53799731D01*
X206307045Y-53799518D01*
X206307657Y-53801457D01*
X206307164Y-53801612D01*
X206311365Y-53811516D01*
X206313790Y-53821307D01*
X206312873Y-53821533D01*
X206312555Y-53845960D01*
X206314197Y-53855431D01*
X206312376Y-53859742D01*
X206312010Y-53887854D01*
X206274707Y-53945079D01*
X206266467Y-53952220D01*
X206249185Y-53963868D01*
X206249565Y-53964488D01*
X206245415Y-53967030D01*
X206191263Y-54006373D01*
X206191262Y-54006374D01*
X206696831Y-54511943D01*
X206730316Y-54573266D01*
X206725332Y-54642958D01*
X206683460Y-54698891D01*
X206671154Y-54707009D01*
X206645977Y-54721545D01*
X206645971Y-54721550D01*
X206552884Y-54814637D01*
X206552879Y-54814643D01*
X206538343Y-54839820D01*
X206487774Y-54888034D01*
X206419166Y-54901254D01*
X206354303Y-54875284D01*
X206343277Y-54865497D01*
X205837709Y-54359929D01*
X205837708Y-54359929D01*
X205798361Y-54414085D01*
X205701884Y-54603431D01*
X205636223Y-54805512D01*
X205634779Y-54814637D01*
X205602981Y-55015400D01*
X205602981Y-55227893D01*
X205628841Y-55391166D01*
X205634696Y-55428132D01*
X205634697Y-55428140D01*
X205636223Y-55437780D01*
X205684894Y-55587572D01*
X205701885Y-55639864D01*
X205765923Y-55765544D01*
X205798355Y-55829195D01*
X205798356Y-55829197D01*
X205821355Y-55860854D01*
X205837709Y-55883363D01*
X206343278Y-55377794D01*
X206404600Y-55344310D01*
X206474292Y-55349294D01*
X206530225Y-55391166D01*
X206538344Y-55403475D01*
X206552877Y-55428647D01*
X206552880Y-55428651D01*
X206552882Y-55428654D01*
X206645974Y-55521746D01*
X206671150Y-55536281D01*
X206719365Y-55586847D01*
X206732589Y-55655454D01*
X206706621Y-55720319D01*
X206696831Y-55731349D01*
X206222952Y-56205228D01*
X206222951Y-56205228D01*
X206291754Y-56307737D01*
X206300059Y-56322102D01*
X206302266Y-56326588D01*
X206303284Y-56332462D01*
X206306367Y-56339731D01*
X206307045Y-56339518D01*
X206307657Y-56341457D01*
X206307164Y-56341612D01*
X206311365Y-56351516D01*
X206313790Y-56361307D01*
X206312873Y-56361533D01*
X206312555Y-56385960D01*
X206314197Y-56395431D01*
X206312376Y-56399742D01*
X206312010Y-56427854D01*
X206274707Y-56485079D01*
X206266467Y-56492220D01*
X206249185Y-56503868D01*
X206249565Y-56504488D01*
X206245415Y-56507030D01*
X206191263Y-56546373D01*
X206191262Y-56546374D01*
X206696831Y-57051943D01*
X206730316Y-57113266D01*
X206725332Y-57182958D01*
X206683460Y-57238891D01*
X206671154Y-57247009D01*
X206645977Y-57261545D01*
X206645971Y-57261550D01*
X206552884Y-57354637D01*
X206552879Y-57354643D01*
X206538343Y-57379820D01*
X206487774Y-57428034D01*
X206419166Y-57441254D01*
X206354303Y-57415284D01*
X206343277Y-57405497D01*
X205837709Y-56899929D01*
X205837708Y-56899929D01*
X205798361Y-56954085D01*
X205701884Y-57143431D01*
X205636223Y-57345512D01*
X205634779Y-57354637D01*
X205602981Y-57555400D01*
X205602981Y-57767893D01*
X205628841Y-57931166D01*
X205634696Y-57968132D01*
X205634697Y-57968140D01*
X205636223Y-57977780D01*
X205670867Y-58084401D01*
X205701885Y-58179864D01*
X205798356Y-58369197D01*
X205837709Y-58423363D01*
X206343278Y-57917794D01*
X206404600Y-57884310D01*
X206474292Y-57889294D01*
X206530225Y-57931166D01*
X206538344Y-57943475D01*
X206552877Y-57968647D01*
X206552880Y-57968651D01*
X206552882Y-57968654D01*
X206645974Y-58061746D01*
X206671150Y-58076281D01*
X206719365Y-58126849D01*
X206732587Y-58195456D01*
X206706619Y-58260320D01*
X206696830Y-58271349D01*
X206191263Y-58776915D01*
X206191263Y-58776916D01*
X206191263Y-58776917D01*
X206245430Y-58816271D01*
X206434763Y-58912742D01*
X206434765Y-58912743D01*
X206636847Y-58978403D01*
X206636848Y-58978403D01*
X206636851Y-58978404D01*
X206846735Y-59011647D01*
X207059226Y-59011647D01*
X207059227Y-59011647D01*
X207172031Y-58993779D01*
X207259468Y-58979931D01*
X207259474Y-58979930D01*
X207269108Y-58978404D01*
X207269111Y-58978404D01*
X207471198Y-58912742D01*
X207660535Y-58816269D01*
X207662957Y-58814509D01*
X207682102Y-58800600D01*
X207708839Y-58791059D01*
X207714698Y-58776916D01*
X207209130Y-58271349D01*
X207175645Y-58210026D01*
X207180629Y-58140335D01*
X207222500Y-58084401D01*
X207234803Y-58076286D01*
X207259988Y-58061746D01*
X207353080Y-57968654D01*
X207367615Y-57943477D01*
X207418180Y-57895263D01*
X207486786Y-57882038D01*
X207551652Y-57908005D01*
X207562682Y-57917795D01*
X208093555Y-58448668D01*
X208114704Y-58476919D01*
X208127312Y-58500008D01*
X208141788Y-58556723D01*
X208142353Y-58556698D01*
X208142476Y-58559419D01*
X208142481Y-58559437D01*
X208142481Y-58559510D01*
X208142484Y-58559546D01*
X208148888Y-58619128D01*
X208148889Y-58619130D01*
X208199183Y-58753975D01*
X208199187Y-58753982D01*
X208242067Y-58811263D01*
X208285431Y-58869189D01*
X208285433Y-58869191D01*
X208285436Y-58869194D01*
X208400645Y-58955440D01*
X208400652Y-58955444D01*
X208535498Y-59005738D01*
X208535497Y-59005738D01*
X208542425Y-59006482D01*
X208595108Y-59012147D01*
X210390853Y-59012146D01*
X210450464Y-59005738D01*
X210585312Y-58955443D01*
X210700527Y-58869193D01*
X210786777Y-58753978D01*
X210837072Y-58619130D01*
X210843481Y-58559520D01*
X210843480Y-56763775D01*
X210837072Y-56704164D01*
X210786777Y-56569316D01*
X210786776Y-56569315D01*
X210786774Y-56569311D01*
X210786763Y-56569296D01*
X210784373Y-56565576D01*
X210784372Y-56565575D01*
X210781470Y-56562226D01*
X210700528Y-56454102D01*
X210700525Y-56454099D01*
X210700523Y-56454097D01*
X210618981Y-56393055D01*
X210585316Y-56367853D01*
X210585313Y-56367851D01*
X210585311Y-56367850D01*
X210585309Y-56367849D01*
X210481519Y-56329138D01*
X210470602Y-56325066D01*
X210439623Y-56308149D01*
X210428512Y-56299831D01*
X210386642Y-56243897D01*
X210381659Y-56174208D01*
X210382635Y-56169719D01*
X210416117Y-56108405D01*
X210523085Y-56001439D01*
X210648032Y-55829463D01*
X210744538Y-55640059D01*
X210810227Y-55437890D01*
X210843481Y-55227934D01*
X210843481Y-55015360D01*
X210810227Y-54805404D01*
X210744538Y-54603235D01*
X210648032Y-54413831D01*
X210648030Y-54413828D01*
X210648029Y-54413826D01*
X210647683Y-54413350D01*
X210647681Y-54413346D01*
X210523093Y-54241863D01*
X210372763Y-54091533D01*
X210200805Y-53966600D01*
X210200239Y-53966253D01*
X210198608Y-53965004D01*
X210196882Y-53963750D01*
X210196913Y-53963706D01*
X210179941Y-53950709D01*
X210169664Y-53941004D01*
X210134438Y-53880664D01*
X210137426Y-53810859D01*
X210137428Y-53810856D01*
X210173593Y-53757142D01*
X210180764Y-53750928D01*
X210197175Y-53738916D01*
X210200778Y-53736707D01*
X210200797Y-53736698D01*
X210299168Y-53665228D01*
X210372767Y-53611756D01*
X210372768Y-53611753D01*
X210372771Y-53611752D01*
X210372773Y-53611751D01*
X210372774Y-53611749D01*
X210372828Y-53611710D01*
X210373586Y-53610937D01*
X210523085Y-53461439D01*
X210523087Y-53461435D01*
X210523090Y-53461433D01*
X210648029Y-53289467D01*
X210648031Y-53289464D01*
X210648032Y-53289463D01*
X210744538Y-53100059D01*
X210810227Y-52897890D01*
X210843481Y-52687934D01*
X210843481Y-52475360D01*
X210810227Y-52265404D01*
X210744538Y-52063235D01*
X210648032Y-51873831D01*
X210648030Y-51873828D01*
X210648029Y-51873826D01*
X210647683Y-51873350D01*
X210647681Y-51873346D01*
X210523093Y-51701863D01*
X210372763Y-51551533D01*
X210200805Y-51426600D01*
X210200239Y-51426253D01*
X210198608Y-51425004D01*
X210196882Y-51423750D01*
X210196913Y-51423706D01*
X210179941Y-51410709D01*
X210169664Y-51401004D01*
X210134438Y-51340664D01*
X210137426Y-51270859D01*
X210137428Y-51270856D01*
X210173593Y-51217142D01*
X210180764Y-51210928D01*
X210197175Y-51198916D01*
X210200778Y-51196707D01*
X210200797Y-51196698D01*
X210299168Y-51125228D01*
X210372767Y-51071756D01*
X210372768Y-51071753D01*
X210372771Y-51071752D01*
X210372773Y-51071751D01*
X210372774Y-51071749D01*
X210372828Y-51071710D01*
X210373586Y-51070937D01*
X210523085Y-50921439D01*
X210523087Y-50921435D01*
X210523090Y-50921433D01*
X210648029Y-50749467D01*
X210648031Y-50749464D01*
X210648032Y-50749463D01*
X210744538Y-50560059D01*
X210810227Y-50357890D01*
X210843481Y-50147934D01*
X210843481Y-49935360D01*
X210810227Y-49725404D01*
X210744538Y-49523235D01*
X210648032Y-49333831D01*
X210648030Y-49333828D01*
X210648029Y-49333826D01*
X210647683Y-49333350D01*
X210647681Y-49333346D01*
X210523093Y-49161863D01*
X210372769Y-49011539D01*
X210372767Y-49011537D01*
X210200798Y-48886596D01*
X210200793Y-48886593D01*
X210199565Y-48885841D01*
X210179223Y-48870271D01*
X210169108Y-48860718D01*
X210133887Y-48800381D01*
X210136877Y-48730576D01*
X210173047Y-48676857D01*
X210180103Y-48670743D01*
X210196518Y-48658730D01*
X210200523Y-48656275D01*
X210200536Y-48656269D01*
X210222100Y-48640600D01*
X210248839Y-48631059D01*
X210254698Y-48616916D01*
X209749130Y-48111349D01*
X209715645Y-48050026D01*
X209720629Y-47980335D01*
X209762500Y-47924401D01*
X209774803Y-47916286D01*
X209799988Y-47901746D01*
X209893080Y-47808654D01*
X209907615Y-47783477D01*
X209958180Y-47735263D01*
X210026786Y-47722038D01*
X210091652Y-47748005D01*
X210102683Y-47757796D01*
X210608250Y-48263364D01*
X210608250Y-48263363D01*
X210608251Y-48263364D01*
X210608251Y-48263363D01*
X210621719Y-48257784D01*
X210627936Y-48236614D01*
X210631935Y-48230765D01*
X210647602Y-48209202D01*
X210649724Y-48205038D01*
X210744076Y-48019864D01*
X210809738Y-47817777D01*
X210809738Y-47817774D01*
X210842981Y-47607893D01*
X210842981Y-47395400D01*
X210829241Y-47308654D01*
X210811265Y-47195158D01*
X210811264Y-47195152D01*
X210811264Y-47195153D01*
X210809737Y-47185512D01*
X210782454Y-47101545D01*
X210744076Y-46983429D01*
X210647605Y-46794096D01*
X210608251Y-46739929D01*
X210608250Y-46739929D01*
X210608249Y-46739929D01*
X210102683Y-47245496D01*
X210041360Y-47278981D01*
X209971668Y-47273997D01*
X209915735Y-47232125D01*
X209907615Y-47219816D01*
X209893080Y-47194640D01*
X209799988Y-47101548D01*
X209799985Y-47101546D01*
X209799981Y-47101543D01*
X209774809Y-47087010D01*
X209726594Y-47036443D01*
X209713372Y-46967836D01*
X209739340Y-46902971D01*
X209749116Y-46891957D01*
X210254697Y-46386375D01*
X210200531Y-46347022D01*
X210193170Y-46343271D01*
X210011195Y-46250549D01*
X209809111Y-46184889D01*
X209599232Y-46151647D01*
X209599227Y-46151647D01*
X209386735Y-46151647D01*
X209386730Y-46151647D01*
X209186494Y-46183362D01*
X209186486Y-46183362D01*
X209186487Y-46183363D01*
X209176846Y-46184889D01*
X208974765Y-46250550D01*
X208785419Y-46347027D01*
X208731263Y-46386374D01*
X208731263Y-46386375D01*
X209236831Y-46891943D01*
X209270316Y-46953266D01*
X209265332Y-47022958D01*
X209223460Y-47078891D01*
X209211154Y-47087009D01*
X209185977Y-47101545D01*
X209185971Y-47101550D01*
X209092884Y-47194637D01*
X209092879Y-47194643D01*
X209078343Y-47219820D01*
X209027774Y-47268034D01*
X208959166Y-47281254D01*
X208894303Y-47255284D01*
X208883277Y-47245497D01*
X208377709Y-46739929D01*
X208377708Y-46739929D01*
X208338357Y-46794090D01*
X208337367Y-46795707D01*
X208321791Y-46816055D01*
X208312331Y-46826071D01*
X208251988Y-46861293D01*
X208182182Y-46858299D01*
X208128473Y-46822133D01*
X208122396Y-46815119D01*
X208110795Y-46797863D01*
X208110155Y-46798256D01*
X208107611Y-46794105D01*
X208107604Y-46794096D01*
X208068251Y-46739929D01*
X208068249Y-46739929D01*
X207562683Y-47245496D01*
X207501360Y-47278981D01*
X207431668Y-47273997D01*
X207375735Y-47232125D01*
X207367615Y-47219816D01*
X207353080Y-47194640D01*
X207259988Y-47101548D01*
X207259985Y-47101546D01*
X207259981Y-47101543D01*
X207234809Y-47087010D01*
X207186594Y-47036443D01*
X207173372Y-46967836D01*
X207199340Y-46902971D01*
X207209116Y-46891957D01*
X207714697Y-46386375D01*
X207660531Y-46347022D01*
X207653170Y-46343271D01*
X207471195Y-46250549D01*
X207269111Y-46184889D01*
X207059232Y-46151647D01*
X207059227Y-46151647D01*
X206846735Y-46151647D01*
X206846730Y-46151647D01*
X206646494Y-46183362D01*
X206646486Y-46183362D01*
X206646487Y-46183363D01*
X206636846Y-46184889D01*
X206434765Y-46250550D01*
X206245419Y-46347027D01*
X206191263Y-46386374D01*
X206191263Y-46386375D01*
X206696831Y-46891943D01*
X206730316Y-46953266D01*
X206725332Y-47022958D01*
X206683460Y-47078891D01*
X206671154Y-47087009D01*
X206645977Y-47101545D01*
X206645971Y-47101550D01*
X206552884Y-47194637D01*
X206552879Y-47194643D01*
X206538343Y-47219820D01*
X206487774Y-47268034D01*
X206419166Y-47281254D01*
X206354303Y-47255284D01*
X206343277Y-47245497D01*
X205837709Y-46739929D01*
X205837708Y-46739929D01*
X205798361Y-46794085D01*
X205701884Y-46983431D01*
X205636223Y-47185512D01*
X205634779Y-47194637D01*
X205602981Y-47395400D01*
X143150500Y-47395400D01*
X143150500Y-42502139D01*
X152109500Y-42502139D01*
X152109500Y-44297876D01*
X152109659Y-44299806D01*
X152109885Y-44301454D01*
X152115907Y-44357482D01*
X152142670Y-44429235D01*
X152166202Y-44492328D01*
X152166206Y-44492335D01*
X152209086Y-44549616D01*
X152252450Y-44607542D01*
X152252452Y-44607544D01*
X152252455Y-44607547D01*
X152367664Y-44693793D01*
X152367671Y-44693797D01*
X152502517Y-44744091D01*
X152502516Y-44744091D01*
X152509444Y-44744835D01*
X152562127Y-44750500D01*
X154357872Y-44750499D01*
X154417483Y-44744091D01*
X154552331Y-44693796D01*
X154667546Y-44607546D01*
X154753796Y-44492331D01*
X154796580Y-44377618D01*
X154813490Y-44346649D01*
X154821811Y-44335533D01*
X154877741Y-44293663D01*
X154947424Y-44288675D01*
X154951909Y-44289650D01*
X155013234Y-44323130D01*
X155120216Y-44430112D01*
X155292169Y-44555042D01*
X155292200Y-44555060D01*
X155292442Y-44555182D01*
X155481588Y-44651557D01*
X155683757Y-44717246D01*
X155893713Y-44750500D01*
X155893714Y-44750500D01*
X156106286Y-44750500D01*
X156106287Y-44750500D01*
X156316243Y-44717246D01*
X156518412Y-44651557D01*
X156707816Y-44555051D01*
X156794138Y-44492335D01*
X156879786Y-44430109D01*
X156879788Y-44430106D01*
X156879792Y-44430104D01*
X156879799Y-44430096D01*
X156879849Y-44430061D01*
X156880605Y-44429290D01*
X157030104Y-44279792D01*
X157030106Y-44279788D01*
X157030109Y-44279786D01*
X157115890Y-44161717D01*
X157155051Y-44107816D01*
X157156342Y-44105281D01*
X157160750Y-44099133D01*
X157162638Y-44097657D01*
X157171370Y-44086249D01*
X157176693Y-44080612D01*
X157180918Y-44076137D01*
X157241253Y-44040909D01*
X157311059Y-44043892D01*
X157364789Y-44080067D01*
X157370890Y-44087108D01*
X157382900Y-44103514D01*
X157385367Y-44107540D01*
X157424727Y-44161715D01*
X157424728Y-44161716D01*
X157930297Y-43656147D01*
X157991619Y-43622663D01*
X158061311Y-43627647D01*
X158117244Y-43669519D01*
X158125363Y-43681828D01*
X158139896Y-43707000D01*
X158139899Y-43707004D01*
X158139901Y-43707007D01*
X158232993Y-43800099D01*
X158258169Y-43814634D01*
X158306384Y-43865202D01*
X158319606Y-43933809D01*
X158293638Y-43998673D01*
X158283849Y-44009702D01*
X157778282Y-44515268D01*
X157778282Y-44515269D01*
X157778282Y-44515270D01*
X157832449Y-44554624D01*
X158021782Y-44651095D01*
X158021784Y-44651096D01*
X158223866Y-44716756D01*
X158223867Y-44716756D01*
X158223870Y-44716757D01*
X158433754Y-44750000D01*
X158646245Y-44750000D01*
X158646246Y-44750000D01*
X158759050Y-44732132D01*
X158846487Y-44718284D01*
X158846493Y-44718283D01*
X158856127Y-44716757D01*
X158856130Y-44716757D01*
X159058217Y-44651095D01*
X159247554Y-44554622D01*
X159249976Y-44552862D01*
X159269121Y-44538953D01*
X159295858Y-44529412D01*
X159301717Y-44515269D01*
X158796149Y-44009702D01*
X158762664Y-43948379D01*
X158767648Y-43878688D01*
X158809519Y-43822754D01*
X158821822Y-43814639D01*
X158847007Y-43800099D01*
X158940099Y-43707007D01*
X158954634Y-43681830D01*
X159005199Y-43633616D01*
X159073805Y-43620391D01*
X159138671Y-43646358D01*
X159149702Y-43656149D01*
X159655269Y-44161717D01*
X159655269Y-44161716D01*
X159655270Y-44161717D01*
X159655270Y-44161716D01*
X159663859Y-44158158D01*
X159673710Y-44139207D01*
X159674955Y-44134968D01*
X159678057Y-44130369D01*
X159678474Y-44129779D01*
X159694622Y-44107555D01*
X159695694Y-44105450D01*
X159699676Y-44099825D01*
X159701521Y-44098365D01*
X159710733Y-44086327D01*
X159720363Y-44076131D01*
X159780703Y-44040907D01*
X159850508Y-44043897D01*
X159904227Y-44080066D01*
X159910297Y-44087071D01*
X159921752Y-44104056D01*
X159922401Y-44103659D01*
X159924944Y-44107809D01*
X159924947Y-44107813D01*
X159924949Y-44107817D01*
X160049890Y-44279786D01*
X160049892Y-44279788D01*
X160200216Y-44430112D01*
X160372169Y-44555042D01*
X160372200Y-44555060D01*
X160372442Y-44555182D01*
X160561588Y-44651557D01*
X160763757Y-44717246D01*
X160973713Y-44750500D01*
X160973714Y-44750500D01*
X161186286Y-44750500D01*
X161186287Y-44750500D01*
X161396243Y-44717246D01*
X161598412Y-44651557D01*
X161787816Y-44555051D01*
X161874138Y-44492335D01*
X161959786Y-44430109D01*
X161959788Y-44430106D01*
X161959792Y-44430104D01*
X161959799Y-44430096D01*
X161959849Y-44430061D01*
X161960605Y-44429290D01*
X162110104Y-44279792D01*
X162110106Y-44279788D01*
X162110109Y-44279786D01*
X162235048Y-44107820D01*
X162237910Y-44103880D01*
X162237910Y-44103879D01*
X162243065Y-44096784D01*
X162253229Y-44084531D01*
X162260647Y-44076678D01*
X162320985Y-44041457D01*
X162390791Y-44044447D01*
X162444503Y-44080612D01*
X162450707Y-44087771D01*
X162462729Y-44104193D01*
X162464949Y-44107817D01*
X162464951Y-44107820D01*
X162589890Y-44279786D01*
X162589892Y-44279788D01*
X162740216Y-44430112D01*
X162912169Y-44555042D01*
X162912200Y-44555060D01*
X162912442Y-44555182D01*
X163101588Y-44651557D01*
X163303757Y-44717246D01*
X163513713Y-44750500D01*
X163513714Y-44750500D01*
X163726286Y-44750500D01*
X163726287Y-44750500D01*
X163936243Y-44717246D01*
X164138412Y-44651557D01*
X164327816Y-44555051D01*
X164414138Y-44492335D01*
X164499786Y-44430109D01*
X164499788Y-44430106D01*
X164499792Y-44430104D01*
X164499799Y-44430096D01*
X164499849Y-44430061D01*
X164500605Y-44429290D01*
X164650104Y-44279792D01*
X164650106Y-44279788D01*
X164650109Y-44279786D01*
X164775048Y-44107820D01*
X164777910Y-44103880D01*
X164777910Y-44103879D01*
X164783065Y-44096784D01*
X164793229Y-44084531D01*
X164800647Y-44076678D01*
X164860985Y-44041457D01*
X164930791Y-44044447D01*
X164984503Y-44080612D01*
X164990707Y-44087771D01*
X165002729Y-44104193D01*
X165004949Y-44107817D01*
X165004951Y-44107820D01*
X165129890Y-44279786D01*
X165129892Y-44279788D01*
X165280216Y-44430112D01*
X165452169Y-44555042D01*
X165452200Y-44555060D01*
X165452442Y-44555182D01*
X165641588Y-44651557D01*
X165843757Y-44717246D01*
X166053713Y-44750500D01*
X166053714Y-44750500D01*
X166266286Y-44750500D01*
X166266287Y-44750500D01*
X166476243Y-44717246D01*
X166678412Y-44651557D01*
X166867816Y-44555051D01*
X166954138Y-44492335D01*
X167039786Y-44430109D01*
X167039788Y-44430106D01*
X167039792Y-44430104D01*
X167039799Y-44430096D01*
X167039849Y-44430061D01*
X167040605Y-44429290D01*
X167190104Y-44279792D01*
X167190106Y-44279788D01*
X167190109Y-44279786D01*
X167315048Y-44107820D01*
X167317910Y-44103880D01*
X167317910Y-44103879D01*
X167323065Y-44096784D01*
X167333229Y-44084531D01*
X167340647Y-44076678D01*
X167400985Y-44041457D01*
X167470791Y-44044447D01*
X167524503Y-44080612D01*
X167530707Y-44087771D01*
X167542729Y-44104193D01*
X167544949Y-44107817D01*
X167544951Y-44107820D01*
X167669890Y-44279786D01*
X167669892Y-44279788D01*
X167820216Y-44430112D01*
X167992169Y-44555042D01*
X167992200Y-44555060D01*
X167992442Y-44555182D01*
X168181588Y-44651557D01*
X168383757Y-44717246D01*
X168593713Y-44750500D01*
X168593714Y-44750500D01*
X168806286Y-44750500D01*
X168806287Y-44750500D01*
X169016243Y-44717246D01*
X169218412Y-44651557D01*
X169407816Y-44555051D01*
X169494138Y-44492335D01*
X169579786Y-44430109D01*
X169579788Y-44430106D01*
X169579792Y-44430104D01*
X169579799Y-44430096D01*
X169579849Y-44430061D01*
X169580605Y-44429290D01*
X169730104Y-44279792D01*
X169730106Y-44279788D01*
X169730109Y-44279786D01*
X169815890Y-44161717D01*
X169855051Y-44107816D01*
X169856342Y-44105281D01*
X169860750Y-44099133D01*
X169862638Y-44097657D01*
X169871370Y-44086249D01*
X169876693Y-44080612D01*
X169880918Y-44076137D01*
X169941253Y-44040909D01*
X170011059Y-44043892D01*
X170064789Y-44080067D01*
X170070890Y-44087108D01*
X170082900Y-44103514D01*
X170085367Y-44107540D01*
X170124727Y-44161715D01*
X170124728Y-44161716D01*
X170630297Y-43656147D01*
X170691619Y-43622663D01*
X170761311Y-43627647D01*
X170817244Y-43669519D01*
X170825363Y-43681828D01*
X170839896Y-43707000D01*
X170839899Y-43707004D01*
X170839901Y-43707007D01*
X170932993Y-43800099D01*
X170958169Y-43814634D01*
X171006384Y-43865202D01*
X171019606Y-43933809D01*
X170993638Y-43998673D01*
X170983849Y-44009702D01*
X170478282Y-44515268D01*
X170478282Y-44515269D01*
X170478282Y-44515270D01*
X170532449Y-44554624D01*
X170721782Y-44651095D01*
X170721784Y-44651096D01*
X170923866Y-44716756D01*
X170923867Y-44716756D01*
X170923870Y-44716757D01*
X171133754Y-44750000D01*
X171346245Y-44750000D01*
X171346246Y-44750000D01*
X171459050Y-44732132D01*
X171546487Y-44718284D01*
X171546493Y-44718283D01*
X171556127Y-44716757D01*
X171556130Y-44716757D01*
X171758217Y-44651095D01*
X171947554Y-44554622D01*
X171949976Y-44552862D01*
X171969121Y-44538953D01*
X171995858Y-44529412D01*
X172001717Y-44515269D01*
X171496149Y-44009702D01*
X171462664Y-43948379D01*
X171467648Y-43878688D01*
X171509519Y-43822754D01*
X171521822Y-43814639D01*
X171547007Y-43800099D01*
X171640099Y-43707007D01*
X171654634Y-43681830D01*
X171705199Y-43633616D01*
X171773805Y-43620391D01*
X171838671Y-43646358D01*
X171849702Y-43656149D01*
X172355269Y-44161717D01*
X172355269Y-44161716D01*
X172355270Y-44161717D01*
X172355270Y-44161716D01*
X172363859Y-44158158D01*
X172373710Y-44139207D01*
X172374955Y-44134968D01*
X172378057Y-44130369D01*
X172378474Y-44129779D01*
X172394622Y-44107555D01*
X172395694Y-44105450D01*
X172399676Y-44099825D01*
X172401521Y-44098365D01*
X172410733Y-44086327D01*
X172420363Y-44076131D01*
X172480703Y-44040907D01*
X172550508Y-44043897D01*
X172604227Y-44080066D01*
X172610297Y-44087071D01*
X172621752Y-44104056D01*
X172622401Y-44103659D01*
X172624944Y-44107809D01*
X172624947Y-44107813D01*
X172624949Y-44107817D01*
X172749890Y-44279786D01*
X172749892Y-44279788D01*
X172900216Y-44430112D01*
X173072169Y-44555042D01*
X173072200Y-44555060D01*
X173072442Y-44555182D01*
X173261588Y-44651557D01*
X173463757Y-44717246D01*
X173673713Y-44750500D01*
X173673714Y-44750500D01*
X173886286Y-44750500D01*
X173886287Y-44750500D01*
X174096243Y-44717246D01*
X174298412Y-44651557D01*
X174487816Y-44555051D01*
X174574138Y-44492335D01*
X174659786Y-44430109D01*
X174659788Y-44430106D01*
X174659792Y-44430104D01*
X174659799Y-44430096D01*
X174659849Y-44430061D01*
X174660605Y-44429290D01*
X174810104Y-44279792D01*
X174810106Y-44279788D01*
X174810109Y-44279786D01*
X174935048Y-44107820D01*
X174937910Y-44103880D01*
X174937910Y-44103879D01*
X174943065Y-44096784D01*
X174953229Y-44084531D01*
X174960647Y-44076678D01*
X175020985Y-44041457D01*
X175090791Y-44044447D01*
X175144503Y-44080612D01*
X175150707Y-44087771D01*
X175162729Y-44104193D01*
X175164949Y-44107817D01*
X175164951Y-44107820D01*
X175289890Y-44279786D01*
X175289892Y-44279788D01*
X175440216Y-44430112D01*
X175612169Y-44555042D01*
X175612200Y-44555060D01*
X175612442Y-44555182D01*
X175801588Y-44651557D01*
X176003757Y-44717246D01*
X176213713Y-44750500D01*
X176213714Y-44750500D01*
X176426286Y-44750500D01*
X176426287Y-44750500D01*
X176636243Y-44717246D01*
X176838412Y-44651557D01*
X177027816Y-44555051D01*
X177114138Y-44492335D01*
X177199786Y-44430109D01*
X177199788Y-44430106D01*
X177199792Y-44430104D01*
X177199799Y-44430096D01*
X177199849Y-44430061D01*
X177200605Y-44429290D01*
X177350104Y-44279792D01*
X177350106Y-44279788D01*
X177350109Y-44279786D01*
X177475048Y-44107820D01*
X177477910Y-44103880D01*
X177477910Y-44103879D01*
X177483065Y-44096784D01*
X177493229Y-44084531D01*
X177500647Y-44076678D01*
X177560985Y-44041457D01*
X177630791Y-44044447D01*
X177684503Y-44080612D01*
X177690707Y-44087771D01*
X177702729Y-44104193D01*
X177704949Y-44107817D01*
X177704951Y-44107820D01*
X177829890Y-44279786D01*
X177829892Y-44279788D01*
X177980216Y-44430112D01*
X178152169Y-44555042D01*
X178152200Y-44555060D01*
X178152442Y-44555182D01*
X178341588Y-44651557D01*
X178543757Y-44717246D01*
X178753713Y-44750500D01*
X178753714Y-44750500D01*
X178966286Y-44750500D01*
X178966287Y-44750500D01*
X179176243Y-44717246D01*
X179378412Y-44651557D01*
X179567816Y-44555051D01*
X179654138Y-44492335D01*
X179739786Y-44430109D01*
X179739788Y-44430106D01*
X179739792Y-44430104D01*
X179739799Y-44430096D01*
X179739849Y-44430061D01*
X179740605Y-44429290D01*
X179890104Y-44279792D01*
X179890106Y-44279788D01*
X179890109Y-44279786D01*
X180015048Y-44107820D01*
X180017910Y-44103880D01*
X180017910Y-44103879D01*
X180023065Y-44096784D01*
X180033229Y-44084531D01*
X180040647Y-44076678D01*
X180100985Y-44041457D01*
X180170791Y-44044447D01*
X180224503Y-44080612D01*
X180230707Y-44087771D01*
X180242729Y-44104193D01*
X180244949Y-44107817D01*
X180244951Y-44107820D01*
X180369890Y-44279786D01*
X180369892Y-44279788D01*
X180520216Y-44430112D01*
X180692169Y-44555042D01*
X180692200Y-44555060D01*
X180692442Y-44555182D01*
X180881588Y-44651557D01*
X181083757Y-44717246D01*
X181293713Y-44750500D01*
X181293714Y-44750500D01*
X181506286Y-44750500D01*
X181506287Y-44750500D01*
X181716243Y-44717246D01*
X181918412Y-44651557D01*
X182107816Y-44555051D01*
X182194138Y-44492335D01*
X182279786Y-44430109D01*
X182279788Y-44430106D01*
X182279792Y-44430104D01*
X182279799Y-44430096D01*
X182279849Y-44430061D01*
X182280605Y-44429290D01*
X182430104Y-44279792D01*
X182430106Y-44279788D01*
X182430109Y-44279786D01*
X182515890Y-44161717D01*
X182555051Y-44107816D01*
X182556342Y-44105281D01*
X182560750Y-44099133D01*
X182562638Y-44097657D01*
X182571370Y-44086249D01*
X182576693Y-44080612D01*
X182580918Y-44076137D01*
X182641253Y-44040909D01*
X182711059Y-44043892D01*
X182764789Y-44080067D01*
X182770890Y-44087108D01*
X182782900Y-44103514D01*
X182785367Y-44107540D01*
X182824727Y-44161715D01*
X182824728Y-44161716D01*
X183330297Y-43656147D01*
X183391619Y-43622663D01*
X183461311Y-43627647D01*
X183517244Y-43669519D01*
X183525363Y-43681828D01*
X183539896Y-43707000D01*
X183539899Y-43707004D01*
X183539901Y-43707007D01*
X183632993Y-43800099D01*
X183658169Y-43814634D01*
X183706384Y-43865202D01*
X183719606Y-43933809D01*
X183693638Y-43998673D01*
X183683849Y-44009702D01*
X183178282Y-44515268D01*
X183178282Y-44515269D01*
X183178282Y-44515270D01*
X183232449Y-44554624D01*
X183421782Y-44651095D01*
X183421784Y-44651096D01*
X183623866Y-44716756D01*
X183623867Y-44716756D01*
X183623870Y-44716757D01*
X183833754Y-44750000D01*
X184046245Y-44750000D01*
X184046246Y-44750000D01*
X184159050Y-44732132D01*
X184246487Y-44718284D01*
X184246493Y-44718283D01*
X184256127Y-44716757D01*
X184256130Y-44716757D01*
X184458217Y-44651095D01*
X184647554Y-44554622D01*
X184649976Y-44552862D01*
X184669121Y-44538953D01*
X184695858Y-44529412D01*
X184701717Y-44515269D01*
X184196149Y-44009702D01*
X184162664Y-43948379D01*
X184167648Y-43878688D01*
X184209519Y-43822754D01*
X184221822Y-43814639D01*
X184247007Y-43800099D01*
X184340099Y-43707007D01*
X184354634Y-43681830D01*
X184405199Y-43633616D01*
X184473805Y-43620391D01*
X184538671Y-43646358D01*
X184549702Y-43656149D01*
X185055269Y-44161717D01*
X185055269Y-44161716D01*
X185055270Y-44161717D01*
X185055270Y-44161716D01*
X185063859Y-44158158D01*
X185073710Y-44139207D01*
X185074955Y-44134968D01*
X185078057Y-44130369D01*
X185078474Y-44129779D01*
X185094622Y-44107555D01*
X185095694Y-44105450D01*
X185099676Y-44099825D01*
X185101521Y-44098365D01*
X185110733Y-44086327D01*
X185120363Y-44076131D01*
X185180703Y-44040907D01*
X185250508Y-44043897D01*
X185304227Y-44080066D01*
X185310297Y-44087071D01*
X185321752Y-44104056D01*
X185322401Y-44103659D01*
X185324944Y-44107809D01*
X185324947Y-44107813D01*
X185324949Y-44107817D01*
X185449890Y-44279786D01*
X185449892Y-44279788D01*
X185600216Y-44430112D01*
X185772169Y-44555042D01*
X185772200Y-44555060D01*
X185772442Y-44555182D01*
X185961588Y-44651557D01*
X186163757Y-44717246D01*
X186373713Y-44750500D01*
X186373714Y-44750500D01*
X186586286Y-44750500D01*
X186586287Y-44750500D01*
X186796243Y-44717246D01*
X186998412Y-44651557D01*
X187187816Y-44555051D01*
X187274138Y-44492335D01*
X187359786Y-44430109D01*
X187359788Y-44430106D01*
X187359792Y-44430104D01*
X187359799Y-44430096D01*
X187359849Y-44430061D01*
X187360605Y-44429290D01*
X187510104Y-44279792D01*
X187510106Y-44279788D01*
X187510109Y-44279786D01*
X187635048Y-44107820D01*
X187637910Y-44103880D01*
X187637910Y-44103879D01*
X187643065Y-44096784D01*
X187653229Y-44084531D01*
X187660647Y-44076678D01*
X187720985Y-44041457D01*
X187790791Y-44044447D01*
X187844503Y-44080612D01*
X187850707Y-44087771D01*
X187862729Y-44104193D01*
X187864949Y-44107817D01*
X187864951Y-44107820D01*
X187989890Y-44279786D01*
X187989892Y-44279788D01*
X188140216Y-44430112D01*
X188312169Y-44555042D01*
X188312200Y-44555060D01*
X188312442Y-44555182D01*
X188501588Y-44651557D01*
X188703757Y-44717246D01*
X188913713Y-44750500D01*
X188913714Y-44750500D01*
X189126286Y-44750500D01*
X189126287Y-44750500D01*
X189336243Y-44717246D01*
X189538412Y-44651557D01*
X189727816Y-44555051D01*
X189814138Y-44492335D01*
X189899786Y-44430109D01*
X189899788Y-44430106D01*
X189899792Y-44430104D01*
X189899799Y-44430096D01*
X189899849Y-44430061D01*
X189900605Y-44429290D01*
X190050104Y-44279792D01*
X190050106Y-44279788D01*
X190050109Y-44279786D01*
X190175048Y-44107820D01*
X190177910Y-44103880D01*
X190177910Y-44103879D01*
X190183065Y-44096784D01*
X190193229Y-44084531D01*
X190200647Y-44076678D01*
X190260985Y-44041457D01*
X190330791Y-44044447D01*
X190384503Y-44080612D01*
X190390707Y-44087771D01*
X190402729Y-44104193D01*
X190404949Y-44107817D01*
X190404951Y-44107820D01*
X190529890Y-44279786D01*
X190529892Y-44279788D01*
X190680216Y-44430112D01*
X190852169Y-44555042D01*
X190852200Y-44555060D01*
X190852442Y-44555182D01*
X191041588Y-44651557D01*
X191243757Y-44717246D01*
X191453713Y-44750500D01*
X191453714Y-44750500D01*
X191666286Y-44750500D01*
X191666287Y-44750500D01*
X191876243Y-44717246D01*
X192078412Y-44651557D01*
X192267816Y-44555051D01*
X192354138Y-44492335D01*
X192439786Y-44430109D01*
X192439788Y-44430106D01*
X192439792Y-44430104D01*
X192439799Y-44430096D01*
X192439849Y-44430061D01*
X192440605Y-44429290D01*
X192590104Y-44279792D01*
X192590106Y-44279788D01*
X192590109Y-44279786D01*
X192715048Y-44107820D01*
X192717910Y-44103880D01*
X192717910Y-44103879D01*
X192723065Y-44096784D01*
X192733229Y-44084531D01*
X192740647Y-44076678D01*
X192800985Y-44041457D01*
X192870791Y-44044447D01*
X192924503Y-44080612D01*
X192930707Y-44087771D01*
X192942729Y-44104193D01*
X192944949Y-44107817D01*
X192944951Y-44107820D01*
X193069890Y-44279786D01*
X193069892Y-44279788D01*
X193220216Y-44430112D01*
X193392169Y-44555042D01*
X193392200Y-44555060D01*
X193392442Y-44555182D01*
X193581588Y-44651557D01*
X193783757Y-44717246D01*
X193993713Y-44750500D01*
X193993714Y-44750500D01*
X194206286Y-44750500D01*
X194206287Y-44750500D01*
X194416243Y-44717246D01*
X194618412Y-44651557D01*
X194807816Y-44555051D01*
X194894138Y-44492335D01*
X194979786Y-44430109D01*
X194979788Y-44430106D01*
X194979792Y-44430104D01*
X194979799Y-44430096D01*
X194979849Y-44430061D01*
X194980605Y-44429290D01*
X195130104Y-44279792D01*
X195130106Y-44279788D01*
X195130109Y-44279786D01*
X195215890Y-44161717D01*
X195255051Y-44107816D01*
X195256342Y-44105281D01*
X195260750Y-44099133D01*
X195262638Y-44097657D01*
X195271370Y-44086249D01*
X195276693Y-44080612D01*
X195280918Y-44076137D01*
X195341253Y-44040909D01*
X195411059Y-44043892D01*
X195464789Y-44080067D01*
X195470890Y-44087108D01*
X195482900Y-44103514D01*
X195485367Y-44107540D01*
X195524727Y-44161715D01*
X195524728Y-44161716D01*
X196030297Y-43656147D01*
X196091619Y-43622663D01*
X196161311Y-43627647D01*
X196217244Y-43669519D01*
X196225363Y-43681828D01*
X196239896Y-43707000D01*
X196239899Y-43707004D01*
X196239901Y-43707007D01*
X196332993Y-43800099D01*
X196358169Y-43814634D01*
X196406384Y-43865202D01*
X196419606Y-43933809D01*
X196393638Y-43998673D01*
X196383849Y-44009702D01*
X195878282Y-44515268D01*
X195878282Y-44515269D01*
X195878282Y-44515270D01*
X195932449Y-44554624D01*
X196121782Y-44651095D01*
X196121784Y-44651096D01*
X196323866Y-44716756D01*
X196323867Y-44716756D01*
X196323870Y-44716757D01*
X196533754Y-44750000D01*
X196746245Y-44750000D01*
X196746246Y-44750000D01*
X196859050Y-44732132D01*
X196946487Y-44718284D01*
X196946493Y-44718283D01*
X196956127Y-44716757D01*
X196956130Y-44716757D01*
X197158217Y-44651095D01*
X197347554Y-44554622D01*
X197349976Y-44552862D01*
X197369121Y-44538953D01*
X197395858Y-44529412D01*
X197401717Y-44515269D01*
X196896149Y-44009702D01*
X196862664Y-43948379D01*
X196867648Y-43878688D01*
X196909519Y-43822754D01*
X196921822Y-43814639D01*
X196947007Y-43800099D01*
X197040099Y-43707007D01*
X197054634Y-43681830D01*
X197105199Y-43633616D01*
X197173805Y-43620391D01*
X197238671Y-43646358D01*
X197249702Y-43656149D01*
X197755269Y-44161717D01*
X197755269Y-44161716D01*
X197755270Y-44161717D01*
X197755270Y-44161716D01*
X197763859Y-44158158D01*
X197773710Y-44139207D01*
X197774955Y-44134968D01*
X197778057Y-44130369D01*
X197778474Y-44129779D01*
X197794622Y-44107555D01*
X197795694Y-44105450D01*
X197799676Y-44099825D01*
X197801521Y-44098365D01*
X197810733Y-44086327D01*
X197820363Y-44076131D01*
X197880703Y-44040907D01*
X197950508Y-44043897D01*
X198004227Y-44080066D01*
X198010297Y-44087071D01*
X198021752Y-44104056D01*
X198022401Y-44103659D01*
X198024944Y-44107809D01*
X198024947Y-44107813D01*
X198024949Y-44107817D01*
X198149890Y-44279786D01*
X198149892Y-44279788D01*
X198300216Y-44430112D01*
X198472169Y-44555042D01*
X198472200Y-44555060D01*
X198472442Y-44555182D01*
X198661588Y-44651557D01*
X198863757Y-44717246D01*
X199073713Y-44750500D01*
X199073714Y-44750500D01*
X199286286Y-44750500D01*
X199286287Y-44750500D01*
X199496243Y-44717246D01*
X199698412Y-44651557D01*
X199887816Y-44555051D01*
X199974138Y-44492335D01*
X200059786Y-44430109D01*
X200059788Y-44430106D01*
X200059792Y-44430104D01*
X200059799Y-44430096D01*
X200059849Y-44430061D01*
X200060605Y-44429290D01*
X200210104Y-44279792D01*
X200210106Y-44279788D01*
X200210109Y-44279786D01*
X200335048Y-44107820D01*
X200337910Y-44103880D01*
X200337910Y-44103879D01*
X200343065Y-44096784D01*
X200353229Y-44084531D01*
X200360647Y-44076678D01*
X200420985Y-44041457D01*
X200490791Y-44044447D01*
X200544503Y-44080612D01*
X200550707Y-44087771D01*
X200562729Y-44104193D01*
X200564949Y-44107817D01*
X200564951Y-44107820D01*
X200689890Y-44279786D01*
X200689892Y-44279788D01*
X200840216Y-44430112D01*
X201012169Y-44555042D01*
X201012200Y-44555060D01*
X201012442Y-44555182D01*
X201201588Y-44651557D01*
X201403757Y-44717246D01*
X201613713Y-44750500D01*
X201613714Y-44750500D01*
X201826286Y-44750500D01*
X201826287Y-44750500D01*
X202036243Y-44717246D01*
X202238412Y-44651557D01*
X202427816Y-44555051D01*
X202514138Y-44492335D01*
X202599786Y-44430109D01*
X202599788Y-44430106D01*
X202599792Y-44430104D01*
X202599799Y-44430096D01*
X202599849Y-44430061D01*
X202600605Y-44429290D01*
X202750104Y-44279792D01*
X202750106Y-44279788D01*
X202750109Y-44279786D01*
X202835891Y-44161716D01*
X202870634Y-44113896D01*
X202870635Y-44113893D01*
X202875048Y-44107820D01*
X202875047Y-44107820D01*
X202875051Y-44107816D01*
X202971557Y-43918412D01*
X203037246Y-43716243D01*
X203070500Y-43506287D01*
X203070500Y-43293713D01*
X203037246Y-43083757D01*
X202971557Y-42881588D01*
X202875051Y-42692184D01*
X202875049Y-42692181D01*
X202875048Y-42692179D01*
X202874702Y-42691703D01*
X202874700Y-42691699D01*
X202750112Y-42520216D01*
X202599788Y-42369892D01*
X202599786Y-42369890D01*
X202427820Y-42244951D01*
X202324781Y-42192450D01*
X202260245Y-42159567D01*
X202260240Y-42159565D01*
X202238414Y-42148444D01*
X202238413Y-42148443D01*
X202238412Y-42148443D01*
X202108427Y-42106208D01*
X202045074Y-42085623D01*
X202040552Y-42083770D01*
X202031362Y-42081600D01*
X202026599Y-42081226D01*
X201870369Y-42056482D01*
X201826287Y-42049500D01*
X201826286Y-42049500D01*
X201613714Y-42049500D01*
X201613713Y-42049500D01*
X201569631Y-42056482D01*
X201403759Y-42082753D01*
X201201580Y-42148445D01*
X201012182Y-42244949D01*
X201012179Y-42244950D01*
X201012179Y-42244951D01*
X201011589Y-42245380D01*
X200840210Y-42369892D01*
X200689892Y-42520210D01*
X200689890Y-42520213D01*
X200564952Y-42692179D01*
X200564945Y-42692188D01*
X200564634Y-42692696D01*
X200563499Y-42694177D01*
X200562085Y-42696125D01*
X200562036Y-42696089D01*
X200549060Y-42713041D01*
X200539353Y-42723319D01*
X200479011Y-42758542D01*
X200409205Y-42755550D01*
X200355488Y-42719378D01*
X200349285Y-42712219D01*
X200337274Y-42695811D01*
X200335053Y-42692187D01*
X200335051Y-42692184D01*
X200335050Y-42692182D01*
X200210109Y-42520213D01*
X200059786Y-42369890D01*
X199887820Y-42244951D01*
X199784781Y-42192450D01*
X199720245Y-42159567D01*
X199720240Y-42159565D01*
X199698414Y-42148444D01*
X199698413Y-42148443D01*
X199698412Y-42148443D01*
X199568427Y-42106208D01*
X199505074Y-42085623D01*
X199500552Y-42083770D01*
X199491362Y-42081600D01*
X199486599Y-42081226D01*
X199330369Y-42056482D01*
X199286287Y-42049500D01*
X199286286Y-42049500D01*
X199073714Y-42049500D01*
X199073713Y-42049500D01*
X199029631Y-42056482D01*
X198863759Y-42082753D01*
X198661580Y-42148445D01*
X198472182Y-42244949D01*
X198472179Y-42244950D01*
X198472179Y-42244951D01*
X198471589Y-42245380D01*
X198300210Y-42369892D01*
X198149886Y-42520216D01*
X198024943Y-42692187D01*
X198024188Y-42693421D01*
X198008613Y-42713768D01*
X197999070Y-42723872D01*
X197938728Y-42759094D01*
X197868922Y-42756100D01*
X197815211Y-42719934D01*
X197809107Y-42712890D01*
X197797086Y-42696467D01*
X197794628Y-42692457D01*
X197794626Y-42692452D01*
X197755270Y-42638282D01*
X197755268Y-42638282D01*
X197249702Y-43143849D01*
X197188379Y-43177334D01*
X197118687Y-43172350D01*
X197062754Y-43130478D01*
X197054634Y-43118169D01*
X197040099Y-43092993D01*
X196947007Y-42999901D01*
X196947004Y-42999899D01*
X196947000Y-42999896D01*
X196921828Y-42985363D01*
X196873613Y-42934796D01*
X196860391Y-42866189D01*
X196886359Y-42801324D01*
X196896135Y-42790310D01*
X197401716Y-42284728D01*
X197347550Y-42245375D01*
X197243680Y-42192450D01*
X197158214Y-42148902D01*
X196956130Y-42083242D01*
X196746251Y-42050000D01*
X196746246Y-42050000D01*
X196533754Y-42050000D01*
X196533749Y-42050000D01*
X196333513Y-42081715D01*
X196333505Y-42081715D01*
X196333506Y-42081716D01*
X196323865Y-42083242D01*
X196121784Y-42148903D01*
X195932438Y-42245380D01*
X195878282Y-42284727D01*
X195878282Y-42284728D01*
X196383850Y-42790296D01*
X196417335Y-42851619D01*
X196412351Y-42921311D01*
X196370479Y-42977244D01*
X196358173Y-42985362D01*
X196332996Y-42999898D01*
X196332990Y-42999903D01*
X196239903Y-43092990D01*
X196239898Y-43092996D01*
X196225362Y-43118173D01*
X196174793Y-43166387D01*
X196106185Y-43179607D01*
X196041322Y-43153637D01*
X196030296Y-43143850D01*
X195524728Y-42638282D01*
X195524727Y-42638282D01*
X195485379Y-42692440D01*
X195483368Y-42695458D01*
X195483066Y-42695256D01*
X195469233Y-42713707D01*
X195459622Y-42723881D01*
X195399276Y-42759096D01*
X195329471Y-42756096D01*
X195275760Y-42719921D01*
X195269682Y-42712905D01*
X195257425Y-42696091D01*
X195255568Y-42693034D01*
X195255100Y-42692249D01*
X195130112Y-42520216D01*
X194979788Y-42369892D01*
X194979786Y-42369890D01*
X194807820Y-42244951D01*
X194704781Y-42192450D01*
X194640245Y-42159567D01*
X194640240Y-42159565D01*
X194618414Y-42148444D01*
X194618413Y-42148443D01*
X194618412Y-42148443D01*
X194488427Y-42106208D01*
X194425074Y-42085623D01*
X194420552Y-42083770D01*
X194411362Y-42081600D01*
X194406599Y-42081226D01*
X194250369Y-42056482D01*
X194206287Y-42049500D01*
X194206286Y-42049500D01*
X193993714Y-42049500D01*
X193993713Y-42049500D01*
X193949631Y-42056482D01*
X193783759Y-42082753D01*
X193581580Y-42148445D01*
X193392182Y-42244949D01*
X193392179Y-42244950D01*
X193392179Y-42244951D01*
X193391589Y-42245380D01*
X193220210Y-42369892D01*
X193069892Y-42520210D01*
X193069890Y-42520213D01*
X192944952Y-42692179D01*
X192944945Y-42692188D01*
X192944634Y-42692696D01*
X192943499Y-42694177D01*
X192942085Y-42696125D01*
X192942036Y-42696089D01*
X192929060Y-42713041D01*
X192919353Y-42723319D01*
X192859011Y-42758542D01*
X192789205Y-42755550D01*
X192735488Y-42719378D01*
X192729285Y-42712219D01*
X192717274Y-42695811D01*
X192715053Y-42692187D01*
X192715051Y-42692184D01*
X192715050Y-42692182D01*
X192590109Y-42520213D01*
X192439786Y-42369890D01*
X192267820Y-42244951D01*
X192164781Y-42192450D01*
X192100245Y-42159567D01*
X192100240Y-42159565D01*
X192078414Y-42148444D01*
X192078413Y-42148443D01*
X192078412Y-42148443D01*
X191948427Y-42106208D01*
X191885074Y-42085623D01*
X191880552Y-42083770D01*
X191871362Y-42081600D01*
X191866599Y-42081226D01*
X191710369Y-42056482D01*
X191666287Y-42049500D01*
X191666286Y-42049500D01*
X191453714Y-42049500D01*
X191453713Y-42049500D01*
X191409631Y-42056482D01*
X191243759Y-42082753D01*
X191041580Y-42148445D01*
X190852182Y-42244949D01*
X190852179Y-42244950D01*
X190852179Y-42244951D01*
X190851589Y-42245380D01*
X190680210Y-42369892D01*
X190529892Y-42520210D01*
X190529890Y-42520213D01*
X190404952Y-42692179D01*
X190404945Y-42692188D01*
X190404634Y-42692696D01*
X190403499Y-42694177D01*
X190402085Y-42696125D01*
X190402036Y-42696089D01*
X190389060Y-42713041D01*
X190379353Y-42723319D01*
X190319011Y-42758542D01*
X190249205Y-42755550D01*
X190195488Y-42719378D01*
X190189285Y-42712219D01*
X190177274Y-42695811D01*
X190175053Y-42692187D01*
X190175051Y-42692184D01*
X190175050Y-42692182D01*
X190050109Y-42520213D01*
X189899786Y-42369890D01*
X189727820Y-42244951D01*
X189624781Y-42192450D01*
X189560245Y-42159567D01*
X189560240Y-42159565D01*
X189538414Y-42148444D01*
X189538413Y-42148443D01*
X189538412Y-42148443D01*
X189408427Y-42106208D01*
X189345074Y-42085623D01*
X189340552Y-42083770D01*
X189331362Y-42081600D01*
X189326599Y-42081226D01*
X189170369Y-42056482D01*
X189126287Y-42049500D01*
X189126286Y-42049500D01*
X188913714Y-42049500D01*
X188913713Y-42049500D01*
X188869631Y-42056482D01*
X188703759Y-42082753D01*
X188501580Y-42148445D01*
X188312182Y-42244949D01*
X188312179Y-42244950D01*
X188312179Y-42244951D01*
X188311589Y-42245380D01*
X188140210Y-42369892D01*
X187989892Y-42520210D01*
X187989890Y-42520213D01*
X187864952Y-42692179D01*
X187864945Y-42692188D01*
X187864634Y-42692696D01*
X187863499Y-42694177D01*
X187862085Y-42696125D01*
X187862036Y-42696089D01*
X187849060Y-42713041D01*
X187839353Y-42723319D01*
X187779011Y-42758542D01*
X187709205Y-42755550D01*
X187655488Y-42719378D01*
X187649285Y-42712219D01*
X187637274Y-42695811D01*
X187635053Y-42692187D01*
X187635051Y-42692184D01*
X187635050Y-42692182D01*
X187510109Y-42520213D01*
X187359786Y-42369890D01*
X187187820Y-42244951D01*
X187084781Y-42192450D01*
X187020245Y-42159567D01*
X187020240Y-42159565D01*
X186998414Y-42148444D01*
X186998413Y-42148443D01*
X186998412Y-42148443D01*
X186868427Y-42106208D01*
X186805074Y-42085623D01*
X186800552Y-42083770D01*
X186791362Y-42081600D01*
X186786599Y-42081226D01*
X186630369Y-42056482D01*
X186586287Y-42049500D01*
X186586286Y-42049500D01*
X186373714Y-42049500D01*
X186373713Y-42049500D01*
X186329631Y-42056482D01*
X186163759Y-42082753D01*
X185961580Y-42148445D01*
X185772182Y-42244949D01*
X185772179Y-42244950D01*
X185772179Y-42244951D01*
X185771589Y-42245380D01*
X185600210Y-42369892D01*
X185449886Y-42520216D01*
X185324943Y-42692187D01*
X185324188Y-42693421D01*
X185308613Y-42713768D01*
X185299070Y-42723872D01*
X185238728Y-42759094D01*
X185168922Y-42756100D01*
X185115211Y-42719934D01*
X185109107Y-42712890D01*
X185097086Y-42696467D01*
X185094628Y-42692457D01*
X185094626Y-42692452D01*
X185055270Y-42638282D01*
X185055268Y-42638282D01*
X184549702Y-43143849D01*
X184488379Y-43177334D01*
X184418687Y-43172350D01*
X184362754Y-43130478D01*
X184354634Y-43118169D01*
X184340099Y-43092993D01*
X184247007Y-42999901D01*
X184247004Y-42999899D01*
X184247000Y-42999896D01*
X184221828Y-42985363D01*
X184173613Y-42934796D01*
X184160391Y-42866189D01*
X184186359Y-42801324D01*
X184196135Y-42790310D01*
X184701716Y-42284728D01*
X184647550Y-42245375D01*
X184543680Y-42192450D01*
X184458214Y-42148902D01*
X184256130Y-42083242D01*
X184046251Y-42050000D01*
X184046246Y-42050000D01*
X183833754Y-42050000D01*
X183833749Y-42050000D01*
X183633513Y-42081715D01*
X183633505Y-42081715D01*
X183633506Y-42081716D01*
X183623865Y-42083242D01*
X183421784Y-42148903D01*
X183232438Y-42245380D01*
X183178282Y-42284727D01*
X183178282Y-42284728D01*
X183683850Y-42790296D01*
X183717335Y-42851619D01*
X183712351Y-42921311D01*
X183670479Y-42977244D01*
X183658173Y-42985362D01*
X183632996Y-42999898D01*
X183632990Y-42999903D01*
X183539903Y-43092990D01*
X183539898Y-43092996D01*
X183525362Y-43118173D01*
X183474793Y-43166387D01*
X183406185Y-43179607D01*
X183341322Y-43153637D01*
X183330296Y-43143850D01*
X182824728Y-42638282D01*
X182824727Y-42638282D01*
X182785379Y-42692440D01*
X182783368Y-42695458D01*
X182783066Y-42695256D01*
X182769233Y-42713707D01*
X182759622Y-42723881D01*
X182699276Y-42759096D01*
X182629471Y-42756096D01*
X182575760Y-42719921D01*
X182569682Y-42712905D01*
X182557425Y-42696091D01*
X182555568Y-42693034D01*
X182555100Y-42692249D01*
X182430112Y-42520216D01*
X182279788Y-42369892D01*
X182279786Y-42369890D01*
X182107820Y-42244951D01*
X182004781Y-42192450D01*
X181940245Y-42159567D01*
X181940240Y-42159565D01*
X181918414Y-42148444D01*
X181918413Y-42148443D01*
X181918412Y-42148443D01*
X181788427Y-42106208D01*
X181725074Y-42085623D01*
X181720552Y-42083770D01*
X181711362Y-42081600D01*
X181706599Y-42081226D01*
X181550369Y-42056482D01*
X181506287Y-42049500D01*
X181506286Y-42049500D01*
X181293714Y-42049500D01*
X181293713Y-42049500D01*
X181249631Y-42056482D01*
X181083759Y-42082753D01*
X180881580Y-42148445D01*
X180692182Y-42244949D01*
X180692179Y-42244950D01*
X180692179Y-42244951D01*
X180691589Y-42245380D01*
X180520210Y-42369892D01*
X180369892Y-42520210D01*
X180369890Y-42520213D01*
X180244952Y-42692179D01*
X180244945Y-42692188D01*
X180244634Y-42692696D01*
X180243499Y-42694177D01*
X180242085Y-42696125D01*
X180242036Y-42696089D01*
X180229060Y-42713041D01*
X180219353Y-42723319D01*
X180159011Y-42758542D01*
X180089205Y-42755550D01*
X180035488Y-42719378D01*
X180029285Y-42712219D01*
X180017274Y-42695811D01*
X180015053Y-42692187D01*
X180015051Y-42692184D01*
X180015050Y-42692182D01*
X179890109Y-42520213D01*
X179739786Y-42369890D01*
X179567820Y-42244951D01*
X179464781Y-42192450D01*
X179400245Y-42159567D01*
X179400240Y-42159565D01*
X179378414Y-42148444D01*
X179378413Y-42148443D01*
X179378412Y-42148443D01*
X179248427Y-42106208D01*
X179185074Y-42085623D01*
X179180552Y-42083770D01*
X179171362Y-42081600D01*
X179166599Y-42081226D01*
X179010369Y-42056482D01*
X178966287Y-42049500D01*
X178966286Y-42049500D01*
X178753714Y-42049500D01*
X178753713Y-42049500D01*
X178709631Y-42056482D01*
X178543759Y-42082753D01*
X178341580Y-42148445D01*
X178152182Y-42244949D01*
X178152179Y-42244950D01*
X178152179Y-42244951D01*
X178151589Y-42245380D01*
X177980210Y-42369892D01*
X177829892Y-42520210D01*
X177829890Y-42520213D01*
X177704952Y-42692179D01*
X177704945Y-42692188D01*
X177704634Y-42692696D01*
X177703499Y-42694177D01*
X177702085Y-42696125D01*
X177702036Y-42696089D01*
X177689060Y-42713041D01*
X177679353Y-42723319D01*
X177619011Y-42758542D01*
X177549205Y-42755550D01*
X177495488Y-42719378D01*
X177489285Y-42712219D01*
X177477274Y-42695811D01*
X177475053Y-42692187D01*
X177475051Y-42692184D01*
X177475050Y-42692182D01*
X177350109Y-42520213D01*
X177199786Y-42369890D01*
X177027820Y-42244951D01*
X176924781Y-42192450D01*
X176860245Y-42159567D01*
X176860240Y-42159565D01*
X176838414Y-42148444D01*
X176838413Y-42148443D01*
X176838412Y-42148443D01*
X176708427Y-42106208D01*
X176645074Y-42085623D01*
X176640552Y-42083770D01*
X176631362Y-42081600D01*
X176626599Y-42081226D01*
X176470369Y-42056482D01*
X176426287Y-42049500D01*
X176426286Y-42049500D01*
X176213714Y-42049500D01*
X176213713Y-42049500D01*
X176169631Y-42056482D01*
X176003759Y-42082753D01*
X175801580Y-42148445D01*
X175612182Y-42244949D01*
X175612179Y-42244950D01*
X175612179Y-42244951D01*
X175611589Y-42245380D01*
X175440210Y-42369892D01*
X175289892Y-42520210D01*
X175289890Y-42520213D01*
X175164952Y-42692179D01*
X175164945Y-42692188D01*
X175164634Y-42692696D01*
X175163499Y-42694177D01*
X175162085Y-42696125D01*
X175162036Y-42696089D01*
X175149060Y-42713041D01*
X175139353Y-42723319D01*
X175079011Y-42758542D01*
X175009205Y-42755550D01*
X174955488Y-42719378D01*
X174949285Y-42712219D01*
X174937274Y-42695811D01*
X174935053Y-42692187D01*
X174935051Y-42692184D01*
X174935050Y-42692182D01*
X174810109Y-42520213D01*
X174659786Y-42369890D01*
X174487820Y-42244951D01*
X174384781Y-42192450D01*
X174320245Y-42159567D01*
X174320240Y-42159565D01*
X174298414Y-42148444D01*
X174298413Y-42148443D01*
X174298412Y-42148443D01*
X174168427Y-42106208D01*
X174105074Y-42085623D01*
X174100552Y-42083770D01*
X174091362Y-42081600D01*
X174086599Y-42081226D01*
X173930369Y-42056482D01*
X173886287Y-42049500D01*
X173886286Y-42049500D01*
X173673714Y-42049500D01*
X173673713Y-42049500D01*
X173629631Y-42056482D01*
X173463759Y-42082753D01*
X173261580Y-42148445D01*
X173072182Y-42244949D01*
X173072179Y-42244950D01*
X173072179Y-42244951D01*
X173071589Y-42245380D01*
X172900210Y-42369892D01*
X172749886Y-42520216D01*
X172624943Y-42692187D01*
X172624188Y-42693421D01*
X172608613Y-42713768D01*
X172599070Y-42723872D01*
X172538728Y-42759094D01*
X172468922Y-42756100D01*
X172415211Y-42719934D01*
X172409107Y-42712890D01*
X172397086Y-42696467D01*
X172394628Y-42692457D01*
X172394626Y-42692452D01*
X172355270Y-42638282D01*
X172355268Y-42638282D01*
X171849702Y-43143849D01*
X171788379Y-43177334D01*
X171718687Y-43172350D01*
X171662754Y-43130478D01*
X171654634Y-43118169D01*
X171640099Y-43092993D01*
X171547007Y-42999901D01*
X171547004Y-42999899D01*
X171547000Y-42999896D01*
X171521828Y-42985363D01*
X171473613Y-42934796D01*
X171460391Y-42866189D01*
X171486359Y-42801324D01*
X171496135Y-42790310D01*
X172001716Y-42284728D01*
X171947550Y-42245375D01*
X171843680Y-42192450D01*
X171758214Y-42148902D01*
X171556130Y-42083242D01*
X171346251Y-42050000D01*
X171346246Y-42050000D01*
X171133754Y-42050000D01*
X171133749Y-42050000D01*
X170933513Y-42081715D01*
X170933505Y-42081715D01*
X170933506Y-42081716D01*
X170923865Y-42083242D01*
X170721784Y-42148903D01*
X170532438Y-42245380D01*
X170478282Y-42284727D01*
X170478282Y-42284728D01*
X170983850Y-42790296D01*
X171017335Y-42851619D01*
X171012351Y-42921311D01*
X170970479Y-42977244D01*
X170958173Y-42985362D01*
X170932996Y-42999898D01*
X170932990Y-42999903D01*
X170839903Y-43092990D01*
X170839898Y-43092996D01*
X170825362Y-43118173D01*
X170774793Y-43166387D01*
X170706185Y-43179607D01*
X170641322Y-43153637D01*
X170630296Y-43143850D01*
X170124728Y-42638282D01*
X170124727Y-42638282D01*
X170085379Y-42692440D01*
X170083368Y-42695458D01*
X170083066Y-42695256D01*
X170069233Y-42713707D01*
X170059622Y-42723881D01*
X169999276Y-42759096D01*
X169929471Y-42756096D01*
X169875760Y-42719921D01*
X169869682Y-42712905D01*
X169857425Y-42696091D01*
X169855568Y-42693034D01*
X169855100Y-42692249D01*
X169730112Y-42520216D01*
X169579788Y-42369892D01*
X169579786Y-42369890D01*
X169407820Y-42244951D01*
X169304781Y-42192450D01*
X169240245Y-42159567D01*
X169240240Y-42159565D01*
X169218414Y-42148444D01*
X169218413Y-42148443D01*
X169218412Y-42148443D01*
X169088427Y-42106208D01*
X169025074Y-42085623D01*
X169020552Y-42083770D01*
X169011362Y-42081600D01*
X169006599Y-42081226D01*
X168850369Y-42056482D01*
X168806287Y-42049500D01*
X168806286Y-42049500D01*
X168593714Y-42049500D01*
X168593713Y-42049500D01*
X168549631Y-42056482D01*
X168383759Y-42082753D01*
X168181580Y-42148445D01*
X167992182Y-42244949D01*
X167992179Y-42244950D01*
X167992179Y-42244951D01*
X167991589Y-42245380D01*
X167820210Y-42369892D01*
X167669892Y-42520210D01*
X167669890Y-42520213D01*
X167544952Y-42692179D01*
X167544945Y-42692188D01*
X167544634Y-42692696D01*
X167543499Y-42694177D01*
X167542085Y-42696125D01*
X167542036Y-42696089D01*
X167529060Y-42713041D01*
X167519353Y-42723319D01*
X167459011Y-42758542D01*
X167389205Y-42755550D01*
X167335488Y-42719378D01*
X167329285Y-42712219D01*
X167317274Y-42695811D01*
X167315053Y-42692187D01*
X167315051Y-42692184D01*
X167315050Y-42692182D01*
X167190109Y-42520213D01*
X167039786Y-42369890D01*
X166867820Y-42244951D01*
X166678416Y-42148444D01*
X166577713Y-42115723D01*
X166522456Y-42097769D01*
X166522454Y-42097768D01*
X166522453Y-42097768D01*
X166490780Y-42082194D01*
X166479324Y-42074360D01*
X166435098Y-42020269D01*
X166427133Y-41950872D01*
X166427702Y-41947582D01*
X166449055Y-41896543D01*
X166450210Y-41894929D01*
X166463347Y-41879438D01*
X168060626Y-40282162D01*
X168153703Y-40142863D01*
X168217816Y-39988082D01*
X168250500Y-39823767D01*
X168250500Y-34283433D01*
X168255522Y-34248500D01*
X168264864Y-34216684D01*
X168280741Y-34182729D01*
X168286632Y-34173914D01*
X168362051Y-33991835D01*
X168391556Y-33843505D01*
X168400500Y-33798543D01*
X168400500Y-33601453D01*
X168361812Y-33406962D01*
X168359725Y-33402550D01*
X168346506Y-33370637D01*
X168298783Y-33255421D01*
X168297424Y-33252139D01*
X173078835Y-33252139D01*
X173078835Y-35047876D01*
X173078994Y-35049806D01*
X173079220Y-35051454D01*
X173085242Y-35107482D01*
X173108754Y-35170520D01*
X173135537Y-35242328D01*
X173135541Y-35242335D01*
X173175280Y-35295419D01*
X173221785Y-35357542D01*
X173221791Y-35357548D01*
X173230971Y-35364420D01*
X173336999Y-35443793D01*
X173337006Y-35443797D01*
X173471852Y-35494091D01*
X173471851Y-35494091D01*
X173478779Y-35494835D01*
X173531462Y-35500500D01*
X175327207Y-35500499D01*
X175386818Y-35494091D01*
X175521666Y-35443796D01*
X175636881Y-35357546D01*
X175723131Y-35242331D01*
X175773426Y-35107483D01*
X175773426Y-35107482D01*
X175779834Y-35047888D01*
X175779834Y-35047882D01*
X175779835Y-35047873D01*
X175779834Y-35047816D01*
X175779839Y-35047796D01*
X175780012Y-35044565D01*
X175780190Y-35044574D01*
X175780191Y-35044568D01*
X175780312Y-35044581D01*
X175780476Y-35044589D01*
X175781462Y-35039628D01*
X175780544Y-35034540D01*
X175785824Y-35017677D01*
X175789270Y-35000341D01*
X175791807Y-34994212D01*
X175793275Y-34991525D01*
X175794137Y-34988587D01*
X175796678Y-34982453D01*
X175808113Y-34968260D01*
X175823559Y-34942219D01*
X176359632Y-34406147D01*
X176420954Y-34372663D01*
X176490646Y-34377647D01*
X176546579Y-34419519D01*
X176554698Y-34431828D01*
X176569231Y-34457000D01*
X176569234Y-34457004D01*
X176569236Y-34457007D01*
X176662328Y-34550099D01*
X176687504Y-34564634D01*
X176735719Y-34615202D01*
X176748941Y-34683809D01*
X176722973Y-34748673D01*
X176713184Y-34759702D01*
X176207617Y-35265268D01*
X176207617Y-35265269D01*
X176207617Y-35265270D01*
X176261784Y-35304624D01*
X176451117Y-35401095D01*
X176451119Y-35401096D01*
X176653201Y-35466756D01*
X176653202Y-35466756D01*
X176653205Y-35466757D01*
X176863089Y-35500000D01*
X177075580Y-35500000D01*
X177075581Y-35500000D01*
X177207446Y-35479114D01*
X177275822Y-35468284D01*
X177275828Y-35468283D01*
X177285462Y-35466757D01*
X177285465Y-35466757D01*
X177487552Y-35401095D01*
X177676889Y-35304622D01*
X177689556Y-35295419D01*
X177698456Y-35288953D01*
X177725193Y-35279412D01*
X177731052Y-35265269D01*
X177225484Y-34759702D01*
X177191999Y-34698379D01*
X177196983Y-34628688D01*
X177238854Y-34572754D01*
X177251157Y-34564639D01*
X177276342Y-34550099D01*
X177369434Y-34457007D01*
X177383969Y-34431830D01*
X177434534Y-34383616D01*
X177503140Y-34370391D01*
X177568006Y-34396358D01*
X177579037Y-34406149D01*
X178084604Y-34911717D01*
X178084604Y-34911716D01*
X178084605Y-34911717D01*
X178084605Y-34911716D01*
X178098073Y-34906137D01*
X178104290Y-34884967D01*
X178108289Y-34879118D01*
X178119954Y-34863064D01*
X178123957Y-34857554D01*
X178220430Y-34668217D01*
X178286092Y-34466130D01*
X178286092Y-34466127D01*
X178319335Y-34256246D01*
X178319335Y-34043754D01*
X178303409Y-33943204D01*
X178300864Y-33927139D01*
X191119500Y-33927139D01*
X191119500Y-35722876D01*
X191119659Y-35724806D01*
X191119885Y-35726454D01*
X191125907Y-35782482D01*
X191137464Y-35813466D01*
X191176202Y-35917328D01*
X191176205Y-35917334D01*
X191262450Y-36032542D01*
X191262452Y-36032544D01*
X191262455Y-36032547D01*
X191377664Y-36118793D01*
X191377671Y-36118797D01*
X191512517Y-36169091D01*
X191512516Y-36169091D01*
X191519444Y-36169835D01*
X191572127Y-36175500D01*
X193367872Y-36175499D01*
X193427483Y-36169091D01*
X193562331Y-36118796D01*
X193677546Y-36032546D01*
X193763796Y-35917331D01*
X193806580Y-35802618D01*
X193823490Y-35771649D01*
X193831811Y-35760533D01*
X193887741Y-35718663D01*
X193957424Y-35713675D01*
X193961909Y-35714650D01*
X194023234Y-35748130D01*
X194130216Y-35855112D01*
X194302169Y-35980042D01*
X194302200Y-35980060D01*
X194302442Y-35980182D01*
X194491588Y-36076557D01*
X194693757Y-36142246D01*
X194903713Y-36175500D01*
X194903714Y-36175500D01*
X195116286Y-36175500D01*
X195116287Y-36175500D01*
X195326243Y-36142246D01*
X195528412Y-36076557D01*
X195717816Y-35980051D01*
X195804138Y-35917335D01*
X195889786Y-35855109D01*
X195889788Y-35855106D01*
X195889792Y-35855104D01*
X195889799Y-35855096D01*
X195889849Y-35855061D01*
X195890605Y-35854290D01*
X196040104Y-35704792D01*
X196040106Y-35704788D01*
X196040109Y-35704786D01*
X196165048Y-35532820D01*
X196165047Y-35532820D01*
X196165051Y-35532816D01*
X196165053Y-35532811D01*
X196173066Y-35521782D01*
X196173071Y-35521778D01*
X196183229Y-35509531D01*
X196190647Y-35501678D01*
X196225566Y-35481294D01*
X196228394Y-35479114D01*
X196229458Y-35479022D01*
X196250985Y-35466457D01*
X196320791Y-35469447D01*
X196374503Y-35505612D01*
X196380707Y-35512771D01*
X196392729Y-35529193D01*
X196394949Y-35532817D01*
X196394951Y-35532820D01*
X196519890Y-35704786D01*
X196519892Y-35704788D01*
X196670216Y-35855112D01*
X196842169Y-35980042D01*
X196842200Y-35980060D01*
X196842442Y-35980182D01*
X197031588Y-36076557D01*
X197233757Y-36142246D01*
X197443713Y-36175500D01*
X197443714Y-36175500D01*
X197656286Y-36175500D01*
X197656287Y-36175500D01*
X197866243Y-36142246D01*
X198068412Y-36076557D01*
X198257816Y-35980051D01*
X198344138Y-35917335D01*
X198429786Y-35855109D01*
X198429788Y-35855106D01*
X198429792Y-35855104D01*
X198429799Y-35855096D01*
X198429849Y-35855061D01*
X198430605Y-35854290D01*
X198580104Y-35704792D01*
X198580106Y-35704788D01*
X198580109Y-35704786D01*
X198705048Y-35532820D01*
X198705047Y-35532820D01*
X198705051Y-35532816D01*
X198705053Y-35532811D01*
X198713066Y-35521782D01*
X198713071Y-35521778D01*
X198723229Y-35509531D01*
X198730647Y-35501678D01*
X198765566Y-35481294D01*
X198768394Y-35479114D01*
X198769458Y-35479022D01*
X198790985Y-35466457D01*
X198860791Y-35469447D01*
X198914503Y-35505612D01*
X198920707Y-35512771D01*
X198932729Y-35529193D01*
X198934949Y-35532817D01*
X198934951Y-35532820D01*
X199059890Y-35704786D01*
X199059892Y-35704788D01*
X199210216Y-35855112D01*
X199382169Y-35980042D01*
X199382200Y-35980060D01*
X199382442Y-35980182D01*
X199571588Y-36076557D01*
X199773757Y-36142246D01*
X199983713Y-36175500D01*
X199983714Y-36175500D01*
X200196286Y-36175500D01*
X200196287Y-36175500D01*
X200406243Y-36142246D01*
X200608412Y-36076557D01*
X200797816Y-35980051D01*
X200884138Y-35917335D01*
X200969786Y-35855109D01*
X200969788Y-35855106D01*
X200969792Y-35855104D01*
X200969799Y-35855096D01*
X200969849Y-35855061D01*
X200970605Y-35854290D01*
X201120104Y-35704792D01*
X201120106Y-35704788D01*
X201120109Y-35704786D01*
X201183460Y-35617590D01*
X201240150Y-35539563D01*
X201245047Y-35532821D01*
X201245048Y-35532818D01*
X201245051Y-35532816D01*
X201341557Y-35343412D01*
X201407246Y-35141243D01*
X201440500Y-34931287D01*
X201440500Y-34718713D01*
X201407246Y-34508757D01*
X201341557Y-34306588D01*
X201245051Y-34117184D01*
X201245049Y-34117181D01*
X201245048Y-34117179D01*
X201244702Y-34116703D01*
X201244700Y-34116699D01*
X201120112Y-33945216D01*
X200969788Y-33794892D01*
X200969786Y-33794890D01*
X200797817Y-33669949D01*
X200797812Y-33669946D01*
X200796584Y-33669194D01*
X200776242Y-33653624D01*
X200766127Y-33644071D01*
X200730906Y-33583734D01*
X200733896Y-33513929D01*
X200770066Y-33460210D01*
X200777122Y-33454096D01*
X200793537Y-33442083D01*
X200797542Y-33439628D01*
X200797555Y-33439622D01*
X200819119Y-33423953D01*
X200845858Y-33414412D01*
X200851717Y-33400269D01*
X200346149Y-32894702D01*
X200312664Y-32833379D01*
X200317648Y-32763688D01*
X200359519Y-32707754D01*
X200371822Y-32699639D01*
X200397007Y-32685099D01*
X200490099Y-32592007D01*
X200504634Y-32566830D01*
X200555199Y-32518616D01*
X200623805Y-32505391D01*
X200688671Y-32531358D01*
X200699702Y-32541149D01*
X201205269Y-33046717D01*
X201205269Y-33046716D01*
X201205270Y-33046717D01*
X201205270Y-33046716D01*
X201218738Y-33041137D01*
X201224955Y-33019967D01*
X201228954Y-33014118D01*
X201242569Y-32995380D01*
X201244622Y-32992554D01*
X201341095Y-32803217D01*
X201406757Y-32601130D01*
X201406757Y-32601127D01*
X201440000Y-32391246D01*
X201440000Y-32178753D01*
X201426260Y-32092007D01*
X201408284Y-31978511D01*
X201408283Y-31978505D01*
X201408283Y-31978506D01*
X201406756Y-31968865D01*
X201379473Y-31884898D01*
X201341095Y-31766782D01*
X201244624Y-31577449D01*
X201205270Y-31523282D01*
X201205269Y-31523282D01*
X201205268Y-31523282D01*
X200699702Y-32028849D01*
X200638379Y-32062334D01*
X200568687Y-32057350D01*
X200512754Y-32015478D01*
X200504636Y-32003173D01*
X200490099Y-31977993D01*
X200397007Y-31884901D01*
X200397004Y-31884899D01*
X200397000Y-31884896D01*
X200371828Y-31870363D01*
X200323613Y-31819796D01*
X200310391Y-31751189D01*
X200336359Y-31686324D01*
X200346135Y-31675310D01*
X200851716Y-31169728D01*
X200845822Y-31165446D01*
X200797550Y-31130375D01*
X200797548Y-31130374D01*
X200608214Y-31033902D01*
X200406130Y-30968242D01*
X200196251Y-30935000D01*
X200196246Y-30935000D01*
X199983754Y-30935000D01*
X199983749Y-30935000D01*
X199783513Y-30966715D01*
X199783505Y-30966715D01*
X199783506Y-30966716D01*
X199773865Y-30968242D01*
X199571784Y-31033903D01*
X199382438Y-31130380D01*
X199328282Y-31169727D01*
X199328282Y-31169728D01*
X199833850Y-31675296D01*
X199867335Y-31736619D01*
X199862351Y-31806311D01*
X199820479Y-31862244D01*
X199808173Y-31870362D01*
X199782996Y-31884898D01*
X199782990Y-31884903D01*
X199689903Y-31977990D01*
X199689898Y-31977996D01*
X199675362Y-32003173D01*
X199624793Y-32051387D01*
X199556185Y-32064607D01*
X199491322Y-32038637D01*
X199480296Y-32028850D01*
X198974728Y-31523282D01*
X198974727Y-31523282D01*
X198935376Y-31577443D01*
X198934386Y-31579060D01*
X198918810Y-31599408D01*
X198909350Y-31609424D01*
X198849007Y-31644646D01*
X198779201Y-31641652D01*
X198725492Y-31605486D01*
X198719415Y-31598472D01*
X198707814Y-31581216D01*
X198707174Y-31581609D01*
X198704630Y-31577458D01*
X198704623Y-31577449D01*
X198665270Y-31523282D01*
X198665268Y-31523282D01*
X198159702Y-32028849D01*
X198098379Y-32062334D01*
X198028687Y-32057350D01*
X197972754Y-32015478D01*
X197964636Y-32003173D01*
X197950099Y-31977993D01*
X197857007Y-31884901D01*
X197857004Y-31884899D01*
X197857000Y-31884896D01*
X197831828Y-31870363D01*
X197783613Y-31819796D01*
X197770391Y-31751189D01*
X197796359Y-31686324D01*
X197806135Y-31675310D01*
X198311716Y-31169728D01*
X198305822Y-31165446D01*
X198257550Y-31130375D01*
X198257548Y-31130374D01*
X198068214Y-31033902D01*
X197866130Y-30968242D01*
X197656251Y-30935000D01*
X197656246Y-30935000D01*
X197443754Y-30935000D01*
X197443749Y-30935000D01*
X197243513Y-30966715D01*
X197243505Y-30966715D01*
X197243506Y-30966716D01*
X197233865Y-30968242D01*
X197031784Y-31033903D01*
X196842438Y-31130380D01*
X196788282Y-31169727D01*
X196788282Y-31169728D01*
X197293850Y-31675296D01*
X197327335Y-31736619D01*
X197322351Y-31806311D01*
X197280479Y-31862244D01*
X197268173Y-31870362D01*
X197242996Y-31884898D01*
X197242990Y-31884903D01*
X197149903Y-31977990D01*
X197149898Y-31977996D01*
X197135362Y-32003173D01*
X197084793Y-32051387D01*
X197016185Y-32064607D01*
X196951322Y-32038637D01*
X196940296Y-32028850D01*
X196434728Y-31523282D01*
X196434727Y-31523282D01*
X196395376Y-31577443D01*
X196394386Y-31579060D01*
X196378810Y-31599408D01*
X196369350Y-31609424D01*
X196309007Y-31644646D01*
X196239201Y-31641652D01*
X196185492Y-31605486D01*
X196179415Y-31598472D01*
X196167814Y-31581216D01*
X196167174Y-31581609D01*
X196164630Y-31577458D01*
X196164623Y-31577449D01*
X196125270Y-31523282D01*
X196125268Y-31523282D01*
X195619702Y-32028849D01*
X195558379Y-32062334D01*
X195488687Y-32057350D01*
X195432754Y-32015478D01*
X195424636Y-32003173D01*
X195410099Y-31977993D01*
X195317007Y-31884901D01*
X195317004Y-31884899D01*
X195317000Y-31884896D01*
X195291828Y-31870363D01*
X195243613Y-31819796D01*
X195230391Y-31751189D01*
X195256359Y-31686324D01*
X195266135Y-31675310D01*
X195771716Y-31169728D01*
X195765822Y-31165446D01*
X195717550Y-31130375D01*
X195717548Y-31130374D01*
X195528214Y-31033902D01*
X195326130Y-30968242D01*
X195116251Y-30935000D01*
X195116246Y-30935000D01*
X194903754Y-30935000D01*
X194903749Y-30935000D01*
X194703513Y-30966715D01*
X194703505Y-30966715D01*
X194703506Y-30966716D01*
X194693865Y-30968242D01*
X194491784Y-31033903D01*
X194302438Y-31130380D01*
X194248282Y-31169727D01*
X194248282Y-31169728D01*
X194753850Y-31675296D01*
X194787335Y-31736619D01*
X194782351Y-31806311D01*
X194740479Y-31862244D01*
X194728173Y-31870362D01*
X194702996Y-31884898D01*
X194702990Y-31884903D01*
X194609903Y-31977990D01*
X194609899Y-31977996D01*
X194595364Y-32003171D01*
X194544796Y-32051385D01*
X194476189Y-32064607D01*
X194411325Y-32038638D01*
X194400297Y-32028850D01*
X193894728Y-31523282D01*
X193894727Y-31523282D01*
X193855376Y-31577443D01*
X193854386Y-31579060D01*
X193838810Y-31599408D01*
X193829350Y-31609424D01*
X193769007Y-31644646D01*
X193699201Y-31641652D01*
X193645492Y-31605486D01*
X193639415Y-31598472D01*
X193627814Y-31581216D01*
X193627174Y-31581609D01*
X193624630Y-31577458D01*
X193624623Y-31577449D01*
X193585270Y-31523282D01*
X193585268Y-31523282D01*
X193079702Y-32028849D01*
X193018379Y-32062334D01*
X192948687Y-32057350D01*
X192892754Y-32015478D01*
X192884636Y-32003173D01*
X192870099Y-31977993D01*
X192777007Y-31884901D01*
X192777004Y-31884899D01*
X192777000Y-31884896D01*
X192751828Y-31870363D01*
X192703613Y-31819796D01*
X192690391Y-31751189D01*
X192716359Y-31686324D01*
X192726135Y-31675310D01*
X193231716Y-31169728D01*
X193225822Y-31165446D01*
X193177550Y-31130375D01*
X193177548Y-31130374D01*
X192988214Y-31033902D01*
X192786130Y-30968242D01*
X192576251Y-30935000D01*
X192576246Y-30935000D01*
X192363754Y-30935000D01*
X192363749Y-30935000D01*
X192163513Y-30966715D01*
X192163505Y-30966715D01*
X192163506Y-30966716D01*
X192153865Y-30968242D01*
X191951784Y-31033903D01*
X191762438Y-31130380D01*
X191708282Y-31169727D01*
X191708282Y-31169728D01*
X192213850Y-31675296D01*
X192247335Y-31736619D01*
X192242351Y-31806311D01*
X192200479Y-31862244D01*
X192188173Y-31870362D01*
X192162996Y-31884898D01*
X192162990Y-31884903D01*
X192069903Y-31977990D01*
X192069898Y-31977996D01*
X192055362Y-32003173D01*
X192004793Y-32051387D01*
X191936185Y-32064607D01*
X191871322Y-32038637D01*
X191860296Y-32028850D01*
X191354728Y-31523282D01*
X191354727Y-31523282D01*
X191315380Y-31577438D01*
X191218903Y-31766784D01*
X191153242Y-31968865D01*
X191151798Y-31977990D01*
X191120000Y-32178753D01*
X191120000Y-32391246D01*
X191145410Y-32551678D01*
X191151715Y-32591485D01*
X191151716Y-32591493D01*
X191153242Y-32601133D01*
X191197697Y-32737950D01*
X191218904Y-32803217D01*
X191281137Y-32925355D01*
X191315374Y-32992548D01*
X191315375Y-32992550D01*
X191350674Y-33041137D01*
X191354728Y-33046716D01*
X191860297Y-32541147D01*
X191921619Y-32507663D01*
X191991311Y-32512647D01*
X192047244Y-32554519D01*
X192055363Y-32566828D01*
X192069896Y-32592000D01*
X192069899Y-32592004D01*
X192069901Y-32592007D01*
X192162993Y-32685099D01*
X192188169Y-32699634D01*
X192236384Y-32750202D01*
X192249606Y-32818809D01*
X192223638Y-32883673D01*
X192213849Y-32894702D01*
X191682977Y-33425573D01*
X191660923Y-33442083D01*
X191654726Y-33446722D01*
X191631638Y-33459330D01*
X191574922Y-33473807D01*
X191574948Y-33474372D01*
X191572225Y-33474495D01*
X191572208Y-33474500D01*
X191572134Y-33474500D01*
X191572123Y-33474501D01*
X191572120Y-33474501D01*
X191572099Y-33474503D01*
X191512517Y-33480907D01*
X191377666Y-33531204D01*
X191377665Y-33531205D01*
X191262456Y-33617450D01*
X191262450Y-33617456D01*
X191176205Y-33732665D01*
X191176203Y-33732668D01*
X191125907Y-33867516D01*
X191119501Y-33927116D01*
X191119500Y-33927139D01*
X178300864Y-33927139D01*
X178286092Y-33833872D01*
X178286092Y-33833869D01*
X178220430Y-33631782D01*
X178123959Y-33442449D01*
X178084605Y-33388282D01*
X178084604Y-33388282D01*
X178084603Y-33388282D01*
X177579037Y-33893849D01*
X177517714Y-33927334D01*
X177448022Y-33922350D01*
X177392089Y-33880478D01*
X177383969Y-33868169D01*
X177383592Y-33867516D01*
X177369434Y-33842993D01*
X177276342Y-33749901D01*
X177276339Y-33749899D01*
X177276335Y-33749896D01*
X177251163Y-33735363D01*
X177202948Y-33684796D01*
X177189726Y-33616189D01*
X177215694Y-33551324D01*
X177225470Y-33540310D01*
X177731051Y-33034728D01*
X177676885Y-32995375D01*
X177652196Y-32982795D01*
X177487549Y-32898902D01*
X177285465Y-32833242D01*
X177075586Y-32800000D01*
X177075581Y-32800000D01*
X176863089Y-32800000D01*
X176863084Y-32800000D01*
X176662848Y-32831715D01*
X176662840Y-32831715D01*
X176662841Y-32831716D01*
X176653200Y-32833242D01*
X176451119Y-32898903D01*
X176261773Y-32995380D01*
X176207617Y-33034727D01*
X176207617Y-33034728D01*
X176713185Y-33540296D01*
X176746670Y-33601619D01*
X176741686Y-33671311D01*
X176699814Y-33727244D01*
X176687508Y-33735362D01*
X176662331Y-33749898D01*
X176662325Y-33749903D01*
X176569238Y-33842990D01*
X176569233Y-33842996D01*
X176554697Y-33868173D01*
X176504128Y-33916387D01*
X176435520Y-33929607D01*
X176370657Y-33903637D01*
X176359631Y-33893850D01*
X175828760Y-33362979D01*
X175828755Y-33362974D01*
X175807608Y-33334723D01*
X175795001Y-33311634D01*
X175780648Y-33255401D01*
X175780235Y-33255423D01*
X175780189Y-33255429D01*
X175780188Y-33255426D01*
X175780011Y-33255436D01*
X175779839Y-33252230D01*
X175779834Y-33252209D01*
X175779834Y-33252129D01*
X175779833Y-33252123D01*
X175779832Y-33252116D01*
X175773426Y-33192517D01*
X175764717Y-33169168D01*
X175745261Y-33117002D01*
X175743713Y-33112851D01*
X175723133Y-33057673D01*
X175723128Y-33057664D01*
X175723121Y-33057654D01*
X175636890Y-32942465D01*
X175636884Y-32942458D01*
X175636882Y-32942455D01*
X175636879Y-32942452D01*
X175636877Y-32942450D01*
X175558361Y-32883673D01*
X175521670Y-32856206D01*
X175521667Y-32856204D01*
X175521665Y-32856203D01*
X175521663Y-32856202D01*
X175386817Y-32805908D01*
X175386818Y-32805908D01*
X175327218Y-32799501D01*
X175327216Y-32799500D01*
X175327208Y-32799500D01*
X175327199Y-32799500D01*
X175326176Y-32799500D01*
X173531458Y-32799500D01*
X173529527Y-32799659D01*
X173527880Y-32799885D01*
X173471851Y-32805908D01*
X173451861Y-32813364D01*
X173337001Y-32856204D01*
X173337000Y-32856205D01*
X173221791Y-32942450D01*
X173221785Y-32942456D01*
X173135540Y-33057665D01*
X173135538Y-33057668D01*
X173085242Y-33192516D01*
X173078836Y-33252116D01*
X173078835Y-33252139D01*
X168297424Y-33252139D01*
X168286635Y-33226091D01*
X168286628Y-33226079D01*
X168177139Y-33062218D01*
X168177136Y-33062214D01*
X168177131Y-33062208D01*
X168037790Y-32922867D01*
X168037784Y-32922862D01*
X168037783Y-32922861D01*
X167873926Y-32813375D01*
X167873925Y-32813374D01*
X167873920Y-32813371D01*
X167873907Y-32813364D01*
X167873900Y-32813360D01*
X167691861Y-32737958D01*
X167691847Y-32737953D01*
X167691839Y-32737950D01*
X167691829Y-32737947D01*
X167691826Y-32737946D01*
X167691822Y-32737945D01*
X167498546Y-32699500D01*
X167498543Y-32699500D01*
X167498541Y-32699500D01*
X167301459Y-32699500D01*
X167301457Y-32699500D01*
X167301453Y-32699500D01*
X167108176Y-32737945D01*
X167108170Y-32737947D01*
X167108160Y-32737950D01*
X167108155Y-32737951D01*
X167108137Y-32737958D01*
X166926098Y-32813360D01*
X166926089Y-32813365D01*
X166926072Y-32813375D01*
X166762215Y-32922861D01*
X166762214Y-32922862D01*
X166762208Y-32922867D01*
X166622867Y-33062208D01*
X166622862Y-33062214D01*
X166622861Y-33062215D01*
X166513375Y-33226072D01*
X166513365Y-33226089D01*
X166513360Y-33226098D01*
X166437958Y-33408137D01*
X166437945Y-33408176D01*
X166399500Y-33601451D01*
X166399500Y-33754174D01*
X166394237Y-33772094D01*
X166437945Y-33991822D01*
X166437946Y-33991826D01*
X166437947Y-33991829D01*
X166437950Y-33991839D01*
X166437953Y-33991847D01*
X166437958Y-33991861D01*
X166513360Y-34173901D01*
X166513361Y-34173903D01*
X166513375Y-34173925D01*
X166518693Y-34181883D01*
X166518693Y-34181884D01*
X166518694Y-34181885D01*
X166533927Y-34213722D01*
X166543833Y-34245355D01*
X166549500Y-34282412D01*
X166549500Y-39318518D01*
X166544476Y-39353455D01*
X166537064Y-39378696D01*
X166505769Y-39431440D01*
X163922924Y-42014283D01*
X163922923Y-42014286D01*
X163894669Y-42035437D01*
X163875120Y-42046112D01*
X163819224Y-42061230D01*
X163814760Y-42061357D01*
X163807261Y-42060874D01*
X163806847Y-42060965D01*
X163806467Y-42060823D01*
X163791836Y-42059881D01*
X163726291Y-42049500D01*
X163726287Y-42049500D01*
X163513713Y-42049500D01*
X163469631Y-42056482D01*
X163303759Y-42082753D01*
X163101580Y-42148445D01*
X162912182Y-42244949D01*
X162912179Y-42244950D01*
X162912179Y-42244951D01*
X162911589Y-42245380D01*
X162740210Y-42369892D01*
X162589892Y-42520210D01*
X162589890Y-42520213D01*
X162464952Y-42692179D01*
X162464945Y-42692188D01*
X162464634Y-42692696D01*
X162463499Y-42694177D01*
X162462085Y-42696125D01*
X162462036Y-42696089D01*
X162449060Y-42713041D01*
X162439353Y-42723319D01*
X162379011Y-42758542D01*
X162309205Y-42755550D01*
X162255488Y-42719378D01*
X162249285Y-42712219D01*
X162237274Y-42695811D01*
X162235053Y-42692187D01*
X162235051Y-42692184D01*
X162235050Y-42692182D01*
X162110109Y-42520213D01*
X161959786Y-42369890D01*
X161787820Y-42244951D01*
X161684781Y-42192450D01*
X161620245Y-42159567D01*
X161620240Y-42159565D01*
X161598414Y-42148444D01*
X161598413Y-42148443D01*
X161598412Y-42148443D01*
X161468427Y-42106208D01*
X161405074Y-42085623D01*
X161400552Y-42083770D01*
X161391362Y-42081600D01*
X161386599Y-42081226D01*
X161230369Y-42056482D01*
X161186287Y-42049500D01*
X161186286Y-42049500D01*
X160973714Y-42049500D01*
X160973713Y-42049500D01*
X160929631Y-42056482D01*
X160763759Y-42082753D01*
X160561580Y-42148445D01*
X160372182Y-42244949D01*
X160372179Y-42244950D01*
X160372179Y-42244951D01*
X160371589Y-42245380D01*
X160200210Y-42369892D01*
X160049886Y-42520216D01*
X159924943Y-42692187D01*
X159924188Y-42693421D01*
X159908613Y-42713768D01*
X159899070Y-42723872D01*
X159838728Y-42759094D01*
X159768922Y-42756100D01*
X159715211Y-42719934D01*
X159709107Y-42712890D01*
X159697086Y-42696467D01*
X159694628Y-42692457D01*
X159694626Y-42692452D01*
X159655270Y-42638282D01*
X159655268Y-42638282D01*
X159149702Y-43143849D01*
X159088379Y-43177334D01*
X159018687Y-43172350D01*
X158962754Y-43130478D01*
X158954634Y-43118169D01*
X158940099Y-43092993D01*
X158847007Y-42999901D01*
X158847004Y-42999899D01*
X158847000Y-42999896D01*
X158821828Y-42985363D01*
X158773613Y-42934796D01*
X158760391Y-42866189D01*
X158786359Y-42801324D01*
X158796141Y-42790303D01*
X159301716Y-42284728D01*
X159247550Y-42245375D01*
X159143680Y-42192450D01*
X159058214Y-42148902D01*
X158890875Y-42094531D01*
X158833200Y-42055094D01*
X158806001Y-41990735D01*
X158805609Y-41972319D01*
X158805500Y-41972319D01*
X158805500Y-40424010D01*
X158805500Y-40424000D01*
X158793947Y-40316544D01*
X158782741Y-40265033D01*
X158782637Y-40264722D01*
X158748616Y-40162502D01*
X158748613Y-40162496D01*
X158670828Y-40041462D01*
X158670825Y-40041457D01*
X158670820Y-40041451D01*
X158625076Y-39988659D01*
X158625072Y-39988656D01*
X158625070Y-39988653D01*
X158516336Y-39894433D01*
X158516333Y-39894431D01*
X158516331Y-39894430D01*
X158385465Y-39834664D01*
X158385460Y-39834662D01*
X158385459Y-39834662D01*
X158318420Y-39814977D01*
X158318422Y-39814977D01*
X158318417Y-39814976D01*
X158256354Y-39806053D01*
X158176000Y-39794500D01*
X158175998Y-39794500D01*
X154274500Y-39794500D01*
X154207461Y-39774815D01*
X154161706Y-39722011D01*
X154150500Y-39670500D01*
X154150500Y-38633433D01*
X154155522Y-38598500D01*
X154164864Y-38566684D01*
X154180741Y-38532729D01*
X154186632Y-38523914D01*
X154262051Y-38341835D01*
X154300500Y-38148541D01*
X154300500Y-37951459D01*
X154300500Y-37951456D01*
X154300500Y-37951453D01*
X154262112Y-37758471D01*
X154262112Y-37758472D01*
X154262052Y-37758170D01*
X154262051Y-37758169D01*
X154261811Y-37756964D01*
X154259735Y-37752573D01*
X154186635Y-37576092D01*
X154186628Y-37576079D01*
X154077139Y-37412218D01*
X154077136Y-37412214D01*
X154077131Y-37412208D01*
X153937790Y-37272867D01*
X153937784Y-37272862D01*
X153937783Y-37272861D01*
X153773926Y-37163375D01*
X153773925Y-37163374D01*
X153773920Y-37163371D01*
X153773907Y-37163364D01*
X153773900Y-37163360D01*
X153591861Y-37087958D01*
X153591847Y-37087953D01*
X153591839Y-37087950D01*
X153591829Y-37087947D01*
X153591826Y-37087946D01*
X153591822Y-37087945D01*
X153398546Y-37049500D01*
X153398543Y-37049500D01*
X153398541Y-37049500D01*
X153201459Y-37049500D01*
X153201457Y-37049500D01*
X153201453Y-37049500D01*
X153008176Y-37087945D01*
X153008170Y-37087947D01*
X153008160Y-37087950D01*
X153008155Y-37087951D01*
X153008137Y-37087958D01*
X152826098Y-37163360D01*
X152826089Y-37163365D01*
X152826072Y-37163375D01*
X152662215Y-37272861D01*
X152662214Y-37272862D01*
X152662208Y-37272867D01*
X152522867Y-37412208D01*
X152522862Y-37412214D01*
X152522861Y-37412215D01*
X152413375Y-37576072D01*
X152413365Y-37576089D01*
X152413360Y-37576098D01*
X152337958Y-37758137D01*
X152337945Y-37758176D01*
X152299500Y-37951451D01*
X152299500Y-38104174D01*
X152294237Y-38122094D01*
X152337945Y-38341822D01*
X152337946Y-38341826D01*
X152337947Y-38341829D01*
X152337950Y-38341839D01*
X152337953Y-38341847D01*
X152337958Y-38341861D01*
X152413360Y-38523901D01*
X152413361Y-38523903D01*
X152413375Y-38523925D01*
X152418693Y-38531883D01*
X152418693Y-38531884D01*
X152418694Y-38531885D01*
X152433927Y-38563722D01*
X152443833Y-38595355D01*
X152449500Y-38632412D01*
X152449500Y-41971757D01*
X152444475Y-42006701D01*
X152440070Y-42021699D01*
X152402305Y-42080462D01*
X152391282Y-42090015D01*
X152372160Y-42102576D01*
X152372572Y-42103262D01*
X152367665Y-42106205D01*
X152367661Y-42106208D01*
X152252456Y-42192450D01*
X152252450Y-42192456D01*
X152166205Y-42307665D01*
X152166203Y-42307668D01*
X152115907Y-42442516D01*
X152109501Y-42502116D01*
X152109500Y-42502139D01*
X143150500Y-42502139D01*
X143150500Y-33565105D01*
X159377944Y-33565105D01*
X159377944Y-35360842D01*
X159378103Y-35362772D01*
X159378329Y-35364420D01*
X159384351Y-35420448D01*
X159405267Y-35476525D01*
X159434646Y-35555294D01*
X159434650Y-35555301D01*
X159477530Y-35612582D01*
X159520894Y-35670508D01*
X159520896Y-35670510D01*
X159520899Y-35670513D01*
X159636108Y-35756759D01*
X159636115Y-35756763D01*
X159770961Y-35807057D01*
X159770960Y-35807057D01*
X159777888Y-35807801D01*
X159830571Y-35813466D01*
X161626316Y-35813465D01*
X161685927Y-35807057D01*
X161820775Y-35756762D01*
X161935990Y-35670512D01*
X162022240Y-35555297D01*
X162072535Y-35420449D01*
X162074616Y-35401095D01*
X162078943Y-35360854D01*
X162078943Y-35360848D01*
X162078944Y-35360839D01*
X162078943Y-35360782D01*
X162078948Y-35360762D01*
X162079121Y-35357531D01*
X162079299Y-35357540D01*
X162079300Y-35357534D01*
X162079421Y-35357547D01*
X162079585Y-35357555D01*
X162080571Y-35352594D01*
X162079653Y-35347506D01*
X162084933Y-35330643D01*
X162088379Y-35313307D01*
X162090916Y-35307178D01*
X162092384Y-35304491D01*
X162093246Y-35301553D01*
X162095787Y-35295419D01*
X162107222Y-35281226D01*
X162122668Y-35255185D01*
X162658741Y-34719113D01*
X162720063Y-34685629D01*
X162789755Y-34690613D01*
X162845688Y-34732485D01*
X162853807Y-34744794D01*
X162868340Y-34769966D01*
X162868343Y-34769970D01*
X162868345Y-34769973D01*
X162961437Y-34863065D01*
X162986613Y-34877600D01*
X163034828Y-34928168D01*
X163048050Y-34996775D01*
X163022082Y-35061639D01*
X163012293Y-35072668D01*
X162506726Y-35578234D01*
X162506726Y-35578235D01*
X162506726Y-35578236D01*
X162560893Y-35617590D01*
X162731982Y-35704765D01*
X162750228Y-35714062D01*
X162952310Y-35779722D01*
X162952311Y-35779722D01*
X162952314Y-35779723D01*
X163162198Y-35812966D01*
X163374689Y-35812966D01*
X163374690Y-35812966D01*
X163487494Y-35795098D01*
X163574931Y-35781250D01*
X163574937Y-35781249D01*
X163584571Y-35779723D01*
X163584574Y-35779723D01*
X163786661Y-35714061D01*
X163975998Y-35617588D01*
X163978420Y-35615828D01*
X163997565Y-35601919D01*
X164024302Y-35592378D01*
X164030161Y-35578235D01*
X163524593Y-35072668D01*
X163491108Y-35011345D01*
X163496092Y-34941654D01*
X163537963Y-34885720D01*
X163550266Y-34877605D01*
X163575451Y-34863065D01*
X163668543Y-34769973D01*
X163683078Y-34744796D01*
X163733643Y-34696582D01*
X163802249Y-34683357D01*
X163867115Y-34709324D01*
X163878146Y-34719115D01*
X164383713Y-35224683D01*
X164383713Y-35224682D01*
X164383714Y-35224683D01*
X164383714Y-35224682D01*
X164397182Y-35219103D01*
X164403399Y-35197933D01*
X164407398Y-35192084D01*
X164423065Y-35170521D01*
X164423066Y-35170520D01*
X164519539Y-34981183D01*
X164585201Y-34779096D01*
X164585201Y-34779093D01*
X164618444Y-34569212D01*
X164618444Y-34356719D01*
X164600805Y-34245355D01*
X164586728Y-34156477D01*
X164586727Y-34156471D01*
X164586727Y-34156472D01*
X164585200Y-34146831D01*
X164557917Y-34062864D01*
X164519539Y-33944748D01*
X164423068Y-33755415D01*
X164383714Y-33701248D01*
X164383713Y-33701248D01*
X164383712Y-33701248D01*
X163878146Y-34206815D01*
X163816823Y-34240300D01*
X163747131Y-34235316D01*
X163691198Y-34193444D01*
X163683078Y-34181135D01*
X163668543Y-34155959D01*
X163575451Y-34062867D01*
X163575448Y-34062865D01*
X163575444Y-34062862D01*
X163550272Y-34048329D01*
X163502057Y-33997762D01*
X163488835Y-33929155D01*
X163514803Y-33864290D01*
X163524579Y-33853276D01*
X164030160Y-33347694D01*
X163975994Y-33308341D01*
X163968633Y-33304590D01*
X163786658Y-33211868D01*
X163584574Y-33146208D01*
X163374695Y-33112966D01*
X163374690Y-33112966D01*
X163162198Y-33112966D01*
X163162193Y-33112966D01*
X162961957Y-33144681D01*
X162961949Y-33144681D01*
X162961950Y-33144682D01*
X162952309Y-33146208D01*
X162750228Y-33211869D01*
X162560882Y-33308346D01*
X162506726Y-33347693D01*
X162506726Y-33347694D01*
X163012294Y-33853262D01*
X163045779Y-33914585D01*
X163040795Y-33984277D01*
X162998923Y-34040210D01*
X162986617Y-34048328D01*
X162961440Y-34062864D01*
X162961434Y-34062869D01*
X162868347Y-34155956D01*
X162868342Y-34155962D01*
X162853806Y-34181139D01*
X162803237Y-34229353D01*
X162734629Y-34242573D01*
X162669766Y-34216603D01*
X162658740Y-34206816D01*
X162127869Y-33675945D01*
X162127864Y-33675940D01*
X162106717Y-33647689D01*
X162094110Y-33624600D01*
X162079757Y-33568367D01*
X162079344Y-33568389D01*
X162079298Y-33568395D01*
X162079297Y-33568392D01*
X162079120Y-33568402D01*
X162078948Y-33565196D01*
X162078943Y-33565175D01*
X162078943Y-33565095D01*
X162078942Y-33565089D01*
X162078941Y-33565082D01*
X162072535Y-33505483D01*
X162060980Y-33474503D01*
X162036238Y-33408165D01*
X162028822Y-33388282D01*
X162022242Y-33370639D01*
X162022237Y-33370630D01*
X162022230Y-33370620D01*
X161935998Y-33255429D01*
X161935989Y-33255419D01*
X161935986Y-33255416D01*
X161877813Y-33211868D01*
X161820779Y-33169172D01*
X161820776Y-33169170D01*
X161820774Y-33169169D01*
X161820772Y-33169168D01*
X161685926Y-33118874D01*
X161685927Y-33118874D01*
X161626327Y-33112467D01*
X161626325Y-33112466D01*
X161626317Y-33112466D01*
X161626308Y-33112466D01*
X161625285Y-33112466D01*
X159830567Y-33112466D01*
X159828636Y-33112625D01*
X159826989Y-33112851D01*
X159770960Y-33118874D01*
X159636110Y-33169170D01*
X159636109Y-33169171D01*
X159520900Y-33255416D01*
X159520894Y-33255422D01*
X159434649Y-33370631D01*
X159434647Y-33370634D01*
X159384351Y-33505482D01*
X159377945Y-33565082D01*
X159377944Y-33565105D01*
X143150500Y-33565105D01*
X143150500Y-31906642D01*
X143150578Y-31902242D01*
X143150580Y-31902190D01*
X143150738Y-31897762D01*
X143150970Y-31893414D01*
X143151580Y-31884901D01*
X143167358Y-31664269D01*
X143168304Y-31655474D01*
X143169562Y-31646728D01*
X143171133Y-31638024D01*
X143171135Y-31638018D01*
X143218541Y-31420095D01*
X143220726Y-31411533D01*
X143221274Y-31409666D01*
X143223213Y-31403060D01*
X143225999Y-31394686D01*
X143303962Y-31185662D01*
X143307335Y-31177521D01*
X143311021Y-31169449D01*
X143314961Y-31161579D01*
X143317153Y-31157566D01*
X143421879Y-30965771D01*
X143426367Y-30958209D01*
X143429065Y-30954011D01*
X143431157Y-30950758D01*
X143436197Y-30943500D01*
X143569860Y-30764947D01*
X143575401Y-30758072D01*
X143581185Y-30751397D01*
X143587202Y-30744933D01*
X143744933Y-30587202D01*
X143751397Y-30581185D01*
X143758072Y-30575401D01*
X143764947Y-30569860D01*
X143943525Y-30436178D01*
X143950752Y-30431160D01*
X143958243Y-30426347D01*
X143965798Y-30421865D01*
X144161568Y-30314968D01*
X144169446Y-30311023D01*
X144177520Y-30307336D01*
X144185675Y-30303957D01*
X144394687Y-30225999D01*
X144403060Y-30223213D01*
X144409666Y-30221274D01*
X144411533Y-30220726D01*
X144420095Y-30218541D01*
X144638030Y-30171131D01*
X144646728Y-30169562D01*
X144649191Y-30169207D01*
X144655481Y-30168303D01*
X144664269Y-30167358D01*
X144893383Y-30150973D01*
X144897791Y-30150737D01*
X144898162Y-30150723D01*
X144902222Y-30150579D01*
X144906643Y-30150500D01*
X215393357Y-30150500D01*
X215397779Y-30150579D01*
G37*
%TD.AperFunction*%
%TD*%
%TA.AperFunction,Conductor*%
%TO.N,+3V3*%
G36*
X158243039Y-40319685D02*
G01*
X158288794Y-40372489D01*
X158300000Y-40424000D01*
X158300000Y-41967890D01*
X158280315Y-42034929D01*
X158227511Y-42080684D01*
X158214318Y-42085821D01*
X158021585Y-42148444D01*
X157832185Y-42244948D01*
X157832181Y-42244950D01*
X157789008Y-42276318D01*
X157723202Y-42299798D01*
X157716123Y-42300000D01*
X156823877Y-42300000D01*
X156756838Y-42280315D01*
X156750992Y-42276318D01*
X156707818Y-42244950D01*
X156707814Y-42244948D01*
X156518414Y-42148444D01*
X156518413Y-42148443D01*
X156518412Y-42148443D01*
X156316243Y-42082754D01*
X156316241Y-42082753D01*
X156316240Y-42082753D01*
X156154957Y-42057208D01*
X156106287Y-42049500D01*
X155893713Y-42049500D01*
X155845042Y-42057208D01*
X155683760Y-42082753D01*
X155481585Y-42148444D01*
X155292185Y-42244948D01*
X155292181Y-42244950D01*
X155249008Y-42276318D01*
X155183202Y-42299798D01*
X155176123Y-42300000D01*
X154810124Y-42300000D01*
X154743085Y-42280315D01*
X154710859Y-42250313D01*
X154667546Y-42192454D01*
X154644709Y-42175358D01*
X154552335Y-42106206D01*
X154552328Y-42106202D01*
X154417482Y-42055908D01*
X154417483Y-42055908D01*
X154357883Y-42049501D01*
X154357881Y-42049500D01*
X154357873Y-42049500D01*
X154357865Y-42049500D01*
X154274500Y-42049500D01*
X154207461Y-42029815D01*
X154161706Y-41977011D01*
X154150500Y-41925500D01*
X154150500Y-40424000D01*
X154170185Y-40356961D01*
X154222989Y-40311206D01*
X154274500Y-40300000D01*
X158176000Y-40300000D01*
X158243039Y-40319685D01*
G37*
%TD.AperFunction*%
%TD*%
M02*
