%TF.GenerationSoftware,KiCad,Pcbnew,10.0.3*%
%TF.CreationDate,2026-07-01T09:56:05-07:00*%
%TF.ProjectId,Motor Interface Board,4d6f746f-7220-4496-9e74-657266616365,rev?*%
%TF.SameCoordinates,Original*%
%TF.FileFunction,Soldermask,Bot*%
%TF.FilePolarity,Negative*%
%FSLAX46Y46*%
G04 Gerber Fmt 4.6, Leading zero omitted, Abs format (unit mm)*
G04 Created by KiCad (PCBNEW 10.0.3) date 2026-07-01 09:56:05*
%MOMM*%
%LPD*%
G01*
G04 APERTURE LIST*
%ADD10R,1.700000X1.700000*%
%ADD11C,1.700000*%
%ADD12C,4.500000*%
%ADD13C,3.800000*%
G04 APERTURE END LIST*
D10*
%TO.C,J3*%
X160728444Y-34462966D03*
D11*
X163268444Y-34462966D03*
%TD*%
D10*
%TO.C,J5*%
X153470000Y-61650000D03*
D11*
X156010000Y-61650000D03*
X158550000Y-61650000D03*
X161090000Y-61650000D03*
X163630000Y-61650000D03*
X166170000Y-61650000D03*
X168710000Y-61650000D03*
X171250000Y-61650000D03*
X173790000Y-61650000D03*
X176330000Y-61650000D03*
X178870000Y-61650000D03*
X181410000Y-61650000D03*
X183950000Y-61650000D03*
X186490000Y-61650000D03*
X189030000Y-61650000D03*
X191570000Y-61650000D03*
X194110000Y-61650000D03*
X196650000Y-61650000D03*
X199190000Y-61650000D03*
X201730000Y-61650000D03*
%TD*%
D10*
%TO.C,J1*%
X170960000Y-70785480D03*
D11*
X170960000Y-68245480D03*
X173500000Y-70785480D03*
X173500000Y-68245480D03*
X176040000Y-70785480D03*
X176040000Y-68245480D03*
X178580000Y-70785480D03*
X178580000Y-68245480D03*
X181120000Y-70785480D03*
X181120000Y-68245480D03*
%TD*%
D10*
%TO.C,J7*%
X192470000Y-34825000D03*
D11*
X192470000Y-32285000D03*
X195010000Y-34825000D03*
X195010000Y-32285000D03*
X197550000Y-34825000D03*
X197550000Y-32285000D03*
X200090000Y-34825000D03*
X200090000Y-32285000D03*
%TD*%
D10*
%TO.C,J6*%
X153460000Y-43400000D03*
D11*
X156000000Y-43400000D03*
X158540000Y-43400000D03*
X161080000Y-43400000D03*
X163620000Y-43400000D03*
X166160000Y-43400000D03*
X168700000Y-43400000D03*
X171240000Y-43400000D03*
X173780000Y-43400000D03*
X176320000Y-43400000D03*
X178860000Y-43400000D03*
X181400000Y-43400000D03*
X183940000Y-43400000D03*
X186480000Y-43400000D03*
X189020000Y-43400000D03*
X191560000Y-43400000D03*
X194100000Y-43400000D03*
X196640000Y-43400000D03*
X199180000Y-43400000D03*
X201720000Y-43400000D03*
%TD*%
D10*
%TO.C,J2*%
X209492981Y-57661647D03*
D11*
X206952981Y-57661647D03*
X209492981Y-55121647D03*
X206952981Y-55121647D03*
X209492981Y-52581647D03*
X206952981Y-52581647D03*
X209492981Y-50041647D03*
X206952981Y-50041647D03*
X209492981Y-47501647D03*
X206952981Y-47501647D03*
%TD*%
D10*
%TO.C,J4*%
X174429335Y-34150000D03*
D11*
X176969335Y-34150000D03*
%TD*%
D12*
X145950000Y-71000000D03*
D13*
X154050000Y-46800000D03*
X200950000Y-58200000D03*
X200950000Y-46800000D03*
D12*
X145900000Y-32900000D03*
X214400000Y-32900000D03*
D13*
X154050000Y-58150000D03*
D12*
X214400000Y-71000000D03*
M02*
