%TF.GenerationSoftware,KiCad,Pcbnew,10.0.3*%
%TF.CreationDate,2026-07-01T09:56:05-07:00*%
%TF.ProjectId,Motor Interface Board,4d6f746f-7220-4496-9e74-657266616365,rev?*%
%TF.SameCoordinates,Original*%
%TF.FileFunction,Soldermask,Top*%
%TF.FilePolarity,Negative*%
%FSLAX46Y46*%
G04 Gerber Fmt 4.6, Leading zero omitted, Abs format (unit mm)*
G04 Created by KiCad (PCBNEW 10.0.3) date 2026-07-01 09:56:05*
%MOMM*%
%LPD*%
G01*
G04 APERTURE LIST*
G04 Aperture macros list*
%AMRoundRect*
0 Rectangle with rounded corners*
0 $1 Rounding radius*
0 $2 $3 $4 $5 $6 $7 $8 $9 X,Y pos of 4 corners*
0 Add a 4 corners polygon primitive as box body*
4,1,4,$2,$3,$4,$5,$6,$7,$8,$9,$2,$3,0*
0 Add four circle primitives for the rounded corners*
1,1,$1+$1,$2,$3*
1,1,$1+$1,$4,$5*
1,1,$1+$1,$6,$7*
1,1,$1+$1,$8,$9*
0 Add four rect primitives between the rounded corners*
20,1,$1+$1,$2,$3,$4,$5,0*
20,1,$1+$1,$4,$5,$6,$7,0*
20,1,$1+$1,$6,$7,$8,$9,0*
20,1,$1+$1,$8,$9,$2,$3,0*%
G04 Aperture macros list end*
%ADD10R,1.700000X1.700000*%
%ADD11C,1.700000*%
%ADD12RoundRect,0.100000X-0.637500X-0.100000X0.637500X-0.100000X0.637500X0.100000X-0.637500X0.100000X0*%
%ADD13RoundRect,0.250000X-0.350000X-0.450000X0.350000X-0.450000X0.350000X0.450000X-0.350000X0.450000X0*%
%ADD14RoundRect,0.250000X0.350000X0.450000X-0.350000X0.450000X-0.350000X-0.450000X0.350000X-0.450000X0*%
%ADD15RoundRect,0.250000X0.337500X0.475000X-0.337500X0.475000X-0.337500X-0.475000X0.337500X-0.475000X0*%
%ADD16RoundRect,0.250000X0.650000X-1.500000X0.650000X1.500000X-0.650000X1.500000X-0.650000X-1.500000X0*%
%ADD17C,4.500000*%
%ADD18C,3.800000*%
G04 APERTURE END LIST*
D10*
%TO.C,J3*%
X160728444Y-34462966D03*
D11*
X163268444Y-34462966D03*
%TD*%
D10*
%TO.C,J5*%
X153470000Y-61650000D03*
D11*
X156010000Y-61650000D03*
X158550000Y-61650000D03*
X161090000Y-61650000D03*
X163630000Y-61650000D03*
X166170000Y-61650000D03*
X168710000Y-61650000D03*
X171250000Y-61650000D03*
X173790000Y-61650000D03*
X176330000Y-61650000D03*
X178870000Y-61650000D03*
X181410000Y-61650000D03*
X183950000Y-61650000D03*
X186490000Y-61650000D03*
X189030000Y-61650000D03*
X191570000Y-61650000D03*
X194110000Y-61650000D03*
X196650000Y-61650000D03*
X199190000Y-61650000D03*
X201730000Y-61650000D03*
%TD*%
D12*
%TO.C,U1*%
X156158937Y-66251866D03*
X156158937Y-66901866D03*
X156158937Y-67551866D03*
X156158937Y-68201866D03*
X156158937Y-68851866D03*
X156158937Y-69501866D03*
X156158937Y-70151866D03*
X156158937Y-70801866D03*
X156158937Y-71451866D03*
X156158937Y-72101866D03*
X161883937Y-72101866D03*
X161883937Y-71451866D03*
X161883937Y-70801866D03*
X161883937Y-70151866D03*
X161883937Y-69501866D03*
X161883937Y-68851866D03*
X161883937Y-68201866D03*
X161883937Y-67551866D03*
X161883937Y-66901866D03*
X161883937Y-66251866D03*
%TD*%
D10*
%TO.C,J1*%
X170960000Y-70785480D03*
D11*
X170960000Y-68245480D03*
X173500000Y-70785480D03*
X173500000Y-68245480D03*
X176040000Y-70785480D03*
X176040000Y-68245480D03*
X178580000Y-70785480D03*
X178580000Y-68245480D03*
X181120000Y-70785480D03*
X181120000Y-68245480D03*
%TD*%
D10*
%TO.C,J7*%
X192470000Y-34825000D03*
D11*
X192470000Y-32285000D03*
X195010000Y-34825000D03*
X195010000Y-32285000D03*
X197550000Y-34825000D03*
X197550000Y-32285000D03*
X200090000Y-34825000D03*
X200090000Y-32285000D03*
%TD*%
D13*
%TO.C,R2*%
X151200000Y-36600000D03*
X153200000Y-36600000D03*
%TD*%
%TO.C,R1*%
X167550000Y-32050000D03*
X169550000Y-32050000D03*
%TD*%
D14*
%TO.C,R3*%
X153000000Y-32200000D03*
X151000000Y-32200000D03*
%TD*%
D15*
%TO.C,C2*%
X154137500Y-69650000D03*
X152062500Y-69650000D03*
%TD*%
%TO.C,C1*%
X166637500Y-66600000D03*
X164562500Y-66600000D03*
%TD*%
D10*
%TO.C,J6*%
X153460000Y-43400000D03*
D11*
X156000000Y-43400000D03*
X158540000Y-43400000D03*
X161080000Y-43400000D03*
X163620000Y-43400000D03*
X166160000Y-43400000D03*
X168700000Y-43400000D03*
X171240000Y-43400000D03*
X173780000Y-43400000D03*
X176320000Y-43400000D03*
X178860000Y-43400000D03*
X181400000Y-43400000D03*
X183940000Y-43400000D03*
X186480000Y-43400000D03*
X189020000Y-43400000D03*
X191560000Y-43400000D03*
X194100000Y-43400000D03*
X196640000Y-43400000D03*
X199180000Y-43400000D03*
X201720000Y-43400000D03*
%TD*%
D10*
%TO.C,J2*%
X209492981Y-57661647D03*
D11*
X206952981Y-57661647D03*
X209492981Y-55121647D03*
X206952981Y-55121647D03*
X209492981Y-52581647D03*
X206952981Y-52581647D03*
X209492981Y-50041647D03*
X206952981Y-50041647D03*
X209492981Y-47501647D03*
X206952981Y-47501647D03*
%TD*%
D16*
%TO.C,D1*%
X156550000Y-38700000D03*
X156550000Y-33700000D03*
%TD*%
D10*
%TO.C,J4*%
X174429335Y-34150000D03*
D11*
X176969335Y-34150000D03*
%TD*%
D17*
X145950000Y-71000000D03*
D18*
X154050000Y-46800000D03*
X200950000Y-58200000D03*
X200950000Y-46800000D03*
D17*
X145900000Y-32900000D03*
X214400000Y-32900000D03*
D18*
X154050000Y-58150000D03*
D17*
X214400000Y-71000000D03*
M02*
