M48
; DRILL file KiCad 10.0.3 date 2026-07-01T09:56:05
; FORMAT={-:-/ absolute / inch / decimal}
; #@! TF.CreationDate,2026-07-01T09:56:05-07:00
; #@! TF.GenerationSoftware,Kicad,Pcbnew,10.0.3
; #@! TF.FileFunction,Plated,1,2,PTH
FMAT,2
INCH
; #@! TA.AperFunction,Plated,PTH,ViaDrill
T1C0.0118
; #@! TA.AperFunction,Plated,PTH,ViaDrill
T2C0.0197
; #@! TA.AperFunction,Plated,PTH,ComponentDrill
T3C0.0394
; #@! TA.AperFunction,Plated,PTH,ViaDrill
T4C0.0866
%
G90
G05
T1
X5.9606Y-2.6535
X6.1051Y-1.626
X6.2087Y-1.626
X6.2146Y-2.6102
X6.2402Y-2.685
X6.2441Y-2.2913
X6.2461Y-2.6339
X6.3228Y-2.8327
X6.3247Y-2.7357
X6.3846Y-2.5736
X6.4221Y-2.7417
X6.4535Y-2.7429
X6.5669Y-2.7224
X6.6142Y-2.622
X6.7441Y-2.2835
X6.8858Y-2.5906
X7.063Y-1.2441
X7.2362Y-1.5118
X7.2441Y-1.7913
X7.2441Y-2.2992
X7.3819Y-1.2677
X7.5906Y-1.4862
X7.7441Y-1.4862
X7.7441Y-1.7992
X7.7441Y-2.2913
X7.748Y-2.6713
X7.8917Y-2.7972
X7.8957Y-1.4862
X8.0197Y-1.2717
X8.2283Y-2.4902
X8.248Y-1.7559
X8.313Y-2.563
X8.4488Y-1.9685
X8.4528Y-2.3504
X8.4567Y-1.5039
T2
X6.0354Y-1.498
X6.5906Y-1.3268
T3
X6.0417Y-1.7087
X6.0421Y-2.4272
X6.1417Y-1.7087
X6.1421Y-2.4272
X6.2417Y-1.7087
X6.2421Y-2.4272
X6.3279Y-1.3568
X6.3417Y-1.7087
X6.3421Y-2.4272
X6.4279Y-1.3568
X6.4417Y-1.7087
X6.4421Y-2.4272
X6.5417Y-1.7087
X6.5421Y-2.4272
X6.6417Y-1.7087
X6.6421Y-2.4272
X6.7307Y-2.6868
X6.7307Y-2.7868
X6.7417Y-1.7087
X6.7421Y-2.4272
X6.8307Y-2.6868
X6.8307Y-2.7868
X6.8417Y-1.7087
X6.8421Y-2.4272
X6.8673Y-1.3445
X6.9307Y-2.6868
X6.9307Y-2.7868
X6.9417Y-1.7087
X6.9421Y-2.4272
X6.9673Y-1.3445
X7.0307Y-2.6868
X7.0307Y-2.7868
X7.0417Y-1.7087
X7.0421Y-2.4272
X7.1307Y-2.6868
X7.1307Y-2.7868
X7.1417Y-1.7087
X7.1421Y-2.4272
X7.2417Y-1.7087
X7.2421Y-2.4272
X7.3417Y-1.7087
X7.3421Y-2.4272
X7.4417Y-1.7087
X7.4421Y-2.4272
X7.5417Y-1.7087
X7.5421Y-2.4272
X7.5776Y-1.2711
X7.5776Y-1.3711
X7.6417Y-1.7087
X7.6421Y-2.4272
X7.6776Y-1.2711
X7.6776Y-1.3711
X7.7417Y-1.7087
X7.7421Y-2.4272
X7.7776Y-1.2711
X7.7776Y-1.3711
X7.8417Y-1.7087
X7.8421Y-2.4272
X7.8776Y-1.2711
X7.8776Y-1.3711
X7.9417Y-1.7087
X7.9421Y-2.4272
X8.1478Y-1.8701
X8.1478Y-1.9701
X8.1478Y-2.0701
X8.1478Y-2.1701
X8.1478Y-2.2701
X8.2478Y-1.8701
X8.2478Y-1.9701
X8.2478Y-2.0701
X8.2478Y-2.1701
X8.2478Y-2.2701
T4
X5.7441Y-1.2953
X5.7461Y-2.7953
X6.065Y-1.8425
X6.065Y-2.2894
X7.9114Y-1.8425
X7.9114Y-2.2913
X8.4409Y-1.2953
X8.4409Y-2.7953
M30
